<svg width="240" height="135" viewBox="0 0 240 135" fill="none" xmlns="http://www.w3.org/2000/svg">
<g clip-path="url(#clip0_487_2)">
<rect width="240" height="135" fill="#D6DBE3"/>
<g filter="url(#filter0_d_487_2)">
<path d="M5 59C5 57.8954 5.89543 57 7 57H234C235.105 57 236 57.8954 236 59V113H5V59Z" fill="white"/>
</g>
<g filter="url(#filter1_d_487_2)">
<path d="M5 113H236V129C236 130.105 235.105 131 234 131H7C5.89543 131 5 130.105 5 129V113Z" fill="white"/>
</g>
<rect width="240" height="15" fill="#131516"/>
<path d="M6.22739 10.4871V4.9987H5.40258V3.98577H8.77055V4.9987H7.95556V10.4871H8.77055V11.5H5.40258V10.4871H6.22739ZM14.8095 4.12014V5.53616C14.2105 5.2881 13.6901 5.17441 13.1009 5.17441C11.8146 5.17441 11.3237 5.89792 11.3237 7.76873C11.3237 9.56718 11.8343 10.2907 13.0911 10.2907C13.6901 10.2907 14.1614 10.1873 14.8488 9.9186V11.2416C14.3087 11.5103 13.6705 11.655 12.9929 11.655C11.8048 11.655 10.8524 11.2623 10.2534 10.5181C9.7428 9.87726 9.49732 8.9987 9.49732 7.77906C9.49732 6.34237 9.85081 5.35012 10.6069 4.65761C11.2157 4.09947 12.0503 3.81006 13.0518 3.81006C13.6803 3.81006 14.24 3.90309 14.8095 4.12014ZM16.0647 11.5V3.98577H20.9645V5.38112H17.7929V7.0142H20.2968V8.3372H17.7929V10.1046H21.2394L21.1216 11.5H16.0647ZM29.4805 3.69637V5.04004C27.5559 5.18474 26.8097 5.83591 26.7606 7.4173C27.1828 6.9832 27.605 6.80748 28.1942 6.80748C29.4118 6.80748 30.0795 7.60335 30.0795 9.04005C30.0795 10.6421 29.127 11.655 27.6149 11.655C26.741 11.655 26.0438 11.2933 25.6019 10.6111C25.219 10.022 25.0324 9.19509 25.0324 8.0478C25.0324 6.24934 25.5921 5.08138 26.7999 4.3682C27.4872 3.9651 28.2531 3.77905 29.4805 3.69637ZM26.7606 8.3062V8.41989V8.47157C26.7606 9.92894 26.9864 10.4354 27.6443 10.4354C28.1844 10.4354 28.4004 10.0633 28.4004 9.13307C28.4004 8.26485 28.2138 7.99612 27.6247 7.99612C27.2908 7.99612 27.0454 8.0788 26.7606 8.3062ZM30.9594 11.5V10.5077C32.1671 9.36046 32.4322 9.09173 32.8839 8.56459C33.5909 7.72738 33.8167 7.21059 33.8167 6.42505C33.8167 5.71187 33.5123 5.38112 32.8348 5.38112C32.3046 5.38112 31.8627 5.52583 31.1263 5.95994V4.60593C31.7351 4.20283 32.3831 4.01678 33.1588 4.01678C34.6906 4.01678 35.4958 4.81265 35.4958 6.33203C35.4958 7.20025 35.2503 7.83074 34.5728 8.65762C34.2684 9.02971 33.9149 9.39147 33.1097 10.1563H35.6333L35.4958 11.5H30.9594ZM41.5307 4.20283L41.4031 5.52583H38.8305L38.6341 7.09689C38.9483 7.00387 39.1741 6.97286 39.4785 6.97286C40.8041 6.97286 41.5307 7.68604 41.5307 8.97803C41.5307 10.3217 40.8827 11.1589 39.4982 11.6034C38.7716 11.8411 38.2119 11.9134 36.8372 11.9858V10.6731C37.9762 10.5698 38.4672 10.4871 38.9778 10.27C39.5964 10.0013 39.8615 9.6602 39.8615 9.09173C39.8615 8.4509 39.4884 8.20284 38.5457 8.20284C38.0842 8.20284 37.662 8.25452 37.1907 8.36821L37.6914 4.20283H41.5307Z" fill="white"/>
<path d="M48 9.02841V5.97159C48 5.56491 48.4597 5.32835 48.7906 5.56473L50.9304 7.09313C51.2096 7.29254 51.2096 7.70746 50.9304 7.90687L48.7906 9.43527C48.4597 9.67165 48 9.43509 48 9.02841Z" fill="white"/>
<path d="M57.4328 11.5L57.5801 3.98577H58.7584L60.9481 9.30878L63.1574 3.98577H64.3259V11.5H63.3734V5.45348L61.115 10.7248H60.5258L58.4147 5.55684L58.3067 11.5H57.4328ZM69.5836 11.5L69.348 10.7455C68.6901 11.407 68.1795 11.6654 67.502 11.6654C66.9815 11.6654 66.5986 11.4587 66.3629 11.0659C66.1764 10.7661 66.1076 10.4354 66.1076 9.85659V6.19766L67.0208 6.13565V9.87726C67.0208 10.6214 67.2467 10.9212 67.7965 10.9212C68.2777 10.9212 68.6213 10.7661 69.2694 10.2597V6.19766L70.1826 6.13565V11.5H69.5836ZM67.335 4.01678C67.6591 4.01678 67.8849 4.25451 67.8849 4.59559C67.8849 4.93668 67.6591 5.17441 67.3252 5.17441C67.011 5.17441 66.7852 4.93668 66.7852 4.59559C66.7852 4.25451 67.011 4.01678 67.335 4.01678ZM69.0141 4.01678C69.3381 4.01678 69.564 4.25451 69.564 4.59559C69.564 4.93668 69.3381 5.17441 69.0043 5.17441C68.6901 5.17441 68.4642 4.93668 68.4642 4.59559C68.4642 4.25451 68.6901 4.01678 69.0141 4.01678ZM71.8718 11.5V6.28035C72.1762 6.27002 72.4708 6.16666 72.6279 6.02195H72.785V6.90051C73.5214 6.28035 74.0124 6.05296 74.6408 6.05296C75.5245 6.05296 76.0351 6.66278 76.0351 7.70671V11.5H75.1219V7.84108C75.1219 7.15891 74.8764 6.84883 74.3364 6.84883C73.8651 6.84883 73.5705 6.96252 72.785 7.46898V11.5H71.8718ZM81.2375 10.4457V11.2416C80.6483 11.5413 80.2065 11.6654 79.6861 11.6654C78.1248 11.6654 77.3393 10.7248 77.3393 8.83333C77.3393 7.00387 78.1445 6.05296 79.6959 6.05296C80.1868 6.05296 80.5796 6.13565 81.1393 6.3527V7.21059C80.4225 6.89017 80.1672 6.81782 79.6861 6.81782C78.6354 6.81782 78.3114 7.29327 78.3114 8.854C78.3114 10.4147 78.655 10.9109 79.7253 10.9109C80.2261 10.9109 80.393 10.8592 81.2375 10.4457ZM82.5156 11.5V3.94443C82.82 3.93409 83.1146 3.83073 83.2717 3.68603H83.4288V6.90051C84.175 6.27002 84.6562 6.05296 85.2846 6.05296C86.1683 6.05296 86.6789 6.66278 86.6789 7.70671V11.5H85.7657V7.77906C85.7657 7.16924 85.5006 6.84883 84.9802 6.84883C84.5089 6.84883 84.2143 6.96252 83.4288 7.46898V11.5H82.5156ZM92.3133 9.04005H88.9552C88.9552 10.3941 89.3578 10.9109 90.4379 10.9109C90.9779 10.9109 91.2627 10.8282 92.0875 10.4354V11.2313C91.4689 11.5413 90.9976 11.6654 90.4182 11.6654C88.8079 11.6654 87.9831 10.7145 87.9831 8.86434C87.9831 7.04521 88.7784 6.05296 90.2317 6.05296C91.5769 6.05296 92.3133 6.95219 92.3133 8.60594V9.04005ZM88.9552 8.3372H91.3314C91.2725 7.14857 90.9877 6.73513 90.2218 6.73513C89.6818 6.73513 89.3185 6.9832 89.1123 7.46898C89.0337 7.68604 88.9846 7.91343 88.9552 8.3372ZM93.6292 11.5V6.28035C93.9336 6.27002 94.2282 6.16666 94.3853 6.02195H94.5424V6.90051C95.2789 6.28035 95.7698 6.05296 96.3982 6.05296C97.282 6.05296 97.7926 6.66278 97.7926 7.70671V11.5H96.8794V7.84108C96.8794 7.15891 96.6339 6.84883 96.0938 6.84883C95.6225 6.84883 95.328 6.96252 94.5424 7.46898V11.5H93.6292ZM102.512 11.5V3.98577H103.464V7.2726H107.078V3.98577H108.03V11.5H107.078V8.02712H103.464V11.5H102.512ZM109.854 11.5V3.94443C110.158 3.93409 110.453 3.83073 110.61 3.68603H110.767V6.90051C111.513 6.24934 111.945 6.05296 112.574 6.05296C113.703 6.05296 114.371 7.06588 114.371 8.79198C114.371 9.85659 114.135 10.6008 113.644 11.1176C113.3 11.4793 112.858 11.6654 112.368 11.6654C111.788 11.6654 111.238 11.438 110.63 10.9315L110.443 11.5H109.854ZM110.767 7.46898V10.4561C111.317 10.8178 111.651 10.9315 112.142 10.9315C113.016 10.9315 113.379 10.3114 113.379 8.854C113.379 7.40697 113.065 6.84883 112.25 6.84883C111.788 6.84883 111.582 6.93152 110.767 7.46898ZM115.202 6.83849V6.14598H115.968V5.74288C115.968 4.41988 116.626 3.6757 117.775 3.6757H118.285V4.44055C118.138 4.40955 118.04 4.39921 117.922 4.39921C117.225 4.39921 116.881 4.81265 116.881 5.6602V6.14598H118.118V6.83849H116.881V11.5H115.968V6.83849H115.202Z" fill="white"/>
<path d="M209.136 11.5V10.8385H211.081V5.09172L209.46 5.6602V4.9987L211.522 4.15115H212.033V10.8385H213.653V11.5H209.136ZM214.906 11.5V10.9109C215.014 10.8075 215.24 10.5904 215.584 10.2597C217.705 8.22351 218.186 7.46898 218.186 6.17699C218.186 5.26743 217.773 4.81265 216.939 4.81265C216.291 4.81265 215.682 5.04004 215.054 5.51549V4.69895C215.584 4.25451 216.271 4.01678 216.998 4.01678C218.402 4.01678 219.178 4.80231 219.178 6.21834C219.178 7.20025 218.844 7.92377 217.921 8.94702C217.548 9.35012 217.361 9.53617 216.104 10.7248H219.364L219.276 11.5H214.906ZM221.648 10.1977C222.041 10.1977 222.326 10.4974 222.326 10.9109C222.326 11.3243 222.041 11.624 221.648 11.624C221.246 11.624 220.971 11.3243 220.971 10.9005C220.971 10.4974 221.255 10.1977 221.648 10.1977ZM221.648 6.64211C222.041 6.64211 222.326 6.94185 222.326 7.35529C222.326 7.76873 222.041 8.06847 221.648 8.06847C221.246 8.06847 220.971 7.76873 220.971 7.34495C220.971 6.94185 221.255 6.64211 221.648 6.64211ZM227.764 11.5H226.811V9.88759H223.365V9.3708L226.703 3.81006H227.597L224.405 9.18475H226.811V6.77648L227.764 6.66278V9.18475H228.745V9.88759H227.764V11.5ZM229.537 8.47157V7.20025C229.537 5.23642 230.46 4.01678 231.953 4.01678C233.445 4.01678 234.368 5.23642 234.368 7.20025V8.47157C234.368 10.4354 233.445 11.655 231.953 11.655C230.46 11.655 229.537 10.4354 229.537 8.47157ZM233.357 8.53359V7.13823C233.357 5.46381 232.934 4.75063 231.953 4.75063C230.971 4.75063 230.548 5.46381 230.548 7.13823V8.53359C230.548 10.208 230.971 10.9212 231.953 10.9212C232.934 10.9212 233.357 10.208 233.357 8.53359Z" fill="white"/>
<g filter="url(#filter2_d_487_2)">
<rect x="5" y="19" width="231" height="34" rx="2" fill="white"/>
</g>
<path d="M16 57V110.5" stroke="#8A8B98" stroke-width="2"/>
<path d="M16 113V122.5" stroke="#8A8B98" stroke-width="2"/>
<path d="M10.9879 31.3501V26.3494H11.5725L14.3033 30.0707V26.3494H14.9224V31.3501H14.4753L11.6069 27.45V31.3501H10.9879ZM19.149 30.8892V31.3157C18.9908 31.3707 18.8257 31.3982 18.695 31.3982C18.358 31.3982 18.1585 31.2332 18.0691 30.8824C17.6976 31.2813 17.3399 31.4602 16.9066 31.4602C16.2806 31.4602 15.9161 31.0956 15.9161 30.4559C15.9161 29.9194 16.1431 29.6236 16.6452 29.4791C16.9685 29.3828 17.168 29.3622 18.0484 29.3003V29.0045C18.0484 28.4473 17.849 28.2272 17.3537 28.2272C16.9823 28.2272 16.6452 28.3166 16.1362 28.5436V28.0277C16.5695 27.8214 16.9547 27.7251 17.3881 27.7251C18.2823 27.7251 18.6881 28.124 18.6881 29.0114V30.6141C18.6881 30.8411 18.7569 30.9167 18.9495 30.9167C19.0252 30.9167 19.0733 30.9099 19.149 30.8892ZM18.0484 30.4765V29.7061L17.9521 29.713L17.6632 29.7336C16.8103 29.7955 16.5558 29.9537 16.5558 30.4284C16.5558 30.8273 16.7071 30.9924 17.0717 30.9924C17.4087 30.9924 17.7389 30.8204 18.0484 30.4765ZM16.8309 26.37C17.0579 26.37 17.2161 26.5282 17.2161 26.7552C17.2161 26.9822 17.0579 27.1404 16.8241 27.1404C16.6039 27.1404 16.4457 26.9822 16.4457 26.7552C16.4457 26.5282 16.6039 26.37 16.8309 26.37ZM18.0072 26.37C18.2342 26.37 18.3924 26.5282 18.3924 26.7552C18.3924 26.9822 18.2342 27.1404 18.0003 27.1404C17.7802 27.1404 17.622 26.9822 17.622 26.7552C17.622 26.5282 17.7802 26.37 18.0072 26.37ZM22.3696 30.6485V31.1781C21.9569 31.3776 21.6473 31.4602 21.2828 31.4602C20.1891 31.4602 19.6388 30.8342 19.6388 29.5754C19.6388 28.3579 20.2028 27.7251 21.2896 27.7251C21.6336 27.7251 21.9087 27.7801 22.3008 27.9246V28.4955C21.7987 28.2823 21.6198 28.2341 21.2828 28.2341C20.5468 28.2341 20.3198 28.5505 20.3198 29.5892C20.3198 30.6278 20.5605 30.958 21.3103 30.958C21.6611 30.958 21.778 30.9236 22.3696 30.6485ZM23.2649 31.3501V26.3219C23.4782 26.315 23.6845 26.2462 23.7946 26.1499H23.9046V28.2891C24.4274 27.8695 24.7644 27.7251 25.2047 27.7251C25.8237 27.7251 26.1814 28.1309 26.1814 28.8257V31.3501H25.5417V28.8738C25.5417 28.468 25.356 28.2547 24.9914 28.2547C24.6613 28.2547 24.4549 28.3304 23.9046 28.6675V31.3501H23.2649ZM27.1157 31.185V30.6554C27.5284 30.8686 27.8035 30.9374 28.1956 30.9374C28.7046 30.9374 28.9247 30.7929 28.9247 30.4559C28.9247 30.1739 28.8009 30.0638 28.2369 29.8506C27.776 29.6786 27.5834 29.5754 27.4252 29.4241C27.2395 29.2453 27.1501 29.0114 27.1501 28.7294C27.1501 28.0965 27.5834 27.7388 28.3607 27.7388C28.6909 27.7388 28.9385 27.787 29.3375 27.9383V28.5092C28.9041 28.3098 28.6634 28.2479 28.3538 28.2479C27.9342 28.2479 27.7141 28.3923 27.7141 28.6743C27.7141 28.977 27.8242 29.0733 28.4639 29.314C28.8835 29.4722 29.0279 29.541 29.1655 29.6511C29.4131 29.8437 29.5232 30.0707 29.5232 30.4009C29.5232 31.0474 29.0486 31.4326 28.2438 31.4326C27.8448 31.4326 27.4871 31.357 27.1157 31.185ZM32.2699 30.8548V31.3157C32.0566 31.3982 31.8984 31.4258 31.6852 31.4258C30.9148 31.4258 30.5571 31.0474 30.5571 30.2495V28.2479H30.0275V27.787H30.1582C30.4814 27.787 30.6121 27.6907 30.7016 27.3605L30.7979 27.0166H31.1968V27.787H32.1736V28.2479H31.1968V30.3389C31.1968 30.7654 31.3688 30.9443 31.7815 30.9443C31.9397 30.9443 32.0498 30.9236 32.2699 30.8548ZM35.8517 29.713H33.4992C33.4992 30.6141 33.7812 30.958 34.5379 30.958C34.9162 30.958 35.1157 30.903 35.6935 30.6416V31.1713C35.2601 31.3776 34.9299 31.4602 34.5241 31.4602C33.396 31.4602 32.8182 30.8273 32.8182 29.5961C32.8182 28.3854 33.3754 27.7251 34.3934 27.7251C35.3358 27.7251 35.8517 28.3235 35.8517 29.4241V29.713ZM33.4992 29.2453H35.1638C35.1225 28.4542 34.9231 28.1791 34.3865 28.1791C34.0082 28.1791 33.7537 28.3442 33.6093 28.6675C33.5542 28.8119 33.5198 28.9632 33.4992 29.2453ZM38.5056 31.1093V30.5247C39.0421 30.8204 39.4204 30.9305 39.895 30.9305C40.5554 30.9305 40.9268 30.6485 40.9268 30.1463C40.9268 29.885 40.8305 29.6855 40.6173 29.5066C40.466 29.3828 40.404 29.3416 39.8469 29.0251C39.4067 28.7775 39.1728 28.6124 39.0077 28.4405C38.7669 28.186 38.6431 27.8833 38.6431 27.5187C38.6431 26.7208 39.2209 26.2324 40.1633 26.2324C40.5623 26.2324 40.9406 26.315 41.3327 26.4801V27.051C40.8649 26.824 40.5623 26.7483 40.1495 26.7483C39.5649 26.7483 39.2553 26.996 39.2553 27.4637C39.2553 27.8764 39.441 28.0965 40.1358 28.4749C40.7961 28.8394 40.8649 28.8807 41.085 29.0733C41.4221 29.3622 41.5803 29.6992 41.5803 30.0982C41.5803 30.9236 40.9337 31.4464 39.9157 31.4464C39.4135 31.4464 39.0146 31.3501 38.5056 31.1093ZM44.3342 30.8548V31.3157C44.121 31.3982 43.9628 31.4258 43.7496 31.4258C42.9792 31.4258 42.6215 31.0474 42.6215 30.2495V28.2479H42.0918V27.787H42.2225C42.5458 27.787 42.6765 27.6907 42.7659 27.3605L42.8622 27.0166H43.2612V27.787H44.2379V28.2479H43.2612V30.3389C43.2612 30.7654 43.4331 30.9443 43.8459 30.9443C44.0041 30.9443 44.1141 30.9236 44.3342 30.8548ZM48.0605 30.8892V31.3157C47.9023 31.3707 47.7372 31.3982 47.6065 31.3982C47.2694 31.3982 47.07 31.2332 46.9805 30.8824C46.6091 31.2813 46.2514 31.4602 45.8181 31.4602C45.1921 31.4602 44.8276 31.0956 44.8276 30.4559C44.8276 29.9194 45.0545 29.6236 45.5567 29.4791C45.88 29.3828 46.0795 29.3622 46.9599 29.3003V29.0045C46.9599 28.4473 46.7604 28.2272 46.2652 28.2272C45.8937 28.2272 45.5567 28.3166 45.0477 28.5436V28.0277C45.481 27.8214 45.8662 27.7251 46.2996 27.7251C47.1938 27.7251 47.5996 28.124 47.5996 29.0114V30.6141C47.5996 30.8411 47.6684 30.9167 47.861 30.9167C47.9367 30.9167 47.9848 30.9099 48.0605 30.8892ZM46.9599 30.4765V29.7061L46.8636 29.713L46.5747 29.7336C45.7218 29.7955 45.4673 29.9537 45.4673 30.4284C45.4673 30.8273 45.6186 30.9924 45.9832 30.9924C46.3202 30.9924 46.6504 30.8204 46.9599 30.4765ZM50.662 30.8548V31.3157C50.4487 31.3982 50.2905 31.4258 50.0773 31.4258C49.3069 31.4258 48.9492 31.0474 48.9492 30.2495V28.2479H48.4196V27.787H48.5503C48.8736 27.787 49.0042 27.6907 49.0937 27.3605L49.19 27.0166H49.5889V27.787H50.5657V28.2479H49.5889V30.3389C49.5889 30.7654 49.7609 30.9443 50.1736 30.9443C50.3318 30.9443 50.4419 30.9236 50.662 30.8548ZM51.967 26.3356C52.2146 26.3356 52.3866 26.5076 52.3866 26.7552C52.3866 27.0028 52.2146 27.1748 51.967 27.1748C51.7193 27.1748 51.5474 27.0028 51.5474 26.7483C51.5474 26.5076 51.7262 26.3356 51.967 26.3356ZM52.2971 31.3501H51.6574V28.3373H51.1209V27.8489H51.396C51.795 27.8489 51.9945 27.8076 52.1527 27.7045H52.2971V31.3501ZM54.8828 27.7251C55.9765 27.7251 56.5268 28.351 56.5268 29.5892C56.5268 30.8342 55.9765 31.4602 54.8828 31.4602C53.7891 31.4602 53.2457 30.8342 53.2457 29.5685C53.2457 28.3579 53.8097 27.7251 54.8828 27.7251ZM54.8828 28.1791C54.2018 28.1791 53.9335 28.5712 53.9335 29.5754C53.9335 30.6141 54.1949 31.0062 54.8828 31.0062C55.5775 31.0062 55.8389 30.6141 55.8389 29.5892C55.8389 28.5712 55.5706 28.1791 54.8828 28.1791ZM57.4764 31.3501V27.8764C57.6896 27.8695 57.896 27.8008 58.006 27.7045H58.1161V28.2891C58.632 27.8764 58.9759 27.7251 59.4161 27.7251C60.0352 27.7251 60.3929 28.1309 60.3929 28.8257V31.3501H59.7532V28.9151C59.7532 28.4611 59.5812 28.2547 59.2029 28.2547C58.8727 28.2547 58.6664 28.3304 58.1161 28.6675V31.3501H57.4764Z" fill="black"/>
<path d="M31.4203 62.1025V62.6734C30.925 62.4739 30.5604 62.3982 30.1065 62.3982C29.5149 62.3982 29.0747 62.5908 28.772 62.9692C28.5037 63.3062 28.3799 63.8083 28.3799 64.5237C28.3799 65.9269 28.9233 66.5873 30.0858 66.5873C30.3954 66.5873 30.6705 66.546 30.98 66.4566V65.0878H30.0789V64.5856H31.6473V66.7661C31.0626 67.0069 30.6017 67.1032 30.0652 67.1032C29.2122 67.1032 28.5381 66.8143 28.1323 66.264C27.8228 65.8444 27.6714 65.2804 27.6714 64.5237C27.6714 63.6364 27.8916 63.0036 28.3593 62.5358C28.7926 62.1025 29.3773 61.8823 30.1133 61.8823C30.5948 61.8823 31.0075 61.9511 31.4203 62.1025ZM35.5142 65.3629H33.1617C33.1617 66.264 33.4437 66.6079 34.2004 66.6079C34.5787 66.6079 34.7782 66.5529 35.356 66.2915V66.8212C34.9226 67.0275 34.5925 67.1101 34.1866 67.1101C33.0585 67.1101 32.4807 66.4772 32.4807 65.246C32.4807 64.0353 33.0379 63.375 34.0559 63.375C34.9983 63.375 35.5142 63.9734 35.5142 65.074V65.3629ZM33.1617 64.8952H34.8263C34.7851 64.1041 34.5856 63.829 34.0491 63.829C33.6707 63.829 33.4162 63.9941 33.2718 64.3174C33.2167 64.4618 33.1824 64.6131 33.1617 64.8952ZM36.436 68.3895V63.5263C36.6493 63.5194 36.8556 63.4507 36.9657 63.3544H37.0757V63.939C37.5985 63.5057 37.9012 63.375 38.3483 63.375C39.1324 63.375 39.6002 64.0491 39.6002 65.1978C39.6002 66.3809 39.0636 67.1101 38.1901 67.1101C37.8186 67.1101 37.4609 66.9794 37.0757 66.6973V68.3895H36.436ZM37.0757 64.3174V66.3053C37.4609 66.546 37.6948 66.6217 38.0387 66.6217C38.6578 66.6217 38.9054 66.209 38.9054 65.1978C38.9054 64.283 38.6784 63.9046 38.1213 63.9046C37.7911 63.9046 37.6535 63.9597 37.0757 64.3174ZM41.3174 67H40.6777V62.4258H40.1412V61.9443H40.4164C40.8222 61.9443 41.0285 61.903 41.1799 61.7998H41.3174V67ZM45.4928 66.5391V66.9656C45.3346 67.0206 45.1695 67.0481 45.0389 67.0481C44.7018 67.0481 44.5023 66.8831 44.4129 66.5323C44.0415 66.9312 43.6838 67.1101 43.2504 67.1101C42.6245 67.1101 42.2599 66.7455 42.2599 66.1058C42.2599 65.5693 42.4869 65.2735 42.989 65.129C43.3123 65.0327 43.5118 65.0121 44.3923 64.9502V64.6544C44.3923 64.0972 44.1928 63.8771 43.6975 63.8771C43.3261 63.8771 42.989 63.9666 42.48 64.1935V63.6777C42.9134 63.4713 43.2986 63.375 43.7319 63.375C44.6261 63.375 45.032 63.774 45.032 64.6613V66.264C45.032 66.491 45.1008 66.5667 45.2934 66.5667C45.369 66.5667 45.4172 66.5598 45.4928 66.5391ZM44.3923 66.1264V65.356L44.296 65.3629L44.0071 65.3835C43.1541 65.4454 42.8996 65.6037 42.8996 66.0783C42.8996 66.4772 43.051 66.6423 43.4155 66.6423C43.7526 66.6423 44.0827 66.4704 44.3923 66.1264ZM46.2165 67V63.5263C46.4297 63.5194 46.6361 63.4507 46.7461 63.3544H46.8562V63.939C47.3721 63.5263 47.716 63.375 48.1562 63.375C48.7753 63.375 49.133 63.7808 49.133 64.4756V67H48.4933V64.565C48.4933 64.111 48.3213 63.9046 47.943 63.9046C47.6128 63.9046 47.4065 63.9803 46.8562 64.3174V67H46.2165ZM52.1583 66.5047V66.9656C51.9451 67.0481 51.7869 67.0757 51.5737 67.0757C50.8033 67.0757 50.4456 66.6973 50.4456 65.8994V63.8978H49.9159V63.4369H50.0466C50.3699 63.4369 50.5006 63.3406 50.59 63.0104L50.6863 62.6665H51.0853V63.4369H52.062V63.8978H51.0853V65.9889C51.0853 66.4153 51.2572 66.5942 51.67 66.5942C51.8282 66.5942 51.9382 66.5735 52.1583 66.5047Z" fill="black"/>
<path d="M28.011 80.094V79.5129H29.8088V74.4646L28.3106 74.964V74.3829L30.2173 73.6383H30.6895V79.5129H32.1876V80.094H28.011ZM33.2646 80.4935V79.7671C34.4268 79.7126 34.9716 79.6128 35.5799 79.3495C36.3154 79.0317 36.6059 78.6322 36.6059 77.9512C36.6059 77.3065 36.2881 77.0251 35.5617 77.0251C35.2349 77.0251 35.017 77.0523 34.4631 77.1612V76.5166L34.6901 76.4621C36.0339 76.1625 36.3517 75.9082 36.3517 75.1183C36.3517 74.5009 36.0067 74.2194 35.2349 74.2194C34.6629 74.2194 34.1998 74.3375 33.5097 74.6734V73.9652C34.0999 73.6656 34.6719 73.5203 35.3075 73.5203C36.5787 73.5203 37.2506 74.056 37.2506 75.082C37.2506 75.8265 36.9509 76.2079 36.0793 76.5529C36.5151 76.6165 36.6332 76.6437 36.8511 76.7708C37.2869 77.016 37.5048 77.4064 37.5048 77.9512C37.5048 79.0044 36.8238 79.758 35.5073 80.1576C34.8444 80.3664 34.2906 80.4481 33.2646 80.4935ZM39.5805 78.95C39.9437 78.95 40.207 79.2133 40.207 79.5765C40.207 79.9396 39.9437 80.203 39.5805 80.203C39.2082 80.203 38.954 79.9396 38.954 79.5674C38.954 79.2133 39.2173 78.95 39.5805 78.95ZM39.5805 75.8265C39.9437 75.8265 40.207 76.0898 40.207 76.453C40.207 76.8162 39.9437 77.0795 39.5805 77.0795C39.2082 77.0795 38.954 76.8162 38.954 76.444C38.954 76.0898 39.2173 75.8265 39.5805 75.8265ZM41.5127 80.094V79.5765C41.6126 79.4857 41.8214 79.295 42.1392 79.0044C44.1004 77.2157 44.5453 76.5529 44.5453 75.4179C44.5453 74.6189 44.164 74.2194 43.3922 74.2194C42.793 74.2194 42.23 74.4192 41.6489 74.8368V74.1195C42.1392 73.7291 42.7748 73.5203 43.4467 73.5203C44.7451 73.5203 45.4624 74.2103 45.4624 75.4543C45.4624 76.3168 45.1537 76.9524 44.3002 77.8513C43.9552 78.2054 43.7826 78.3688 42.6204 79.413H45.6349L45.5532 80.094H41.5127ZM46.957 80.094V79.5765C47.0569 79.4857 47.2657 79.295 47.5835 79.0044C49.5447 77.2157 49.9896 76.5529 49.9896 75.4179C49.9896 74.6189 49.6083 74.2194 48.8365 74.2194C48.2372 74.2194 47.6743 74.4192 47.0932 74.8368V74.1195C47.5835 73.7291 48.2191 73.5203 48.891 73.5203C50.1894 73.5203 50.9067 74.2103 50.9067 75.4543C50.9067 76.3168 50.598 76.9524 49.7445 77.8513C49.3994 78.2054 49.2269 78.3688 48.0647 79.413H51.0792L50.9975 80.094H46.957Z" fill="black"/>
<path d="M28.011 94.094V93.5129H29.8088V88.4646L28.3106 88.964V88.3829L30.2173 87.6383H30.6895V93.5129H32.1876V94.094H28.011ZM37.069 94.094H36.1882V92.6776H33.0013V92.2236L36.0884 87.3387H36.9146L33.9637 92.0601H36.1882V89.9446L37.069 89.8447V92.0601H37.9769V92.6776H37.069V94.094ZM39.5805 92.95C39.9437 92.95 40.207 93.2133 40.207 93.5765C40.207 93.9396 39.9437 94.203 39.5805 94.203C39.2082 94.203 38.954 93.9396 38.954 93.5674C38.954 93.2133 39.2173 92.95 39.5805 92.95ZM39.5805 89.8265C39.9437 89.8265 40.207 90.0898 40.207 90.453C40.207 90.8162 39.9437 91.0795 39.5805 91.0795C39.2082 91.0795 38.954 90.8162 38.954 90.444C38.954 90.0898 39.2173 89.8265 39.5805 89.8265ZM41.431 91.4336V90.3168C41.431 88.5917 42.2845 87.5203 43.6646 87.5203C45.0447 87.5203 45.8982 88.5917 45.8982 90.3168V91.4336C45.8982 93.1588 45.0447 94.2302 43.6646 94.2302C42.2845 94.2302 41.431 93.1588 41.431 91.4336ZM44.963 91.4881V90.2624C44.963 88.7914 44.5726 88.1649 43.6646 88.1649C42.7566 88.1649 42.3662 88.7914 42.3662 90.2624V91.4881C42.3662 92.959 42.7566 93.5855 43.6646 93.5855C44.5726 93.5855 44.963 92.959 44.963 91.4881ZM47.0659 94.094V93.5129H48.8637V88.4646L47.3656 88.964V88.3829L49.2723 87.6383H49.7445V93.5129H51.2426V94.094H47.0659Z" fill="black"/>
<path d="M28.011 108.094V107.513H29.8088V102.465L28.3106 102.964V102.383L30.2173 101.638H30.6895V107.513H32.1876V108.094H28.011ZM37.4322 101.684L37.3414 102.356H34.79L34.5267 104.317C34.9625 104.199 35.0987 104.181 35.3892 104.181C36.6059 104.181 37.3232 104.843 37.3232 105.951C37.3232 107.05 36.7784 107.758 35.6253 108.148C34.9897 108.366 34.5267 108.439 33.428 108.494V107.767C34.5902 107.722 35.1713 107.604 35.6798 107.331C36.2246 107.041 36.4334 106.659 36.4334 105.951C36.4334 105.188 36.0067 104.871 34.9806 104.871C34.563 104.871 34.2179 104.916 33.7367 105.034L34.1998 101.684H37.4322ZM39.5805 106.95C39.9437 106.95 40.207 107.213 40.207 107.576C40.207 107.94 39.9437 108.203 39.5805 108.203C39.2082 108.203 38.954 107.94 38.954 107.567C38.954 107.213 39.2173 106.95 39.5805 106.95ZM39.5805 103.827C39.9437 103.827 40.207 104.09 40.207 104.453C40.207 104.816 39.9437 105.08 39.5805 105.08C39.2082 105.08 38.954 104.816 38.954 104.444C38.954 104.09 39.2173 103.827 39.5805 103.827ZM41.431 105.434V104.317C41.431 102.592 42.2845 101.52 43.6646 101.52C45.0447 101.52 45.8982 102.592 45.8982 104.317V105.434C45.8982 107.159 45.0447 108.23 43.6646 108.23C42.2845 108.23 41.431 107.159 41.431 105.434ZM44.963 105.488V104.262C44.963 102.791 44.5726 102.165 43.6646 102.165C42.7566 102.165 42.3662 102.791 42.3662 104.262V105.488C42.3662 106.959 42.7566 107.586 43.6646 107.586C44.5726 107.586 44.963 106.959 44.963 105.488ZM46.8753 105.434V104.317C46.8753 102.592 47.7288 101.52 49.1089 101.52C50.489 101.52 51.3425 102.592 51.3425 104.317V105.434C51.3425 107.159 50.489 108.23 49.1089 108.23C47.7288 108.23 46.8753 107.159 46.8753 105.434ZM50.4073 105.488V104.262C50.4073 102.791 50.0169 102.165 49.1089 102.165C48.2009 102.165 47.8105 102.791 47.8105 104.262V105.488C47.8105 106.959 48.2009 107.586 49.1089 107.586C50.0169 107.586 50.4073 106.959 50.4073 105.488Z" fill="black"/>
<path d="M27.9565 125.094V124.213H29.4546V120.118L28.1744 120.636V119.564L30.0902 118.638H31.0527V124.213H32.2966V125.094H27.9565ZM37.3051 118.239V119.419C35.5254 119.546 34.8354 120.118 34.79 121.508C35.1804 121.126 35.5708 120.972 36.1156 120.972C37.2415 120.972 37.8589 121.671 37.8589 122.933C37.8589 124.34 36.9782 125.23 35.5799 125.23C34.7718 125.23 34.1272 124.912 33.7186 124.313C33.3645 123.796 33.1919 123.069 33.1919 122.061C33.1919 120.482 33.7095 119.455 34.8263 118.829C35.4619 118.475 36.1701 118.311 37.3051 118.239ZM34.79 122.288V122.388V122.434C34.79 123.714 34.9988 124.159 35.6071 124.159C36.1065 124.159 36.3063 123.832 36.3063 123.015C36.3063 122.252 36.1338 122.016 35.589 122.016C35.2803 122.016 35.0533 122.089 34.79 122.288ZM39.635 123.55C40.1162 123.55 40.4703 123.905 40.4703 124.386C40.4703 124.867 40.1162 125.221 39.635 125.221C39.1538 125.221 38.7997 124.867 38.7997 124.377C38.7997 123.905 39.1628 123.55 39.635 123.55ZM39.635 120.736C40.1162 120.736 40.4703 121.09 40.4703 121.571C40.4703 122.052 40.1162 122.406 39.635 122.406C39.1538 122.406 38.7997 122.052 38.7997 121.562C38.7997 121.09 39.1628 120.736 39.635 120.736ZM41.313 122.434V121.317C41.313 119.61 42.23 118.52 43.6646 118.52C45.0992 118.52 46.0163 119.61 46.0163 121.317V122.434C46.0163 124.141 45.0992 125.23 43.6646 125.23C42.23 125.23 41.313 124.141 41.313 122.434ZM44.4999 122.534V121.217C44.4999 120.091 44.2457 119.601 43.6646 119.601C43.0835 119.601 42.8293 120.091 42.8293 121.217V122.534C42.8293 123.678 43.0744 124.15 43.6646 124.15C44.2548 124.15 44.4999 123.678 44.4999 122.534ZM47.1386 125.521L50.0441 119.955H46.8026L46.9025 118.684H51.397V119.61L48.7457 125.521H47.1386Z" fill="black"/>
<path d="M111.241 80.094H110.278L109.552 78.1237H107.146L106.41 80.094H105.566L108.154 73.4567H108.689L111.241 80.094ZM109.307 77.4427L108.363 74.855L107.4 77.4427H109.307ZM111.974 79.8761V79.1769C112.519 79.4584 112.882 79.5492 113.4 79.5492C114.072 79.5492 114.362 79.3585 114.362 78.9136C114.362 78.5414 114.199 78.3961 113.454 78.1146C112.846 77.8876 112.592 77.7514 112.383 77.5517C112.138 77.3156 112.02 77.0069 112.02 76.6346C112.02 75.7993 112.592 75.3271 113.618 75.3271C114.053 75.3271 114.38 75.3907 114.907 75.5905V76.3441C114.335 76.0808 114.017 75.999 113.608 75.999C113.055 75.999 112.764 76.1897 112.764 76.562C112.764 76.9615 112.909 77.0886 113.754 77.4064C114.308 77.6152 114.498 77.706 114.68 77.8513C115.007 78.1055 115.152 78.4052 115.152 78.841C115.152 79.6945 114.526 80.203 113.463 80.203C112.937 80.203 112.464 80.1031 111.974 79.8761ZM119.684 79.1679V79.867C119.139 80.1303 118.73 80.2393 118.249 80.2393C116.805 80.2393 116.079 79.413 116.079 77.7514C116.079 76.1443 116.823 75.309 118.258 75.309C118.712 75.309 119.075 75.3816 119.593 75.5723V76.3259C118.93 76.0444 118.694 75.9809 118.249 75.9809C117.277 75.9809 116.978 76.3986 116.978 77.7696C116.978 79.1406 117.296 79.5765 118.285 79.5765C118.748 79.5765 118.903 79.5311 119.684 79.1679ZM120.865 80.094V73.4567C121.147 73.4476 121.419 73.3569 121.565 73.2297H121.71V76.0535C122.4 75.4997 122.845 75.309 123.426 75.309C124.243 75.309 124.715 75.8447 124.715 76.7617V80.094H123.871V76.8253C123.871 76.2896 123.626 76.0081 123.144 76.0081C122.709 76.0081 122.436 76.108 121.71 76.5529V80.094H120.865ZM130.116 79.4857V80.0486C129.907 80.1212 129.689 80.1576 129.517 80.1576C129.072 80.1576 128.808 79.9396 128.69 79.4766C128.2 80.0032 127.728 80.2393 127.156 80.2393C126.33 80.2393 125.849 79.758 125.849 78.9136C125.849 78.2054 126.148 77.815 126.811 77.6243C127.238 77.4972 127.501 77.47 128.663 77.3882V76.9978C128.663 76.2624 128.4 75.9718 127.746 75.9718C127.256 75.9718 126.811 76.0898 126.139 76.3895V75.7085C126.711 75.4361 127.22 75.309 127.792 75.309C128.972 75.309 129.508 75.8356 129.508 77.0069V79.1225C129.508 79.4221 129.598 79.522 129.853 79.522C129.953 79.522 130.016 79.5129 130.116 79.4857ZM128.663 78.9409V77.9239L128.536 77.933L128.155 77.9603C127.029 78.042 126.693 78.2508 126.693 78.8773C126.693 79.4039 126.893 79.6218 127.374 79.6218C127.819 79.6218 128.255 79.3949 128.663 78.9409ZM130.59 75.999V75.3907H131.289V75.0366C131.289 73.947 131.87 73.3296 132.896 73.3296H133.296V74.0015C133.187 73.9743 133.114 73.9652 133.014 73.9652C132.424 73.9652 132.134 74.2921 132.134 74.964V75.3907H134.222V75.0366C134.222 73.8744 134.83 73.2207 135.902 73.2207H136.374V73.8926C136.238 73.8653 136.147 73.8562 136.038 73.8562C135.384 73.8562 135.066 74.2194 135.066 74.964V75.3907H136.219V75.999H135.066V80.094H134.222V75.999H132.134V80.094H131.289V75.999H130.59ZM140.823 77.933H137.717C137.717 79.1225 138.09 79.5765 139.088 79.5765C139.588 79.5765 139.851 79.5038 140.614 79.1588V79.8579C140.042 80.1303 139.606 80.2393 139.07 80.2393C137.581 80.2393 136.819 79.4039 136.819 77.7787C136.819 76.1806 137.554 75.309 138.898 75.309C140.142 75.309 140.823 76.0989 140.823 77.5517V77.933ZM137.717 77.3156H139.915C139.86 76.2714 139.597 75.9082 138.889 75.9082C138.389 75.9082 138.053 76.1262 137.863 76.5529C137.79 76.7436 137.745 76.9433 137.717 77.3156ZM142.04 80.094V75.5087C142.321 75.4997 142.593 75.4089 142.739 75.2817H142.884V76.0535C143.565 75.5087 144.019 75.309 144.6 75.309C145.417 75.309 145.889 75.8447 145.889 76.7617V80.094H145.045V76.8798C145.045 76.2805 144.818 76.0081 144.319 76.0081C143.883 76.0081 143.61 76.108 142.884 76.5529V80.094H142.04ZM147.404 80.094V73.4567C147.685 73.4476 147.958 73.3569 148.103 73.2297H148.248V76.0535C148.938 75.4815 149.338 75.309 149.919 75.309C150.963 75.309 151.581 76.1988 151.581 77.7151C151.581 78.6503 151.363 79.3041 150.909 79.758C150.591 80.0758 150.182 80.2393 149.728 80.2393C149.193 80.2393 148.684 80.0395 148.121 79.5946L147.949 80.094H147.404ZM148.248 76.5529V79.1769C148.757 79.4947 149.066 79.5946 149.52 79.5946C150.328 79.5946 150.664 79.0498 150.664 77.7696C150.664 76.4984 150.373 76.0081 149.619 76.0081C149.193 76.0081 149.002 76.0808 148.248 76.5529ZM155.999 80.094L155.781 79.4312C155.173 80.0123 154.701 80.2393 154.074 80.2393C153.593 80.2393 153.239 80.0577 153.021 79.7126C152.849 79.4493 152.785 79.1588 152.785 78.6503V75.4361L153.63 75.3816V78.6685C153.63 79.3222 153.838 79.5855 154.347 79.5855C154.792 79.5855 155.11 79.4493 155.709 79.0044V75.4361L156.553 75.3816V80.094H155.999ZM157.67 80.094V79.4857H158.397V76.1171H157.688V75.4724H158.052C158.578 75.4724 158.842 75.4179 159.05 75.2817H159.241V76.0808C159.786 75.6086 160.285 75.3544 160.785 75.309V76.1262C160.149 76.1897 159.622 76.3259 159.241 76.5257V79.4857H160.04V80.094H157.67ZM165.557 75.8538H165.385C165.149 75.8538 164.958 75.8901 164.785 75.9627C164.958 76.2351 165.031 76.5257 165.031 76.907C165.031 77.9693 164.395 78.5595 163.242 78.5595C162.924 78.5595 162.679 78.5232 162.443 78.4415C162.289 78.6231 162.225 78.7593 162.225 78.9136C162.225 79.1679 162.443 79.3041 162.861 79.3041H163.623C164.949 79.3041 165.485 79.6763 165.485 80.5934C165.485 81.5649 164.749 82.028 163.233 82.028C161.844 82.028 161.099 81.6194 161.099 80.8567C161.099 80.4209 161.353 80.0758 161.898 79.7762C161.626 79.6218 161.499 79.4221 161.499 79.1497C161.499 78.8319 161.671 78.5414 162.034 78.2327C161.626 77.9239 161.444 77.5335 161.444 76.9433C161.444 75.9082 162.116 75.309 163.278 75.309C163.532 75.309 163.741 75.3362 163.959 75.3907H165.557V75.8538ZM163.759 79.9941H162.888C162.67 79.9941 162.506 79.976 162.325 79.9396C162.034 80.1939 161.907 80.4481 161.907 80.775C161.907 81.2199 162.316 81.4196 163.26 81.4196C163.841 81.4196 164.25 81.3288 164.486 81.1563C164.658 81.0383 164.722 80.8839 164.722 80.6206C164.722 80.1576 164.468 79.9941 163.759 79.9941ZM163.242 75.8901C162.588 75.8901 162.289 76.2079 162.289 76.907C162.289 77.6606 162.561 77.9603 163.26 77.9603C163.905 77.9603 164.186 77.6516 164.186 76.9252C164.186 76.1806 163.923 75.8901 163.242 75.8901ZM169.273 80.094V73.493H170.154V76.3804H173.495V73.493H174.376V80.094H173.495V77.0432H170.154V80.094H169.273ZM176.062 80.094V73.4567C176.343 73.4476 176.616 73.3569 176.761 73.2297H176.906V76.0535C177.596 75.4815 177.996 75.309 178.577 75.309C179.621 75.309 180.239 76.1988 180.239 77.7151C180.239 78.6503 180.021 79.3041 179.567 79.758C179.249 80.0758 178.84 80.2393 178.386 80.2393C177.851 80.2393 177.342 80.0395 176.779 79.5946L176.607 80.094H176.062ZM176.906 76.5529V79.1769C177.415 79.4947 177.723 79.5946 178.177 79.5946C178.986 79.5946 179.321 79.0498 179.321 77.7696C179.321 76.4984 179.031 76.0081 178.277 76.0081C177.851 76.0081 177.66 76.0808 176.906 76.5529ZM181.007 75.999V75.3907H181.715V75.0366C181.715 73.8744 182.324 73.2207 183.386 73.2207H183.858V73.8926C183.722 73.8653 183.631 73.8562 183.522 73.8562C182.878 73.8562 182.56 74.2194 182.56 74.964V75.3907H183.704V75.999H182.56V80.094H181.715V75.999H181.007Z" fill="black"/>
<path d="M108.063 94.1394H107.409L105.584 87.493H106.483L107.818 92.6503L109.352 87.493H109.933L111.432 92.6503L112.794 87.493H113.611L111.768 94.1394H111.077L109.588 89.1456L108.063 94.1394ZM117.73 94.094L117.512 93.4312C116.904 94.0123 116.431 94.2393 115.805 94.2393C115.324 94.2393 114.97 94.0577 114.752 93.7126C114.579 93.4493 114.516 93.1588 114.516 92.6503V89.4361L115.36 89.3816V92.6685C115.36 93.3222 115.569 93.5855 116.077 93.5855C116.522 93.5855 116.84 93.4493 117.439 93.0044V89.4361L118.284 89.3816V94.094H117.73ZM115.651 87.5203C115.95 87.5203 116.159 87.7291 116.159 88.0287C116.159 88.3284 115.95 88.5372 115.642 88.5372C115.351 88.5372 115.142 88.3284 115.142 88.0287C115.142 87.7291 115.351 87.5203 115.651 87.5203ZM117.203 87.5203C117.503 87.5203 117.712 87.7291 117.712 88.0287C117.712 88.3284 117.503 88.5372 117.194 88.5372C116.904 88.5372 116.695 88.3284 116.695 88.0287C116.695 87.7291 116.904 87.5203 117.203 87.5203ZM119.401 94.094V93.4857H120.127V90.1171H119.419V89.4724H119.782C120.309 89.4724 120.572 89.4179 120.781 89.2817H120.972V90.0808C121.516 89.6086 122.016 89.3544 122.515 89.309V90.1262C121.88 90.1897 121.353 90.3259 120.972 90.5257V93.4857H121.771V94.094H119.401ZM123.153 94.094V93.6128L125.768 90.0172H123.371V89.3907H126.821V89.8628L124.216 93.4675H126.84V94.094H123.153ZM128.056 94.094V87.4567C128.338 87.4476 128.61 87.3569 128.756 87.2297H128.901V90.0535C129.591 89.4815 129.99 89.309 130.572 89.309C131.616 89.309 132.233 90.1988 132.233 91.7151C132.233 92.6503 132.015 93.3041 131.561 93.758C131.243 94.0758 130.835 94.2393 130.381 94.2393C129.845 94.2393 129.337 94.0395 128.774 93.5946L128.601 94.094H128.056ZM128.901 90.5529V93.1769C129.409 93.4947 129.718 93.5946 130.172 93.5946C130.98 93.5946 131.316 93.0498 131.316 91.7696C131.316 90.4984 131.026 90.0081 130.272 90.0081C129.845 90.0081 129.654 90.0808 128.901 90.5529ZM136.652 94.094L136.434 93.4312C135.826 94.0123 135.353 94.2393 134.727 94.2393C134.246 94.2393 133.892 94.0577 133.674 93.7126C133.501 93.4493 133.438 93.1588 133.438 92.6503V89.4361L134.282 89.3816V92.6685C134.282 93.3222 134.491 93.5855 134.999 93.5855C135.444 93.5855 135.762 93.4493 136.361 93.0044V89.4361L137.206 89.3816V94.094H136.652ZM138.323 94.094V93.4857H139.049V90.1171H138.341V89.4724H138.704C139.231 89.4724 139.494 89.4179 139.703 89.2817H139.894V90.0808C140.438 89.6086 140.938 89.3544 141.437 89.309V90.1262C140.802 90.1897 140.275 90.3259 139.894 90.5257V93.4857H140.693V94.094H138.323ZM146.21 89.8538H146.037C145.801 89.8538 145.61 89.8901 145.438 89.9627C145.61 90.2351 145.683 90.5257 145.683 90.907C145.683 91.9693 145.047 92.5595 143.894 92.5595C143.576 92.5595 143.331 92.5232 143.095 92.4415C142.941 92.6231 142.877 92.7593 142.877 92.9136C142.877 93.1679 143.095 93.3041 143.513 93.3041H144.276C145.601 93.3041 146.137 93.6763 146.137 94.5934C146.137 95.5649 145.402 96.028 143.885 96.028C142.496 96.028 141.751 95.6194 141.751 94.8567C141.751 94.4209 142.006 94.0758 142.55 93.7762C142.278 93.6218 142.151 93.4221 142.151 93.1497C142.151 92.8319 142.324 92.5414 142.687 92.2327C142.278 91.9239 142.097 91.5335 142.097 90.9433C142.097 89.9082 142.768 89.309 143.931 89.309C144.185 89.309 144.394 89.3362 144.612 89.3907H146.21V89.8538ZM144.412 93.9941H143.54C143.322 93.9941 143.159 93.976 142.977 93.9396C142.687 94.1939 142.56 94.4481 142.56 94.775C142.56 95.2199 142.968 95.4196 143.912 95.4196C144.494 95.4196 144.902 95.3288 145.138 95.1563C145.311 95.0383 145.374 94.8839 145.374 94.6206C145.374 94.1576 145.12 93.9941 144.412 93.9941ZM143.894 89.8901C143.241 89.8901 142.941 90.2079 142.941 90.907C142.941 91.6606 143.213 91.9603 143.912 91.9603C144.557 91.9603 144.839 91.6516 144.839 90.9252C144.839 90.1806 144.575 89.8901 143.894 89.8901ZM149.925 94.094V87.493H150.806V90.3804H154.147V87.493H155.028V94.094H154.147V91.0432H150.806V94.094H149.925ZM156.714 94.094V87.4567C156.996 87.4476 157.268 87.3569 157.413 87.2297H157.559V90.0535C158.249 89.4815 158.648 89.309 159.229 89.309C160.274 89.309 160.891 90.1988 160.891 91.7151C160.891 92.6503 160.673 93.3041 160.219 93.758C159.901 94.0758 159.493 94.2393 159.039 94.2393C158.503 94.2393 157.995 94.0395 157.432 93.5946L157.259 94.094H156.714ZM157.559 90.5529V93.1769C158.067 93.4947 158.376 93.5946 158.83 93.5946C159.638 93.5946 159.974 93.0498 159.974 91.7696C159.974 90.4984 159.683 90.0081 158.93 90.0081C158.503 90.0081 158.312 90.0808 157.559 90.5529ZM161.66 89.999V89.3907H162.368V89.0366C162.368 87.8744 162.976 87.2207 164.038 87.2207H164.511V87.8926C164.374 87.8653 164.284 87.8562 164.175 87.8562C163.53 87.8562 163.212 88.2194 163.212 88.964V89.3907H164.356V89.999H163.212V94.094H162.368V89.999H161.66Z" fill="black"/>
<path d="M106.238 108.094V101.493H107.01L110.614 106.405V101.493H111.432V108.094H110.841L107.055 102.946V108.094H106.238ZM116.293 108.094L116.075 107.431C115.467 108.012 114.995 108.239 114.368 108.239C113.887 108.239 113.533 108.058 113.315 107.713C113.143 107.449 113.079 107.159 113.079 106.65V103.436L113.924 103.382V106.668C113.924 107.322 114.132 107.586 114.641 107.586C115.086 107.586 115.404 107.449 116.003 107.004V103.436L116.847 103.382V108.094H116.293ZM114.214 101.52C114.514 101.52 114.723 101.729 114.723 102.029C114.723 102.328 114.514 102.537 114.205 102.537C113.915 102.537 113.706 102.328 113.706 102.029C113.706 101.729 113.915 101.52 114.214 101.52ZM115.767 101.52C116.066 101.52 116.275 101.729 116.275 102.029C116.275 102.328 116.066 102.537 115.758 102.537C115.467 102.537 115.258 102.328 115.258 102.029C115.258 101.729 115.467 101.52 115.767 101.52ZM117.964 108.094V107.486H118.691V104.117H117.983V103.472H118.346C118.872 103.472 119.136 103.418 119.344 103.282H119.535V104.081C120.08 103.609 120.579 103.354 121.079 103.309V104.126C120.443 104.19 119.916 104.326 119.535 104.526V107.486H120.334V108.094H117.964ZM122.089 108.094V103.509C122.37 103.5 122.643 103.409 122.788 103.282H122.933V104.054C123.614 103.509 124.068 103.309 124.649 103.309C125.467 103.309 125.939 103.845 125.939 104.762V108.094H125.094V104.88C125.094 104.281 124.867 104.008 124.368 104.008C123.932 104.008 123.66 104.108 122.933 104.553V108.094H122.089ZM127.453 108.094V101.457C127.735 101.448 128.007 101.357 128.153 101.23H128.298V104.054C128.988 103.482 129.387 103.309 129.969 103.309C131.013 103.309 131.63 104.199 131.63 105.715C131.63 106.65 131.412 107.304 130.958 107.758C130.64 108.076 130.232 108.239 129.778 108.239C129.242 108.239 128.734 108.04 128.171 107.595L127.998 108.094H127.453ZM128.298 104.553V107.177C128.806 107.495 129.115 107.595 129.569 107.595C130.377 107.595 130.713 107.05 130.713 105.77C130.713 104.498 130.423 104.008 129.669 104.008C129.242 104.008 129.052 104.081 128.298 104.553ZM136.575 105.933H133.47C133.47 107.122 133.842 107.576 134.841 107.576C135.341 107.576 135.604 107.504 136.367 107.159V107.858C135.795 108.13 135.359 108.239 134.823 108.239C133.334 108.239 132.571 107.404 132.571 105.779C132.571 104.181 133.307 103.309 134.651 103.309C135.894 103.309 136.575 104.099 136.575 105.552V105.933ZM133.47 105.316H135.668C135.613 104.271 135.35 103.908 134.641 103.908C134.142 103.908 133.806 104.126 133.615 104.553C133.543 104.744 133.497 104.943 133.47 105.316ZM137.347 108.094V107.486H138.074V104.117H137.366V103.472H137.729C138.255 103.472 138.519 103.418 138.728 103.282H138.918V104.081C139.463 103.609 139.962 103.354 140.462 103.309V104.126C139.826 104.19 139.3 104.326 138.918 104.526V107.486H139.717V108.094H137.347ZM145.234 103.854H145.062C144.826 103.854 144.635 103.89 144.462 103.963C144.635 104.235 144.708 104.526 144.708 104.907C144.708 105.969 144.072 106.56 142.919 106.56C142.601 106.56 142.356 106.523 142.12 106.441C141.966 106.623 141.902 106.759 141.902 106.914C141.902 107.168 142.12 107.304 142.538 107.304H143.3C144.626 107.304 145.162 107.676 145.162 108.593C145.162 109.565 144.426 110.028 142.91 110.028C141.521 110.028 140.776 109.619 140.776 108.857C140.776 108.421 141.03 108.076 141.575 107.776C141.303 107.622 141.176 107.422 141.176 107.15C141.176 106.832 141.348 106.541 141.711 106.233C141.303 105.924 141.121 105.534 141.121 104.943C141.121 103.908 141.793 103.309 142.955 103.309C143.209 103.309 143.418 103.336 143.636 103.391H145.234V103.854ZM143.436 107.994H142.565C142.347 107.994 142.183 107.976 142.002 107.94C141.711 108.194 141.584 108.448 141.584 108.775C141.584 109.22 141.993 109.42 142.937 109.42C143.518 109.42 143.927 109.329 144.163 109.156C144.335 109.038 144.399 108.884 144.399 108.621C144.399 108.158 144.145 107.994 143.436 107.994ZM142.919 103.89C142.265 103.89 141.966 104.208 141.966 104.907C141.966 105.661 142.238 105.96 142.937 105.96C143.582 105.96 143.863 105.652 143.863 104.925C143.863 104.181 143.6 103.89 142.919 103.89ZM148.95 108.094V101.493H149.831V104.38H153.172V101.493H154.053V108.094H153.172V105.043H149.831V108.094H148.95ZM155.739 108.094V101.457C156.02 101.448 156.293 101.357 156.438 101.23H156.583V104.054C157.273 103.482 157.673 103.309 158.254 103.309C159.298 103.309 159.916 104.199 159.916 105.715C159.916 106.65 159.698 107.304 159.244 107.758C158.926 108.076 158.517 108.239 158.063 108.239C157.528 108.239 157.019 108.04 156.456 107.595L156.284 108.094H155.739ZM156.583 104.553V107.177C157.092 107.495 157.4 107.595 157.854 107.595C158.663 107.595 158.999 107.05 158.999 105.77C158.999 104.498 158.708 104.008 157.954 104.008C157.528 104.008 157.337 104.081 156.583 104.553ZM160.684 103.999V103.391H161.392V103.037C161.392 101.874 162.001 101.221 163.063 101.221H163.535V101.893C163.399 101.865 163.308 101.856 163.199 101.856C162.555 101.856 162.237 102.219 162.237 102.964V103.391H163.381V103.999H162.237V108.094H161.392V103.999H160.684Z" fill="black"/>
<path d="M105.984 125.094L106.156 118.493H107.954L109.561 122.261L111.205 118.493H113.03V125.094H111.432V120.745L109.797 124.413H108.944L107.409 120.836L107.309 125.094H105.984ZM117.487 125.094L117.251 124.377C116.697 125.003 116.234 125.239 115.607 125.239C114.735 125.239 114.245 124.658 114.245 123.641V120.354L115.707 120.227V123.278C115.707 123.859 115.852 124.05 116.288 124.05C116.597 124.05 116.806 123.977 117.169 123.741V120.354L118.631 120.227V125.094H117.487ZM115.525 118.212C115.934 118.212 116.243 118.511 116.243 118.929C116.243 119.347 115.943 119.646 115.516 119.646C115.108 119.646 114.808 119.337 114.808 118.929C114.808 118.511 115.108 118.212 115.525 118.212ZM117.387 118.212C117.795 118.212 118.104 118.511 118.104 118.929C118.104 119.347 117.804 119.646 117.378 119.646C116.969 119.646 116.669 119.337 116.669 118.929C116.669 118.511 116.969 118.212 117.387 118.212ZM119.788 125.094V120.418C120.369 120.4 120.732 120.3 120.914 120.118H121.25V121.008C121.776 120.427 122.33 120.146 122.948 120.146C123.774 120.146 124.255 120.718 124.255 121.689V125.094H122.793V121.989C122.793 121.562 122.593 121.344 122.185 121.344C121.885 121.344 121.658 121.417 121.25 121.653V125.094H119.788ZM129.097 123.823V124.894C128.624 125.139 128.198 125.239 127.662 125.239C126 125.239 125.174 124.386 125.174 122.67C125.174 120.963 126 120.118 127.662 120.118C128.134 120.118 128.506 120.182 129.06 120.354V121.535C128.416 121.281 128.198 121.226 127.789 121.226C126.945 121.226 126.7 121.544 126.7 122.679C126.7 123.814 126.945 124.132 127.816 124.132C128.243 124.132 128.479 124.077 129.097 123.823ZM130.056 125.094V118.52C130.619 118.511 131 118.411 131.182 118.23H131.518V121.008C132.08 120.409 132.589 120.155 133.215 120.155C134.042 120.155 134.523 120.718 134.523 121.689V125.094H133.061V121.971C133.061 121.562 132.852 121.344 132.453 121.344C132.153 121.344 131.935 121.417 131.518 121.653V125.094H130.056ZM140.009 122.997H136.967C137.013 123.868 137.285 124.132 138.184 124.132C138.684 124.132 139.038 124.059 139.737 123.805V124.894C139.119 125.139 138.602 125.239 138.012 125.239C136.232 125.239 135.433 124.449 135.433 122.697C135.433 121.744 135.678 121.108 136.205 120.654C136.622 120.291 137.158 120.118 137.83 120.118C139.274 120.118 140.009 120.954 140.009 122.579V122.997ZM136.958 122.188H138.538C138.502 121.389 138.32 121.117 137.803 121.117C137.258 121.117 137.013 121.426 136.958 122.188ZM140.944 125.094V120.418C141.525 120.4 141.889 120.3 142.07 120.118H142.406V121.008C142.933 120.427 143.487 120.146 144.104 120.146C144.93 120.146 145.411 120.718 145.411 121.689V125.094H143.95V121.989C143.95 121.562 143.75 121.344 143.341 121.344C143.042 121.344 142.815 121.417 142.406 121.653V125.094H140.944ZM149.389 125.094V118.493H150.987V121.108H153.529V118.493H155.127V125.094H153.529V122.316H150.987V125.094H149.389ZM156.417 125.094V118.52C156.98 118.511 157.361 118.411 157.543 118.23H157.879V120.935C158.424 120.373 158.869 120.155 159.459 120.155C160.585 120.155 161.193 121.035 161.193 122.67C161.193 124.304 160.503 125.239 159.304 125.239C158.696 125.239 158.215 125.04 157.697 124.567L157.507 125.094H156.417ZM157.879 121.644V123.95C158.197 124.168 158.433 124.25 158.769 124.25C159.431 124.25 159.677 123.832 159.677 122.697C159.677 121.68 159.441 121.308 158.814 121.308C158.496 121.308 158.287 121.38 157.879 121.644ZM161.782 121.271V120.264H162.399V120.1C162.399 118.893 163.062 118.221 164.242 118.221H165.005V119.283C164.896 119.265 164.787 119.256 164.669 119.256C164.115 119.256 163.861 119.492 163.861 120.009V120.264H164.887V121.271H163.861V125.094H162.399V121.271H161.782Z" fill="black"/>
<path d="M68.778 67.3501H68.0488L67.4985 65.8574H65.6757L65.1186 67.3501H64.4788L66.4392 62.3219H66.8451L68.778 67.3501ZM67.3128 65.3416L66.5974 63.3812L65.8683 65.3416H67.3128ZM69.5467 67.3501V63.8764C69.7599 63.8695 69.9663 63.8008 70.0763 63.7045H70.1864V64.2891C70.7023 63.8764 71.0462 63.7251 71.4864 63.7251C72.1055 63.7251 72.4632 64.1309 72.4632 64.8257V67.3501H71.8235V64.9151C71.8235 64.4611 71.6515 64.2547 71.2732 64.2547C70.943 64.2547 70.7367 64.3304 70.1864 64.6675V67.3501H69.5467ZM73.6107 67.3501V62.3219C73.8239 62.315 74.0303 62.2462 74.1403 62.1499H74.2504V65.6167L75.7155 63.787H76.4309L75.2065 65.1971L76.5685 67.3501H75.8668L74.7938 65.6786L74.2504 66.3046V67.3501H73.6107ZM79.6387 67.3501L79.4736 66.848C79.0127 67.2882 78.655 67.4602 78.1804 67.4602C77.8158 67.4602 77.5476 67.3226 77.3825 67.0612C77.2518 66.8617 77.2037 66.6416 77.2037 66.2564V63.8214L77.8434 63.7801V66.2702C77.8434 66.7654 78.0016 66.9649 78.3868 66.9649C78.7238 66.9649 78.9646 66.8617 79.4186 66.5247V63.8214L80.0583 63.7801V67.3501H79.6387ZM81.2416 67.3501V63.8764C81.4548 63.8695 81.6612 63.8008 81.7712 63.7045H81.8813V64.2891C82.3972 63.8764 82.7411 63.7251 83.1813 63.7251C83.8004 63.7251 84.1581 64.1309 84.1581 64.8257V67.3501H83.5184V64.9151C83.5184 64.4611 83.3464 64.2547 82.9681 64.2547C82.6379 64.2547 82.4316 64.3304 81.8813 64.6675V67.3501H81.2416ZM84.941 64.2479V63.787H85.4776V63.5187C85.4776 62.6383 85.9384 62.143 86.7432 62.143H87.1009V62.652C86.9977 62.6314 86.9289 62.6245 86.8464 62.6245C86.358 62.6245 86.1173 62.8997 86.1173 63.4637V63.787H86.984V64.2479H86.1173V67.3501H85.4776V64.2479H84.941ZM89.6151 66.8548V67.3157C89.4019 67.3982 89.2437 67.4258 89.0304 67.4258C88.26 67.4258 87.9024 67.0474 87.9024 66.2495V64.2479H87.3727V63.787H87.5034C87.8267 63.787 87.9574 63.6907 88.0468 63.3605L88.1431 63.0166H88.5421V63.787H89.5188V64.2479H88.5421V66.3389C88.5421 66.7654 88.714 66.9443 89.1267 66.9443C89.2849 66.9443 89.395 66.9236 89.6151 66.8548Z" fill="black"/>
<path d="M65.7965 80.556V79.6753H67.2947V75.5803L66.0144 76.0979V75.0265L67.9302 74.1004H68.8927V79.6753H70.1366V80.556H65.7965ZM70.9956 80.9828V79.8297C71.9944 79.757 72.4575 79.6753 72.975 79.4937C73.6741 79.2395 73.9556 78.9217 73.9556 78.386C73.9556 77.9411 73.6832 77.7232 73.1203 77.7232C72.857 77.7232 72.5846 77.7595 72.0943 77.8503V76.8061C73.429 76.5519 73.7195 76.3703 73.7195 75.771C73.7195 75.317 73.4562 75.1264 72.8479 75.1264C72.3757 75.1264 71.9218 75.2444 71.2226 75.5531V74.4181C71.8219 74.1276 72.4756 73.9823 73.1838 73.9823C74.5367 73.9823 75.254 74.518 75.254 75.535C75.254 76.2704 74.9544 76.6518 74.1191 77.0059C74.5458 77.0603 74.6729 77.0967 74.8908 77.2147C75.3267 77.4417 75.5355 77.814 75.5355 78.3769C75.5355 79.4846 74.8999 80.2019 73.5652 80.5923C72.8388 80.8103 72.2123 80.9011 70.9956 80.9828ZM77.475 79.0125C77.9562 79.0125 78.3103 79.3666 78.3103 79.8478C78.3103 80.329 77.9562 80.6831 77.475 80.6831C76.9938 80.6831 76.6397 80.329 76.6397 79.8387C76.6397 79.3666 77.0029 79.0125 77.475 79.0125ZM77.475 76.1978C77.9562 76.1978 78.3103 76.5519 78.3103 77.0331C78.3103 77.5143 77.9562 77.8684 77.475 77.8684C76.9938 77.8684 76.6397 77.5143 76.6397 77.024C76.6397 76.5519 77.0029 76.1978 77.475 76.1978ZM79.2347 80.556V79.6844C80.3515 78.6765 80.5966 78.4405 81.0143 77.9774C81.668 77.2419 81.8769 76.788 81.8769 76.0979C81.8769 75.4714 81.5954 75.1808 80.9689 75.1808C80.4786 75.1808 80.07 75.308 79.389 75.6893V74.4999C79.952 74.1458 80.5512 73.9823 81.2685 73.9823C82.685 73.9823 83.4295 74.6815 83.4295 76.0162C83.4295 76.7789 83.2025 77.3327 82.576 78.0591C82.2945 78.386 81.9677 78.7038 81.2231 79.3757H83.5566L83.4295 80.556H79.2347ZM84.679 80.556V79.6844C85.7958 78.6765 86.0409 78.4405 86.4586 77.9774C87.1123 77.2419 87.3212 76.788 87.3212 76.0979C87.3212 75.4714 87.0397 75.1808 86.4132 75.1808C85.9229 75.1808 85.5143 75.308 84.8333 75.6893V74.4999C85.3963 74.1458 85.9955 73.9823 86.7128 73.9823C88.1293 73.9823 88.8738 74.6815 88.8738 76.0162C88.8738 76.7789 88.6468 77.3327 88.0203 78.0591C87.7388 78.386 87.412 78.7038 86.6674 79.3757H89.0009L88.8738 80.556H84.679Z" fill="#518D1A"/>
<path d="M65.7965 94.556V93.6753H67.2947V89.5803L66.0144 90.0979V89.0265L67.9302 88.1004H68.8927V93.6753H70.1366V94.556H65.7965ZM75.2177 94.556H73.774V93.3212H70.805V92.4768L73.4744 87.7735H74.8454L72.3031 92.3133H73.774V90.7698L75.2177 90.5519V92.3133H75.8624V93.3212H75.2177V94.556ZM77.475 93.0125C77.9562 93.0125 78.3103 93.3666 78.3103 93.8478C78.3103 94.329 77.9562 94.6831 77.475 94.6831C76.9938 94.6831 76.6397 94.329 76.6397 93.8387C76.6397 93.3666 77.0029 93.0125 77.475 93.0125ZM77.475 90.1978C77.9562 90.1978 78.3103 90.5519 78.3103 91.0331C78.3103 91.5143 77.9562 91.8684 77.475 91.8684C76.9938 91.8684 76.6397 91.5143 76.6397 91.024C76.6397 90.5519 77.0029 90.1978 77.475 90.1978ZM79.153 91.8957V90.7789C79.153 89.0719 80.07 87.9823 81.5046 87.9823C82.9392 87.9823 83.8563 89.0719 83.8563 90.7789V91.8957C83.8563 93.6027 82.9392 94.6922 81.5046 94.6922C80.07 94.6922 79.153 93.6027 79.153 91.8957ZM82.3399 91.9956V90.679C82.3399 89.5531 82.0857 89.0628 81.5046 89.0628C80.9235 89.0628 80.6693 89.5531 80.6693 90.679V91.9956C80.6693 93.1396 80.9144 93.6117 81.5046 93.6117C82.0948 93.6117 82.3399 93.1396 82.3399 91.9956ZM84.8515 94.556V93.6753H86.3496V89.5803L85.0694 90.0979V89.0265L86.9852 88.1004H87.9477V93.6753H89.1916V94.556H84.8515Z" fill="#518D1A"/>
<path d="M65.7965 108.556V107.675H67.2947V103.58L66.0144 104.098V103.026L67.9302 102.1H68.8927V107.675H70.1366V108.556H65.7965ZM75.3993 102.146L75.2813 103.308H72.9024L72.7208 104.688C73.0113 104.606 73.2202 104.579 73.5016 104.579C74.7274 104.579 75.3993 105.206 75.3993 106.341C75.3993 107.521 74.8 108.256 73.5198 108.647C72.8479 108.856 72.3303 108.919 71.0592 108.983V107.83C72.1124 107.739 72.5664 107.666 73.0386 107.476C73.6106 107.239 73.8557 106.94 73.8557 106.44C73.8557 105.878 73.5107 105.66 72.6391 105.66C72.2123 105.66 71.8219 105.705 71.3861 105.805L71.8491 102.146H75.3993ZM77.475 107.012C77.9562 107.012 78.3103 107.367 78.3103 107.848C78.3103 108.329 77.9562 108.683 77.475 108.683C76.9938 108.683 76.6397 108.329 76.6397 107.839C76.6397 107.367 77.0029 107.012 77.475 107.012ZM77.475 104.198C77.9562 104.198 78.3103 104.552 78.3103 105.033C78.3103 105.514 77.9562 105.868 77.475 105.868C76.9938 105.868 76.6397 105.514 76.6397 105.024C76.6397 104.552 77.0029 104.198 77.475 104.198ZM79.153 105.896V104.779C79.153 103.072 80.07 101.982 81.5046 101.982C82.9392 101.982 83.8563 103.072 83.8563 104.779V105.896C83.8563 107.603 82.9392 108.692 81.5046 108.692C80.07 108.692 79.153 107.603 79.153 105.896ZM82.3399 105.996V104.679C82.3399 103.553 82.0857 103.063 81.5046 103.063C80.9235 103.063 80.6693 103.553 80.6693 104.679V105.996C80.6693 107.14 80.9144 107.612 81.5046 107.612C82.0948 107.612 82.3399 107.14 82.3399 105.996ZM84.5972 105.896V104.779C84.5972 103.072 85.5143 101.982 86.9489 101.982C88.3835 101.982 89.3005 103.072 89.3005 104.779V105.896C89.3005 107.603 88.3835 108.692 86.9489 108.692C85.5143 108.692 84.5972 107.603 84.5972 105.896ZM87.7842 105.996V104.679C87.7842 103.553 87.53 103.063 86.9489 103.063C86.3678 103.063 86.1136 103.553 86.1136 104.679V105.996C86.1136 107.14 86.3587 107.612 86.9489 107.612C87.5391 107.612 87.7842 107.14 87.7842 105.996Z" fill="#518D1A"/>
<path d="M65.7965 125.556V124.675H67.2947V120.58L66.0144 121.098V120.026L67.9302 119.1H68.8927V124.675H70.1366V125.556H65.7965ZM75.1451 118.701V119.881C73.3654 120.008 72.6754 120.58 72.63 121.97C73.0204 121.588 73.4108 121.434 73.9556 121.434C75.0815 121.434 75.6989 122.133 75.6989 123.395C75.6989 124.802 74.8182 125.692 73.4199 125.692C72.6118 125.692 71.9672 125.374 71.5586 124.775C71.2045 124.258 71.032 123.531 71.032 122.523C71.032 120.944 71.5495 119.918 72.6663 119.291C73.3019 118.937 74.0101 118.773 75.1451 118.701ZM72.63 122.75V122.85V122.896C72.63 124.176 72.8388 124.621 73.4472 124.621C73.9465 124.621 74.1463 124.294 74.1463 123.477C74.1463 122.714 73.9738 122.478 73.429 122.478C73.1203 122.478 72.8933 122.551 72.63 122.75ZM77.475 124.012C77.9562 124.012 78.3103 124.367 78.3103 124.848C78.3103 125.329 77.9562 125.683 77.475 125.683C76.9938 125.683 76.6397 125.329 76.6397 124.839C76.6397 124.367 77.0029 124.012 77.475 124.012ZM77.475 121.198C77.9562 121.198 78.3103 121.552 78.3103 122.033C78.3103 122.514 77.9562 122.868 77.475 122.868C76.9938 122.868 76.6397 122.514 76.6397 122.024C76.6397 121.552 77.0029 121.198 77.475 121.198ZM79.153 122.896V121.779C79.153 120.072 80.07 118.982 81.5046 118.982C82.9392 118.982 83.8563 120.072 83.8563 121.779V122.896C83.8563 124.603 82.9392 125.692 81.5046 125.692C80.07 125.692 79.153 124.603 79.153 122.896ZM82.3399 122.996V121.679C82.3399 120.553 82.0857 120.063 81.5046 120.063C80.9235 120.063 80.6693 120.553 80.6693 121.679V122.996C80.6693 124.14 80.9144 124.612 81.5046 124.612C82.0948 124.612 82.3399 124.14 82.3399 122.996ZM84.9786 125.983L87.8841 120.417H84.6426L84.7425 119.146H89.237V120.072L86.5857 125.983H84.9786Z" fill="#518D1A"/>
<path d="M107.37 67.3845H106.875L105.493 62.3494H106.174L107.185 66.2564L108.347 62.3494H108.787L109.922 66.2564L110.954 62.3494H111.573L110.177 67.3845H109.654L108.526 63.6013L107.37 67.3845ZM114.851 65.713H112.498C112.498 66.6141 112.78 66.958 113.537 66.958C113.915 66.958 114.115 66.903 114.693 66.6416V67.1713C114.259 67.3776 113.929 67.4602 113.523 67.4602C112.395 67.4602 111.817 66.8273 111.817 65.5961C111.817 64.3854 112.375 63.7251 113.393 63.7251C114.335 63.7251 114.851 64.3235 114.851 65.4241V65.713ZM112.498 65.2453H114.163C114.122 64.4542 113.922 64.1791 113.386 64.1791C113.007 64.1791 112.753 64.3442 112.609 64.6675C112.554 64.8119 112.519 64.9632 112.498 65.2453ZM116.296 62.3356C116.543 62.3356 116.715 62.5076 116.715 62.7552C116.715 63.0028 116.543 63.1748 116.296 63.1748C116.048 63.1748 115.876 63.0028 115.876 62.7483C115.876 62.5076 116.055 62.3356 116.296 62.3356ZM116.626 67.3501H115.986V64.3373H115.449V63.8489H115.725C116.124 63.8489 116.323 63.8076 116.481 63.7045H116.626V67.3501ZM119.686 66.8548V67.3157C119.473 67.3982 119.315 67.4258 119.101 67.4258C118.331 67.4258 117.973 67.0474 117.973 66.2495V64.2479H117.444V63.787H117.574C117.898 63.787 118.028 63.6907 118.118 63.3605L118.214 63.0166H118.613V63.787H119.59V64.2479H118.613V66.3389C118.613 66.7654 118.785 66.9443 119.198 66.9443C119.356 66.9443 119.466 66.9236 119.686 66.8548ZM123.268 65.713H120.915C120.915 66.6141 121.197 66.958 121.954 66.958C122.332 66.958 122.532 66.903 123.11 66.6416V67.1713C122.676 67.3776 122.346 67.4602 121.94 67.4602C120.812 67.4602 120.234 66.8273 120.234 65.5961C120.234 64.3854 120.792 63.7251 121.81 63.7251C122.752 63.7251 123.268 64.3235 123.268 65.4241V65.713ZM120.915 65.2453H122.58C122.539 64.4542 122.339 64.1791 121.803 64.1791C121.424 64.1791 121.17 64.3442 121.025 64.6675C120.97 64.8119 120.936 64.9632 120.915 65.2453ZM123.853 67.3501V66.8892H124.403V64.3373H123.866V63.8489H124.141C124.54 63.8489 124.74 63.8076 124.898 63.7045H125.043V64.3098C125.455 63.9521 125.834 63.7595 126.212 63.7251V64.3442C125.73 64.3923 125.331 64.4955 125.043 64.6468V66.8892H125.648V67.3501H123.853ZM129.71 65.713H127.357C127.357 66.6141 127.639 66.958 128.396 66.958C128.774 66.958 128.974 66.903 129.552 66.6416V67.1713C129.118 67.3776 128.788 67.4602 128.382 67.4602C127.254 67.4602 126.676 66.8273 126.676 65.5961C126.676 64.3854 127.233 63.7251 128.251 63.7251C129.194 63.7251 129.71 64.3235 129.71 65.4241V65.713ZM127.357 65.2453H129.022C128.981 64.4542 128.781 64.1791 128.245 64.1791C127.866 64.1791 127.612 64.3442 127.467 64.6675C127.412 64.8119 127.378 64.9632 127.357 65.2453ZM132.364 67.1093V66.5247C132.9 66.8204 133.278 66.9305 133.753 66.9305C134.413 66.9305 134.785 66.6485 134.785 66.1463C134.785 65.885 134.689 65.6855 134.475 65.5066C134.324 65.3828 134.262 65.3416 133.705 65.0251C133.265 64.7775 133.031 64.6124 132.866 64.4405C132.625 64.186 132.501 63.8833 132.501 63.5187C132.501 62.7208 133.079 62.2324 134.021 62.2324C134.42 62.2324 134.799 62.315 135.191 62.4801V63.051C134.723 62.824 134.42 62.7483 134.008 62.7483C133.423 62.7483 133.113 62.996 133.113 63.4637C133.113 63.8764 133.299 64.0965 133.994 64.4749C134.654 64.8394 134.723 64.8807 134.943 65.0733C135.28 65.3622 135.438 65.6992 135.438 66.0982C135.438 66.9236 134.792 67.4464 133.774 67.4464C133.272 67.4464 132.873 67.3501 132.364 67.1093ZM138.192 66.8548V67.3157C137.979 67.3982 137.821 67.4258 137.608 67.4258C136.837 67.4258 136.48 67.0474 136.48 66.2495V64.2479H135.95V63.787H136.081C136.404 63.787 136.535 63.6907 136.624 63.3605L136.72 63.0166H137.119V63.787H138.096V64.2479H137.119V66.3389C137.119 66.7654 137.291 66.9443 137.704 66.9443C137.862 66.9443 137.972 66.9236 138.192 66.8548ZM141.919 66.8892V67.3157C141.76 67.3707 141.595 67.3982 141.465 67.3982C141.128 67.3982 140.928 67.2332 140.839 66.8824C140.467 67.2813 140.109 67.4602 139.676 67.4602C139.05 67.4602 138.686 67.0956 138.686 66.4559C138.686 65.9194 138.913 65.6236 139.415 65.4791C139.738 65.3828 139.938 65.3622 140.818 65.3003V65.0045C140.818 64.4473 140.618 64.2272 140.123 64.2272C139.752 64.2272 139.415 64.3166 138.906 64.5436V64.0277C139.339 63.8214 139.724 63.7251 140.158 63.7251C141.052 63.7251 141.458 64.124 141.458 65.0114V66.6141C141.458 66.8411 141.526 66.9167 141.719 66.9167C141.795 66.9167 141.843 66.9099 141.919 66.8892ZM140.818 66.4765V65.7061L140.722 65.713L140.433 65.7336C139.58 65.7955 139.325 65.9537 139.325 66.4284C139.325 66.8273 139.477 66.9924 139.841 66.9924C140.178 66.9924 140.508 66.8204 140.818 66.4765ZM144.52 66.8548V67.3157C144.307 67.3982 144.149 67.4258 143.935 67.4258C143.165 67.4258 142.807 67.0474 142.807 66.2495V64.2479H142.278V63.787H142.408C142.732 63.787 142.862 63.6907 142.952 63.3605L143.048 63.0166H143.447V63.787H144.424V64.2479H143.447V66.3389C143.447 66.7654 143.619 66.9443 144.032 66.9443C144.19 66.9443 144.3 66.9236 144.52 66.8548ZM145.825 62.3356C146.073 62.3356 146.245 62.5076 146.245 62.7552C146.245 63.0028 146.073 63.1748 145.825 63.1748C145.577 63.1748 145.405 63.0028 145.405 62.7483C145.405 62.5076 145.584 62.3356 145.825 62.3356ZM146.155 67.3501H145.515V64.3373H144.979V63.8489H145.254C145.653 63.8489 145.853 63.8076 146.011 63.7045H146.155V67.3501ZM148.741 63.7251C149.835 63.7251 150.385 64.351 150.385 65.5892C150.385 66.8342 149.835 67.4602 148.741 67.4602C147.647 67.4602 147.104 66.8342 147.104 65.5685C147.104 64.3579 147.668 63.7251 148.741 63.7251ZM148.741 64.1791C148.06 64.1791 147.792 64.5712 147.792 65.5754C147.792 66.6141 148.053 67.0062 148.741 67.0062C149.436 67.0062 149.697 66.6141 149.697 65.5892C149.697 64.5712 149.429 64.1791 148.741 64.1791ZM151.334 67.3501V63.8764C151.548 63.8695 151.754 63.8008 151.864 63.7045H151.974V64.2891C152.49 63.8764 152.834 63.7251 153.274 63.7251C153.893 63.7251 154.251 64.1309 154.251 64.8257V67.3501H153.611V64.9151C153.611 64.4611 153.439 64.2547 153.061 64.2547C152.731 64.2547 152.524 64.3304 151.974 64.6675V67.3501H151.334ZM158.198 65.713H155.846C155.846 66.6141 156.128 66.958 156.884 66.958C157.263 66.958 157.462 66.903 158.04 66.6416V67.1713C157.606 67.3776 157.276 67.4602 156.87 67.4602C155.742 67.4602 155.165 66.8273 155.165 65.5961C155.165 64.3854 155.722 63.7251 156.74 63.7251C157.682 63.7251 158.198 64.3235 158.198 65.4241V65.713ZM155.846 65.2453H157.51C157.469 64.4542 157.269 64.1791 156.733 64.1791C156.355 64.1791 156.1 64.3442 155.956 64.6675C155.901 64.8119 155.866 64.9632 155.846 65.2453ZM159.12 67.3501V63.8764C159.333 63.8695 159.539 63.8008 159.649 63.7045H159.76V64.2891C160.275 63.8764 160.619 63.7251 161.06 63.7251C161.679 63.7251 162.036 64.1309 162.036 64.8257V67.3501H161.397V64.9151C161.397 64.4611 161.225 64.2547 160.846 64.2547C160.516 64.2547 160.31 64.3304 159.76 64.6675V67.3501H159.12Z" fill="black"/>
<path d="M215.72 25.4526V26.0235C215.225 25.824 214.86 25.7483 214.406 25.7483C213.815 25.7483 213.375 25.9409 213.072 26.3193C212.804 26.6563 212.68 27.1584 212.68 27.8738C212.68 29.277 213.223 29.9374 214.386 29.9374C214.695 29.9374 214.97 29.8961 215.28 29.8067V28.4379H214.379V27.9357H215.947V30.1162C215.363 30.357 214.902 30.4533 214.365 30.4533C213.512 30.4533 212.838 30.1644 212.432 29.6141C212.123 29.1945 211.971 28.6305 211.971 27.8738C211.971 26.9865 212.192 26.3537 212.659 25.8859C213.093 25.4526 213.677 25.2324 214.413 25.2324C214.895 25.2324 215.308 25.3012 215.72 25.4526ZM217.785 30.3501H217.145V25.7759H216.609V25.2944H216.884C217.29 25.2944 217.496 25.2531 217.647 25.1499H217.785V30.3501ZM221.816 28.713H219.463C219.463 29.6141 219.746 29.958 220.502 29.958C220.88 29.958 221.08 29.903 221.658 29.6416V30.1713C221.224 30.3776 220.894 30.4602 220.488 30.4602C219.36 30.4602 218.783 29.8273 218.783 28.5961C218.783 27.3854 219.34 26.7251 220.358 26.7251C221.3 26.7251 221.816 27.3235 221.816 28.4241V28.713ZM219.463 28.2453H221.128C221.087 27.4542 220.887 27.1791 220.351 27.1791C219.972 27.1791 219.718 27.3442 219.574 27.6675C219.519 27.8119 219.484 27.9632 219.463 28.2453ZM223.261 25.3356C223.508 25.3356 223.68 25.5076 223.68 25.7552C223.68 26.0028 223.508 26.1748 223.261 26.1748C223.013 26.1748 222.841 26.0028 222.841 25.7483C222.841 25.5076 223.02 25.3356 223.261 25.3356ZM223.591 30.3501H222.951V27.3373H222.414V26.8489H222.69C223.089 26.8489 223.288 26.8076 223.446 26.7045H223.591V30.3501ZM224.56 30.185V29.6554C224.973 29.8686 225.248 29.9374 225.64 29.9374C226.149 29.9374 226.369 29.7929 226.369 29.4559C226.369 29.1739 226.245 29.0638 225.681 28.8506C225.22 28.6786 225.028 28.5754 224.869 28.4241C224.684 28.2453 224.594 28.0114 224.594 27.7294C224.594 27.0965 225.028 26.7388 225.805 26.7388C226.135 26.7388 226.383 26.787 226.782 26.9383V27.5092C226.348 27.3098 226.108 27.2479 225.798 27.2479C225.378 27.2479 225.158 27.3923 225.158 27.6743C225.158 27.977 225.268 28.0733 225.908 28.314C226.328 28.4722 226.472 28.541 226.61 28.6511C226.857 28.8437 226.967 29.0707 226.967 29.4009C226.967 30.0474 226.493 30.4326 225.688 30.4326C225.289 30.4326 224.931 30.357 224.56 30.185Z" fill="black"/>
<path d="M150.778 30.3501H150.049L149.499 28.8574H147.676L147.119 30.3501H146.479L148.439 25.3219H148.845L150.778 30.3501ZM149.313 28.3416L148.597 26.3812L147.868 28.3416H149.313ZM151.547 30.3501V26.8764C151.76 26.8695 151.966 26.8008 152.076 26.7045H152.186V27.2891C152.702 26.8764 153.046 26.7251 153.486 26.7251C154.106 26.7251 154.463 27.1309 154.463 27.8257V30.3501H153.823V27.9151C153.823 27.4611 153.652 27.2547 153.273 27.2547C152.943 27.2547 152.737 27.3304 152.186 27.6675V30.3501H151.547ZM155.611 30.3501V25.3219C155.824 25.315 156.03 25.2462 156.14 25.1499H156.25V28.6167L157.716 26.787H158.431L157.207 28.1971L158.568 30.3501H157.867L156.794 28.6786L156.25 29.3046V30.3501H155.611ZM161.639 30.3501L161.474 29.848C161.013 30.2882 160.655 30.4602 160.18 30.4602C159.816 30.4602 159.548 30.3226 159.382 30.0612C159.252 29.8617 159.204 29.6416 159.204 29.2564V26.8214L159.843 26.7801V29.2702C159.843 29.7654 160.002 29.9649 160.387 29.9649C160.724 29.9649 160.965 29.8617 161.419 29.5247V26.8214L162.058 26.7801V30.3501H161.639ZM163.242 30.3501V26.8764C163.455 26.8695 163.661 26.8008 163.771 26.7045H163.881V27.2891C164.397 26.8764 164.741 26.7251 165.181 26.7251C165.8 26.7251 166.158 27.1309 166.158 27.8257V30.3501H165.518V27.9151C165.518 27.4611 165.346 27.2547 164.968 27.2547C164.638 27.2547 164.432 27.3304 163.881 27.6675V30.3501H163.242ZM166.941 27.2479V26.787H167.478V26.5187C167.478 25.6383 167.938 25.143 168.743 25.143H169.101V25.652C168.998 25.6314 168.929 25.6245 168.846 25.6245C168.358 25.6245 168.117 25.8997 168.117 26.4637V26.787H168.984V27.2479H168.117V30.3501H167.478V27.2479H166.941ZM171.615 29.8548V30.3157C171.402 30.3982 171.244 30.4258 171.03 30.4258C170.26 30.4258 169.902 30.0474 169.902 29.2495V27.2479H169.373V26.787H169.503C169.827 26.787 169.957 26.6907 170.047 26.3605L170.143 26.0166H170.542V26.787H171.519V27.2479H170.542V29.3389C170.542 29.7654 170.714 29.9443 171.127 29.9443C171.285 29.9443 171.395 29.9236 171.615 29.8548ZM174.982 25.3356C175.23 25.3356 175.402 25.5076 175.402 25.7552C175.402 26.0028 175.23 26.1748 174.982 26.1748C174.735 26.1748 174.563 26.0028 174.563 25.7483C174.563 25.5076 174.742 25.3356 174.982 25.3356ZM175.313 30.3501H174.673V27.3373H174.136V26.8489H174.411C174.81 26.8489 175.01 26.8076 175.168 26.7045H175.313V30.3501ZM176.495 30.3501V26.8764C176.708 26.8695 176.915 26.8008 177.025 26.7045H177.135V27.2891C177.651 26.8764 177.994 26.7251 178.435 26.7251C179.054 26.7251 179.411 27.1309 179.411 27.8257V30.3501H178.772V27.9151C178.772 27.4611 178.6 27.2547 178.221 27.2547C177.891 27.2547 177.685 27.3304 177.135 27.6675V30.3501H176.495ZM184.774 27.7431C185.235 27.9564 185.324 28.0114 185.476 28.149C185.717 28.3759 185.827 28.658 185.827 29.0363C185.827 29.9099 185.166 30.4533 184.093 30.4533C183.013 30.4533 182.36 29.9374 182.36 29.0913C182.36 28.4929 182.649 28.1421 183.412 27.805C182.786 27.468 182.539 27.1309 182.539 26.6013C182.539 25.8309 183.13 25.37 184.134 25.37C185.118 25.37 185.661 25.7827 185.661 26.5394C185.661 27.0415 185.393 27.4129 184.774 27.7431ZM183.88 28.0114C183.852 28.0251 183.852 28.0251 183.818 28.0389C183.288 28.2659 183.041 28.6029 183.041 29.112C183.041 29.6554 183.419 29.958 184.107 29.958C184.788 29.958 185.152 29.6691 185.152 29.1395C185.152 28.7749 185.008 28.5479 184.65 28.3553C184.465 28.2521 184.382 28.2109 183.88 28.0114ZM184.327 27.5505C184.809 27.2616 184.98 27.0071 184.98 26.5806C184.98 26.0923 184.698 25.8584 184.1 25.8584C183.508 25.8584 183.206 26.0854 183.206 26.5256C183.206 26.9658 183.433 27.1722 184.327 27.5505ZM188.808 30.3501V26.8764C189.021 26.8695 189.227 26.8008 189.337 26.7045H189.448V27.2754C189.957 26.8558 190.245 26.7251 190.658 26.7251C191.071 26.7251 191.298 26.8971 191.449 27.3166C191.993 26.8902 192.364 26.7251 192.784 26.7251C193.348 26.7251 193.671 27.124 193.671 27.8257V30.3501H193.031V27.8394C193.031 27.4473 192.88 27.2547 192.57 27.2547C192.254 27.2547 192.075 27.3235 191.559 27.6331V30.3501H190.92V27.8807C190.92 27.4405 190.775 27.2547 190.445 27.2547C190.129 27.2547 189.963 27.3166 189.448 27.6331V30.3501H188.808ZM195.343 25.3356C195.59 25.3356 195.762 25.5076 195.762 25.7552C195.762 26.0028 195.59 26.1748 195.343 26.1748C195.095 26.1748 194.923 26.0028 194.923 25.7483C194.923 25.5076 195.102 25.3356 195.343 25.3356ZM195.673 30.3501H195.033V27.3373H194.497V26.8489H194.772C195.171 26.8489 195.37 26.8076 195.528 26.7045H195.673V30.3501ZM196.855 30.3501V26.8764C197.068 26.8695 197.275 26.8008 197.385 26.7045H197.495V27.2891C198.011 26.8764 198.355 26.7251 198.795 26.7251C199.414 26.7251 199.772 27.1309 199.772 27.8257V30.3501H199.132V27.9151C199.132 27.4611 198.96 27.2547 198.582 27.2547C198.252 27.2547 198.045 27.3304 197.495 27.6675V30.3501H196.855Z" fill="black"/>
<path d="M11.1446 44.225V35.3018H17.2448V36.9588H13.3049V39.1927H16.5943V40.7637H13.3049V44.225H11.1446ZM18.2372 44.225V42.973H19.0473V39.1927H18.2495V37.8057H18.7773C19.6978 37.8057 20.1274 37.7321 20.4343 37.4989H21.0111V38.7508C21.5758 38.0389 22.3367 37.5971 23.1223 37.5357V39.34C22.3122 39.389 21.5021 39.5363 21.0111 39.7204V42.973H22.0913V44.225H18.2372ZM30.0307 42.8871V44.1391C29.7238 44.2741 29.3801 44.3354 28.9751 44.3354C28.165 44.3354 27.7109 44.0163 27.4531 43.2676C26.9499 44.0409 26.2626 44.4214 25.4157 44.4214C24.2251 44.4214 23.5255 43.7217 23.5255 42.5189C23.5255 41.4879 23.9796 40.9233 24.9984 40.6655C25.6121 40.506 26.0048 40.4692 27.3672 40.4078V40.0518C27.3672 39.3031 27.0726 39.0208 26.2994 39.0208C25.6611 39.0208 25.1334 39.119 24.041 39.4504V37.9285C24.9247 37.6216 25.6611 37.4989 26.4835 37.4989C28.5087 37.4989 29.3433 38.2353 29.3433 40.0396V42.4453C29.3433 42.7889 29.4538 42.9239 29.7361 42.9239C29.8343 42.9239 29.9202 42.9117 30.0307 42.8871ZM27.3672 42.568V41.3283C26.5694 41.3652 26.3485 41.3897 26.0539 41.4633C25.6121 41.5861 25.4525 41.807 25.4525 42.3348C25.4525 42.8626 25.6734 43.0958 26.1889 43.0958C26.6062 43.0958 26.999 42.9239 27.3672 42.568ZM31.0015 44.225V37.9039C31.7871 37.8794 32.278 37.7443 32.5235 37.4989H32.9777V38.7017C33.6895 37.9162 34.4382 37.5357 35.2729 37.5357C36.3898 37.5357 37.0403 38.3089 37.0403 39.6223V44.225H35.0642V40.0273C35.0642 39.4504 34.7942 39.1558 34.2419 39.1558C33.8368 39.1558 33.53 39.254 32.9777 39.5732V44.225H31.0015ZM38.5529 44.225V35.3387C39.3139 35.3264 39.8294 35.1914 40.0749 34.9459H40.529V40.3464L42.5665 37.6952H44.6408L42.5174 40.15L44.8371 44.225H42.6892L41.1672 41.5861L40.529 42.3716V44.225H38.5529ZM45.2057 39.0577V37.6952H46.0404V37.4743C46.0404 35.8419 46.9364 34.9336 48.532 34.9336H49.563V36.3697C49.4157 36.3451 49.2684 36.3328 49.1088 36.3328C48.3601 36.3328 48.0165 36.652 48.0165 37.3516V37.6952H49.4034V39.0577H48.0165V44.225H46.0404V39.0577H45.2057ZM54.7999 44.225L54.4808 43.2553C53.7321 44.1022 53.1061 44.4214 52.2592 44.4214C51.0809 44.4214 50.4181 43.6358 50.4181 42.2611V37.818L52.3942 37.6462V41.7702C52.3942 42.5557 52.5906 42.8135 53.1798 42.8135C53.5971 42.8135 53.8794 42.7153 54.3703 42.3962V37.818L56.3464 37.6462V44.225H54.7999ZM57.4443 44.225V42.973H58.2544V39.1927H57.4566V37.8057H57.9843C58.9049 37.8057 59.3345 37.7321 59.6413 37.4989H60.2182V38.7508C60.7828 38.0389 61.5438 37.5971 62.3293 37.5357V39.34C61.5192 39.389 60.7092 39.5363 60.2182 39.7204V42.973H61.2983V44.225H57.4443ZM67.5107 42.7153V44.1391C67.1302 44.2863 66.6638 44.36 66.1606 44.36C64.5282 44.36 63.8408 43.7095 63.8408 42.1507V39.0577H62.9816V37.6952H63.1289C63.7672 37.6952 64.0618 37.4866 64.2213 36.9343L64.4177 36.2224H65.8169V37.6952H67.388V39.0577H65.8169V41.9788C65.8169 42.6539 66.0256 42.8748 66.6761 42.8748C66.9339 42.8748 67.1057 42.838 67.5107 42.7153ZM72.6648 46.2134H71.0078C69.2895 44.5195 68.553 42.8012 68.553 40.4937C68.553 38.1862 69.2895 36.4679 71.0078 34.7741H72.6648C71.2165 36.5047 70.6396 38.1371 70.6396 40.4937C70.6396 42.8503 71.2165 44.4827 72.6648 46.2134ZM73.8667 44.225L74.0999 35.3018H76.5301L78.7026 40.3955L80.9242 35.3018H83.3913V44.225H81.2311V38.3458L79.0218 43.3044H77.868L75.7937 38.4685L75.6587 44.225H73.8667ZM91.2205 42.8871V44.1391C90.9136 44.2741 90.57 44.3354 90.1649 44.3354C89.3549 44.3354 88.9007 44.0163 88.643 43.2676C88.1397 44.0409 87.4524 44.4214 86.6055 44.4214C85.4149 44.4214 84.7153 43.7217 84.7153 42.5189C84.7153 41.4879 85.1694 40.9233 86.1882 40.6655C86.8019 40.506 87.1946 40.4692 88.5571 40.4078V40.0518C88.5571 39.3031 88.2625 39.0208 87.4892 39.0208C86.851 39.0208 86.3232 39.119 85.2308 39.4504V37.9285C86.1145 37.6216 86.851 37.4989 87.6733 37.4989C89.6985 37.4989 90.5332 38.2353 90.5332 40.0396V42.4453C90.5332 42.7889 90.6436 42.9239 90.9259 42.9239C91.0241 42.9239 91.11 42.9117 91.2205 42.8871ZM88.5571 42.568V41.3283C87.7592 41.3652 87.5383 41.3897 87.2437 41.4633C86.8019 41.5861 86.6423 41.807 86.6423 42.3348C86.6423 42.8626 86.8633 43.0958 87.3788 43.0958C87.7961 43.0958 88.1888 42.9239 88.5571 42.568ZM93.5047 34.8354C94.1184 34.8354 94.5603 35.2773 94.5603 35.8787C94.5603 36.4924 94.1184 36.9343 93.517 36.9343C92.9033 36.9343 92.4614 36.4924 92.4614 35.8664C92.4614 35.2773 92.9155 34.8354 93.5047 34.8354ZM94.5112 44.225H92.5351V39.1927H91.7373V37.8057H92.2773C93.1979 37.8057 93.6152 37.7321 93.9343 37.4989H94.5112V44.225ZM96.0869 44.225V37.9039C96.8725 37.8794 97.3634 37.7443 97.6089 37.4989H98.063V38.7017C98.7749 37.9162 99.5236 37.5357 100.358 37.5357C101.475 37.5357 102.126 38.3089 102.126 39.6223V44.225H100.15V40.0273C100.15 39.4504 99.8796 39.1558 99.3272 39.1558C98.9222 39.1558 98.6153 39.254 98.063 39.5732V44.225H96.0869ZM103.172 34.7741H104.829C106.547 36.4679 107.284 38.1862 107.284 40.4937C107.284 42.8012 106.547 44.5195 104.829 46.2134H103.172C104.62 44.4827 105.197 42.8503 105.197 40.4937C105.197 38.1371 104.62 36.5047 103.172 34.7741ZM108.976 44.225V35.3018H111.137V38.8367H114.573V35.3018H116.734V44.225H114.573V40.4692H111.137V44.225H108.976ZM118.477 44.225V35.3387C119.238 35.3264 119.754 35.1914 119.999 34.9459H120.453V38.6035C121.19 37.8425 121.791 37.548 122.589 37.548C124.111 37.548 124.933 38.7385 124.933 40.9478C124.933 43.1571 124.001 44.4214 122.38 44.4214C121.558 44.4214 120.907 44.1513 120.208 43.5131L119.95 44.225H118.477ZM120.453 39.5609V42.6785C120.883 42.973 121.202 43.0835 121.656 43.0835C122.552 43.0835 122.884 42.5189 122.884 40.9847C122.884 39.61 122.564 39.1067 121.718 39.1067C121.288 39.1067 121.006 39.2049 120.453 39.5609ZM125.729 39.0577V37.6952H126.564V37.4743C126.564 35.8419 127.46 34.9336 129.056 34.9336H130.087V36.3697C129.939 36.3451 129.792 36.3328 129.633 36.3328C128.884 36.3328 128.54 36.652 128.54 37.3516V37.6952H129.927V39.0577H128.54V44.225H126.564V39.0577H125.729Z" fill="black"/>
<path d="M221.598 44.1373L225.398 36.7045H220.922L221 35.8294H226.339V36.5051L222.706 44.1373H221.598Z" fill="black"/>
<path d="M138.573 43.6499V42.941H140.767V36.782L138.939 37.3913V36.6823L141.265 35.774H141.841V42.941H143.669V43.6499H138.573ZM145.082 43.6499V43.0185C145.204 42.9077 145.459 42.6751 145.847 42.3206C148.239 40.1384 148.782 39.3298 148.782 37.9451C148.782 36.9703 148.317 36.4829 147.375 36.4829C146.644 36.4829 145.957 36.7266 145.249 37.2362V36.3611C145.847 35.8848 146.622 35.63 147.442 35.63C149.026 35.63 149.901 36.4719 149.901 37.9894C149.901 39.0418 149.524 39.8172 148.483 40.9138C148.062 41.3458 147.852 41.5452 146.434 42.8191H150.111L150.012 43.6499H145.082ZM152.688 42.2542C153.131 42.2542 153.452 42.5754 153.452 43.0185C153.452 43.4616 153.131 43.7828 152.688 43.7828C152.234 43.7828 151.924 43.4616 151.924 43.0074C151.924 42.5754 152.245 42.2542 152.688 42.2542ZM152.688 38.4436C153.131 38.4436 153.452 38.7648 153.452 39.2079C153.452 39.651 153.131 39.9723 152.688 39.9723C152.234 39.9723 151.924 39.651 151.924 39.1969C151.924 38.7648 152.245 38.4436 152.688 38.4436ZM159.587 43.6499H158.513V41.9219H154.624V41.368L158.391 35.4085H159.399L155.799 41.1686H158.513V38.5876L159.587 38.4658V41.1686H160.695V41.9219H159.587V43.6499ZM165.409 39.4516C166.152 39.795 166.296 39.8836 166.539 40.1052C166.927 40.4707 167.104 40.9249 167.104 41.5342C167.104 42.941 166.041 43.8161 164.313 43.8161C162.574 43.8161 161.521 42.9853 161.521 41.6228C161.521 40.6591 161.986 40.0941 163.216 39.5513C162.208 39.0085 161.809 38.4658 161.809 37.6128C161.809 36.3722 162.762 35.63 164.379 35.63C165.963 35.63 166.838 36.2946 166.838 37.5131C166.838 38.3218 166.406 38.9199 165.409 39.4516ZM163.969 39.8836C163.925 39.9058 163.925 39.9058 163.87 39.928C163.017 40.2935 162.618 40.8363 162.618 41.656C162.618 42.5311 163.227 43.0185 164.335 43.0185C165.431 43.0185 166.019 42.5533 166.019 41.7003C166.019 41.1132 165.786 40.7477 165.21 40.4375C164.911 40.2714 164.778 40.2049 163.969 39.8836ZM164.689 39.1415C165.465 38.6762 165.742 38.2664 165.742 37.5796C165.742 36.7931 165.287 36.4165 164.324 36.4165C163.371 36.4165 162.884 36.782 162.884 37.491C162.884 38.1999 163.249 38.5322 164.689 39.1415Z" fill="black"/>
<path d="M174.192 43.6499V42.5754H176.02V37.5796L174.458 38.211V36.9039L176.795 35.774H177.969V42.5754H179.487V43.6499H174.192ZM180.623 43.6499V42.5865C181.986 41.3569 182.285 41.0689 182.794 40.504C183.592 39.6067 183.847 39.0529 183.847 38.211C183.847 37.4467 183.503 37.0922 182.739 37.0922C182.141 37.0922 181.642 37.2473 180.812 37.7125V36.2614C181.498 35.8294 182.23 35.63 183.105 35.63C184.833 35.63 185.741 36.4829 185.741 38.1113C185.741 39.0418 185.464 39.7175 184.7 40.6037C184.356 41.0024 183.958 41.3901 183.049 42.2099H185.896L185.741 43.6499H180.623ZM188.44 41.7668C189.027 41.7668 189.459 42.1988 189.459 42.7859C189.459 43.373 189.027 43.805 188.44 43.805C187.852 43.805 187.42 43.373 187.42 42.7748C187.42 42.1988 187.864 41.7668 188.44 41.7668ZM188.44 38.3328C189.027 38.3328 189.459 38.7648 189.459 39.3519C189.459 39.939 189.027 40.371 188.44 40.371C187.852 40.371 187.42 39.939 187.42 39.3409C187.42 38.7648 187.864 38.3328 188.44 38.3328ZM195.649 43.6499H193.887V42.1434H190.265V41.1132L193.522 35.3752H195.194L192.093 40.9138H193.887V39.0307L195.649 38.7648V40.9138H196.435V42.1434H195.649V43.6499ZM201.438 39.3187C202.523 39.8504 202.9 40.3821 202.9 41.4234C202.9 42.9299 201.825 43.8161 199.987 43.8161C198.17 43.8161 197.084 43.0074 197.084 41.656C197.084 40.7698 197.527 40.216 198.569 39.8283C197.671 39.3187 197.328 38.7648 197.328 37.8454C197.328 36.4497 198.325 35.63 200.042 35.63C201.715 35.63 202.634 36.3279 202.634 37.6128C202.634 38.3661 202.28 38.8645 201.438 39.3187ZM199.566 40.2492C199.51 40.2714 199.51 40.2714 199.455 40.3157C198.967 40.6258 198.779 40.9471 198.779 41.5009C198.779 42.1656 199.222 42.5422 200.031 42.5422C200.762 42.5422 201.161 42.1988 201.161 41.5674C201.161 41.1465 200.995 40.8806 200.596 40.6812C200.352 40.5483 200.341 40.5483 199.566 40.2492ZM200.363 38.9199C200.873 38.4658 200.961 38.2996 200.961 37.8122C200.961 37.1919 200.64 36.8928 199.987 36.8928C199.399 36.8928 199.067 37.1808 199.067 37.6904C199.067 38.2442 199.278 38.4547 200.363 38.9199Z" fill="#518D1A"/>
<circle cx="16" cy="77.0001" r="2.3225" fill="white" stroke="#8A8B98"/>
<circle cx="16" cy="91.0001" r="2.3225" fill="white" stroke="#8A8B98"/>
<circle cx="16" cy="105" r="2.3225" fill="white" stroke="#8A8B98"/>
<circle cx="16" cy="122" r="3.10875" fill="white" stroke="#8A8B98" stroke-width="0.75"/>
<circle cx="16" cy="122" r="1.36687" fill="#8A8B98"/>
</g>
<defs>
<filter id="filter0_d_487_2" x="1.6" y="53.6" width="237.8" height="62.8" filterUnits="userSpaceOnUse" color-interpolation-filters="sRGB">
<feFlood flood-opacity="0" result="BackgroundImageFix"/>
<feColorMatrix in="SourceAlpha" type="matrix" values="0 0 0 0 0 0 0 0 0 0 0 0 0 0 0 0 0 0 127 0" result="hardAlpha"/>
<feOffset/>
<feGaussianBlur stdDeviation="1.7"/>
<feComposite in2="hardAlpha" operator="out"/>
<feColorMatrix type="matrix" values="0 0 0 0 0 0 0 0 0 0 0 0 0 0 0 0 0 0 0.25 0"/>
<feBlend mode="normal" in2="BackgroundImageFix" result="effect1_dropShadow_487_2"/>
<feBlend mode="normal" in="SourceGraphic" in2="effect1_dropShadow_487_2" result="shape"/>
</filter>
<filter id="filter1_d_487_2" x="1.6" y="109.6" width="237.8" height="24.8" filterUnits="userSpaceOnUse" color-interpolation-filters="sRGB">
<feFlood flood-opacity="0" result="BackgroundImageFix"/>
<feColorMatrix in="SourceAlpha" type="matrix" values="0 0 0 0 0 0 0 0 0 0 0 0 0 0 0 0 0 0 127 0" result="hardAlpha"/>
<feOffset/>
<feGaussianBlur stdDeviation="1.7"/>
<feComposite in2="hardAlpha" operator="out"/>
<feColorMatrix type="matrix" values="0 0 0 0 0 0 0 0 0 0 0 0 0 0 0 0 0 0 0.25 0"/>
<feBlend mode="normal" in2="BackgroundImageFix" result="effect1_dropShadow_487_2"/>
<feBlend mode="normal" in="SourceGraphic" in2="effect1_dropShadow_487_2" result="shape"/>
</filter>
<filter id="filter2_d_487_2" x="1.6" y="15.6" width="237.8" height="40.8" filterUnits="userSpaceOnUse" color-interpolation-filters="sRGB">
<feFlood flood-opacity="0" result="BackgroundImageFix"/>
<feColorMatrix in="SourceAlpha" type="matrix" values="0 0 0 0 0 0 0 0 0 0 0 0 0 0 0 0 0 0 127 0" result="hardAlpha"/>
<feOffset/>
<feGaussianBlur stdDeviation="1.7"/>
<feComposite in2="hardAlpha" operator="out"/>
<feColorMatrix type="matrix" values="0 0 0 0 0 0 0 0 0 0 0 0 0 0 0 0 0 0 0.25 0"/>
<feBlend mode="normal" in2="BackgroundImageFix" result="effect1_dropShadow_487_2"/>
<feBlend mode="normal" in="SourceGraphic" in2="effect1_dropShadow_487_2" result="shape"/>
</filter>
<clipPath id="clip0_487_2">
<rect width="240" height="135" fill="white"/>
</clipPath>
</defs>
</svg>
