<svg width="240" height="135" viewBox="0 0 240 135" fill="none" xmlns="http://www.w3.org/2000/svg">
<rect width="240" height="135" fill="#D6DBE3"/>
<g filter="url(#filter0_d_576_2)">
<path d="M5 59C5 57.8954 5.89543 57 7 57H166C167.105 57 168 57.8954 168 59V130H5V59Z" fill="white"/>
</g>
<g filter="url(#filter1_d_576_2)">
<path d="M172 59C172 57.8954 172.895 57 174 57H233C234.105 57 235 57.8954 235 59V128C235 129.105 234.105 130 233 130H174C172.895 130 172 129.105 172 128V59Z" fill="white"/>
</g>
<path d="M177 98.1504H229C230.022 98.1504 230.85 98.9783 230.85 100V124C230.85 125.022 230.022 125.85 229 125.85H178C176.978 125.85 176.15 125.022 176.15 124V99C176.15 98.5306 176.531 98.1504 177 98.1504Z" stroke="black" stroke-width="0.3"/>
<rect width="240" height="15" fill="#131516"/>
<path d="M6.22739 10.4871V4.9987H5.40258V3.98577H8.77055V4.9987H7.95556V10.4871H8.77055V11.5H5.40258V10.4871H6.22739ZM14.8095 4.12014V5.53616C14.2105 5.2881 13.6901 5.17441 13.1009 5.17441C11.8146 5.17441 11.3237 5.89792 11.3237 7.76873C11.3237 9.56718 11.8343 10.2907 13.0911 10.2907C13.6901 10.2907 14.1614 10.1873 14.8488 9.9186V11.2416C14.3087 11.5103 13.6705 11.655 12.9929 11.655C11.8048 11.655 10.8524 11.2623 10.2534 10.5181C9.7428 9.87726 9.49732 8.9987 9.49732 7.77906C9.49732 6.34237 9.85081 5.35012 10.6069 4.65761C11.2157 4.09947 12.0503 3.81006 13.0518 3.81006C13.6803 3.81006 14.24 3.90309 14.8095 4.12014ZM16.0647 11.5V3.98577H20.9645V5.38112H17.7929V7.0142H20.2968V8.3372H17.7929V10.1046H21.2394L21.1216 11.5H16.0647ZM24.9932 11.9858V10.6731C26.0733 10.5904 26.574 10.4974 27.1337 10.2907C27.8898 10.0013 28.1942 9.63953 28.1942 9.02971C28.1942 8.52325 27.8996 8.27519 27.2908 8.27519C27.0061 8.27519 26.7115 8.31653 26.1813 8.41989V7.23126C27.6247 6.94185 27.9389 6.73513 27.9389 6.05296C27.9389 5.53616 27.6541 5.31911 26.9963 5.31911C26.4857 5.31911 25.9947 5.45348 25.2386 5.8049V4.51291C25.8867 4.18216 26.5937 4.01678 27.3596 4.01678C28.8226 4.01678 29.5983 4.6266 29.5983 5.78423C29.5983 6.62144 29.2743 7.05555 28.3709 7.45865C28.8324 7.52066 28.9699 7.56201 29.2056 7.69637C29.6769 7.95477 29.9027 8.37855 29.9027 9.01937C29.9027 10.2804 29.2154 11.0969 27.772 11.5413C26.9864 11.7894 26.3089 11.8928 24.9932 11.9858ZM31.1459 11.5V10.4974H32.7661V5.83591L31.3816 6.42505V5.20541L33.4534 4.15115H34.4942V10.4974H35.8395V11.5H31.1459ZM40.5783 7.45865C41.5406 7.95477 41.8744 8.4509 41.8744 9.42248C41.8744 10.8282 40.9219 11.655 39.292 11.655C37.6816 11.655 36.7194 10.9005 36.7194 9.63953C36.7194 8.81266 37.1121 8.29586 38.0351 7.9341C37.2398 7.45865 36.9354 6.94185 36.9354 6.08397C36.9354 4.78164 37.8191 4.01678 39.3411 4.01678C40.8238 4.01678 41.6387 4.66795 41.6387 5.86691C41.6387 6.56976 41.3245 7.03487 40.5783 7.45865ZM38.9188 8.32687C38.8697 8.34754 38.8697 8.34754 38.8206 8.38888C38.3886 8.67829 38.2217 8.97803 38.2217 9.49483C38.2217 10.115 38.6144 10.4664 39.3312 10.4664C39.9793 10.4664 40.3328 10.146 40.3328 9.55684C40.3328 9.16408 40.1855 8.91602 39.832 8.72997C39.616 8.60594 39.6062 8.60594 38.9188 8.32687ZM39.6258 7.08655C40.0775 6.66278 40.1561 6.50774 40.1561 6.05296C40.1561 5.47415 39.8713 5.19508 39.292 5.19508C38.7716 5.19508 38.477 5.46381 38.477 5.93927C38.477 6.45606 38.6635 6.65245 39.6258 7.08655Z" fill="white"/>
<path d="M46.8444 11.5V6.28035C47.1488 6.27002 47.4434 6.16666 47.6005 6.02195H47.7576V6.90051C48.4941 6.28035 48.985 6.05296 49.6134 6.05296C50.4972 6.05296 51.0078 6.66278 51.0078 7.70671V11.5H50.0946V7.84108C50.0946 7.15891 49.8491 6.84883 49.3091 6.84883C48.8377 6.84883 48.5432 6.96252 47.7576 7.46898V11.5H46.8444ZM56.8484 10.8075V11.4483C56.6225 11.531 56.3869 11.5724 56.2003 11.5724C55.7192 11.5724 55.4344 11.3243 55.3068 10.7972C54.7765 11.3966 54.266 11.6654 53.6473 11.6654C52.7538 11.6654 52.2334 11.1176 52.2334 10.1563C52.2334 9.35012 52.5574 8.90568 53.2742 8.68862C53.7357 8.54392 54.0205 8.51291 55.2773 8.41989V7.97545C55.2773 7.13823 54.9926 6.80748 54.2856 6.80748C53.7554 6.80748 53.2742 6.94185 52.5476 7.28294V6.50774C53.1662 6.19766 53.7161 6.05296 54.3347 6.05296C55.6112 6.05296 56.1905 6.65245 56.1905 7.98578V10.3941C56.1905 10.7351 56.2887 10.8488 56.5636 10.8488C56.6716 10.8488 56.7404 10.8385 56.8484 10.8075ZM55.2773 10.1873V9.02971L55.1399 9.04005L54.7275 9.07105C53.5099 9.16408 53.1466 9.4018 53.1466 10.115C53.1466 10.7145 53.3626 10.9625 53.883 10.9625C54.3641 10.9625 54.8355 10.7041 55.2773 10.1873ZM61.4457 10.4457V11.2416C60.8566 11.5413 60.4147 11.6654 59.8943 11.6654C58.3331 11.6654 57.5475 10.7248 57.5475 8.83333C57.5475 7.00387 58.3527 6.05296 59.9041 6.05296C60.3951 6.05296 60.7879 6.13565 61.3475 6.3527V7.21059C60.6307 6.89017 60.3755 6.81782 59.8943 6.81782C58.8437 6.81782 58.5196 7.29327 58.5196 8.854C58.5196 10.4147 58.8633 10.9109 59.9336 10.9109C60.4344 10.9109 60.6013 10.8592 61.4457 10.4457ZM62.7238 11.5V3.94443C63.0282 3.93409 63.3228 3.83073 63.4799 3.68603H63.637V6.90051C64.3833 6.27002 64.8644 6.05296 65.4928 6.05296C66.3766 6.05296 66.8872 6.66278 66.8872 7.70671V11.5H65.974V7.77906C65.974 7.16924 65.7089 6.84883 65.1884 6.84883C64.7171 6.84883 64.4225 6.96252 63.637 7.46898V11.5H62.7238Z" fill="white"/>
<path d="M209.019 11.5V10.9109C209.127 10.8075 209.352 10.5904 209.696 10.2597C211.817 8.22351 212.298 7.46898 212.298 6.17699C212.298 5.26743 211.886 4.81265 211.051 4.81265C210.403 4.81265 209.794 5.04004 209.166 5.51549V4.69895C209.696 4.25451 210.383 4.01678 211.11 4.01678C212.514 4.01678 213.29 4.80231 213.29 6.21834C213.29 7.20025 212.956 7.92377 212.033 8.94702C211.66 9.35012 211.473 9.53617 210.217 10.7248H213.476L213.388 11.5H209.019ZM214.818 8.47157V7.20025C214.818 5.23642 215.741 4.01678 217.233 4.01678C218.726 4.01678 219.649 5.23642 219.649 7.20025V8.47157C219.649 10.4354 218.726 11.655 217.233 11.655C215.741 11.655 214.818 10.4354 214.818 8.47157ZM218.638 8.53359V7.13823C218.638 5.46381 218.215 4.75063 217.233 4.75063C216.251 4.75063 215.829 5.46381 215.829 7.13823V8.53359C215.829 10.208 216.251 10.9212 217.233 10.9212C218.215 10.9212 218.638 10.208 218.638 8.53359ZM221.648 10.1977C222.041 10.1977 222.326 10.4974 222.326 10.9109C222.326 11.3243 222.041 11.624 221.648 11.624C221.246 11.624 220.971 11.3243 220.971 10.9005C220.971 10.4974 221.255 10.1977 221.648 10.1977ZM221.648 6.64211C222.041 6.64211 222.326 6.94185 222.326 7.35529C222.326 7.76873 222.041 8.06847 221.648 8.06847C221.246 8.06847 220.971 7.76873 220.971 7.34495C220.971 6.94185 221.255 6.64211 221.648 6.64211ZM223.649 8.47157V7.20025C223.649 5.23642 224.572 4.01678 226.065 4.01678C227.557 4.01678 228.48 5.23642 228.48 7.20025V8.47157C228.48 10.4354 227.557 11.655 226.065 11.655C224.572 11.655 223.649 10.4354 223.649 8.47157ZM227.469 8.53359V7.13823C227.469 5.46381 227.047 4.75063 226.065 4.75063C225.083 4.75063 224.661 5.46381 224.661 7.13823V8.53359C224.661 10.208 225.083 10.9212 226.065 10.9212C227.047 10.9212 227.469 10.208 227.469 8.53359ZM230.107 11.9548L233.474 5.01937H229.508L229.576 4.20283H234.309V4.83332L231.088 11.9548H230.107Z" fill="white"/>
<rect y="15" width="240" height="38" fill="#131516"/>
<path d="M16 57V130" stroke="#8A8B98" stroke-width="2"/>
<path d="M16 57V77" stroke="#2F3A44" stroke-width="2"/>
<path d="M26.0473 80.094V73.493H30.5599V74.7188H27.6453V76.3713H30.0787V77.5335H27.6453V80.094H26.0473ZM31.2941 80.094V79.1679H31.8934V76.3713H31.3032V75.3453H31.6936C32.3746 75.3453 32.6924 75.2908 32.9194 75.1183H33.3461V76.0444C33.7638 75.5178 34.3267 75.191 34.9078 75.1456V76.4803C34.3086 76.5166 33.7093 76.6255 33.3461 76.7617V79.1679H34.1451V80.094H31.2941ZM40.0184 79.1043V80.0304C39.7914 80.1303 39.5371 80.1757 39.2375 80.1757C38.6382 80.1757 38.3023 79.9396 38.1116 79.3858C37.7394 79.9578 37.2309 80.2393 36.6044 80.2393C35.7237 80.2393 35.2061 79.7217 35.2061 78.8319C35.2061 78.0692 35.5421 77.6516 36.2957 77.4609C36.7497 77.3428 37.0402 77.3156 38.0481 77.2702V77.0069C38.0481 76.453 37.8302 76.2442 37.2581 76.2442C36.786 76.2442 36.3956 76.3168 35.5875 76.562V75.4361C36.2412 75.2091 36.786 75.1183 37.3943 75.1183C38.8925 75.1183 39.5099 75.6631 39.5099 76.9978V78.7774C39.5099 79.0317 39.5916 79.1315 39.8004 79.1315C39.8731 79.1315 39.9366 79.1225 40.0184 79.1043ZM38.0481 78.8682V77.9512C37.4579 77.9784 37.2944 77.9966 37.0765 78.0511C36.7497 78.1419 36.6316 78.3053 36.6316 78.6957C36.6316 79.0861 36.7951 79.2587 37.1764 79.2587C37.4851 79.2587 37.7757 79.1315 38.0481 78.8682ZM40.7366 80.094V75.4179C41.3177 75.3998 41.6809 75.2999 41.8625 75.1183H42.1984V76.0081C42.725 75.427 43.2789 75.1456 43.8963 75.1456C44.7226 75.1456 45.2038 75.7176 45.2038 76.6891V80.094H43.742V76.9887C43.742 76.562 43.5422 76.3441 43.1336 76.3441C42.834 76.3441 42.607 76.4167 42.1984 76.6528V80.094H40.7366ZM46.3227 80.094V73.5203C46.8857 73.5112 47.267 73.4113 47.4486 73.2297H47.7846V77.2248L49.2918 75.2636H50.8263L49.2555 77.0795L50.9715 80.094H49.3826L48.2567 78.1419L47.7846 78.723V80.094H46.3227ZM51.2442 76.2714V75.2636H51.8616V75.1002C51.8616 73.8926 52.5245 73.2207 53.7048 73.2207H54.4675V74.283C54.3586 74.2648 54.2496 74.2557 54.1316 74.2557C53.5777 74.2557 53.3235 74.4918 53.3235 75.0094V75.2636H54.3495V76.2714H53.3235V80.094H51.8616V76.2714H51.2442ZM58.3416 80.094L58.1055 79.3767C57.5516 80.0032 57.0886 80.2393 56.4621 80.2393C55.5904 80.2393 55.1001 79.6582 55.1001 78.6412V75.3544L56.5619 75.2273V78.2781C56.5619 78.8592 56.7072 79.0498 57.143 79.0498C57.4518 79.0498 57.6606 78.9772 58.0238 78.7411V75.3544L59.4856 75.2273V80.094H58.3416ZM60.2977 80.094V79.1679H60.897V76.3713H60.3068V75.3453H60.6973C61.3782 75.3453 61.696 75.2908 61.923 75.1183H62.3498V76.0444C62.7674 75.5178 63.3304 75.191 63.9115 75.1456V76.4803C63.3122 76.5166 62.7129 76.6255 62.3498 76.7617V79.1679H63.1488V80.094H60.2977ZM67.7445 78.9772V80.0304C67.463 80.1394 67.118 80.1939 66.7457 80.1939C65.5381 80.1939 65.0296 79.7126 65.0296 78.5595V76.2714H64.394V75.2636H64.503C64.9751 75.2636 65.1931 75.1092 65.3111 74.7006L65.4564 74.174H66.4915V75.2636H67.6537V76.2714H66.4915V78.4324C66.4915 78.9318 66.6458 79.0952 67.127 79.0952C67.3177 79.0952 67.4448 79.068 67.7445 78.9772ZM74.2794 81.5649H73.0536C71.7824 80.3119 71.2377 79.0407 71.2377 77.3338C71.2377 75.6268 71.7824 74.3556 73.0536 73.1026H74.2794C73.208 74.3829 72.7812 75.5905 72.7812 77.3338C72.7812 79.0771 73.208 80.2847 74.2794 81.5649ZM75.1685 80.094L75.341 73.493H77.1388L78.7459 77.2611L80.3893 73.493H82.2143V80.094H80.6163V75.7448L78.9819 79.413H78.1284L76.594 75.8356L76.4941 80.094H75.1685ZM83.1655 73.1026H84.3912C85.6624 74.3556 86.2072 75.6268 86.2072 77.3338C86.2072 79.0407 85.6624 80.3119 84.3912 81.5649H83.1655C84.2369 80.2847 84.6636 79.0771 84.6636 77.3338C84.6636 75.5905 84.2369 74.3829 83.1655 73.1026ZM90.1816 80.094V73.493H91.7797V76.108H94.322V73.493H95.92V80.094H94.322V77.3156H91.7797V80.094H90.1816ZM97.2099 80.094V73.5203C97.7728 73.5112 98.1542 73.4113 98.3358 73.2297H98.6717V75.9355C99.2165 75.3725 99.6614 75.1546 100.252 75.1546C101.377 75.1546 101.986 76.0354 101.986 77.6697C101.986 79.3041 101.296 80.2393 100.097 80.2393C99.4889 80.2393 99.0077 80.0395 98.4901 79.5674L98.2994 80.094H97.2099ZM98.6717 76.6437V78.95C98.9895 79.1679 99.2256 79.2496 99.5615 79.2496C100.224 79.2496 100.469 78.8319 100.469 77.697C100.469 76.68 100.233 76.3078 99.6069 76.3078C99.2891 76.3078 99.0803 76.3804 98.6717 76.6437ZM102.575 76.2714V75.2636H103.192V75.1002C103.192 73.8926 103.855 73.2207 105.035 73.2207H105.798V74.283C105.689 74.2648 105.58 74.2557 105.462 74.2557C104.908 74.2557 104.654 74.4918 104.654 75.0094V75.2636H105.68V76.2714H104.654V80.094H103.192V76.2714H102.575Z" fill="black"/>
<path d="M26.238 94.094V87.493H30.2058V88.1559H27.1187V90.4803H29.7064V91.1431H27.1187V94.094H26.238ZM31.1368 94.094V93.4857H31.8632V90.1171H31.155V89.4724H31.5182C32.0448 89.4724 32.3081 89.4179 32.517 89.2817H32.7076V90.0808C33.2524 89.6086 33.7518 89.3544 34.2512 89.309V90.1262C33.6156 90.1897 33.089 90.3259 32.7076 90.5257V93.4857H33.5066V94.094H31.1368ZM39.0146 93.4857V94.0486C38.8058 94.1212 38.5879 94.1576 38.4154 94.1576C37.9705 94.1576 37.7071 93.9396 37.5891 93.4766C37.0988 94.0032 36.6267 94.2393 36.0546 94.2393C35.2284 94.2393 34.7472 93.758 34.7472 92.9136C34.7472 92.2054 35.0468 91.815 35.7096 91.6243C36.1364 91.4972 36.3997 91.47 37.5619 91.3882V90.9978C37.5619 90.2624 37.2986 89.9718 36.6448 89.9718C36.1545 89.9718 35.7096 90.0898 35.0377 90.3895V89.7085C35.6097 89.4361 36.1182 89.309 36.6902 89.309C37.8706 89.309 38.4063 89.8356 38.4063 91.0069V93.1225C38.4063 93.4221 38.4971 93.522 38.7513 93.522C38.8512 93.522 38.9147 93.5129 39.0146 93.4857ZM37.5619 92.9409V91.9239L37.4348 91.933L37.0534 91.9603C35.9275 92.042 35.5916 92.2508 35.5916 92.8773C35.5916 93.4039 35.7913 93.6218 36.2726 93.6218C36.7175 93.6218 37.1533 93.3949 37.5619 92.9409ZM39.9698 94.094V89.5087C40.2513 89.4997 40.5237 89.4089 40.669 89.2817H40.8143V90.0535C41.4952 89.5087 41.9492 89.309 42.5303 89.309C43.3475 89.309 43.8196 89.8447 43.8196 90.7617V94.094H42.9752V90.8798C42.9752 90.2805 42.7482 90.0081 42.2488 90.0081C41.813 90.0081 41.5406 90.108 40.8143 90.5529V94.094H39.9698ZM45.3343 94.094V87.4567C45.6158 87.4476 45.8882 87.3569 46.0335 87.2297H46.1787V91.8059L48.1127 89.3907H49.057L47.4408 91.252L49.2386 94.094H48.3125L46.896 91.8876L46.1787 92.7139V94.094H45.3343ZM49.7299 89.999V89.3907H50.4381V89.0366C50.4381 87.8744 51.0464 87.2207 52.1088 87.2207H52.5809V87.8926C52.4447 87.8653 52.3539 87.8562 52.245 87.8562C51.6003 87.8562 51.2825 88.2194 51.2825 88.964V89.3907H52.4266V89.999H51.2825V94.094H50.4381V89.999H49.7299ZM56.5897 94.094L56.3718 93.4312C55.7635 94.0123 55.2914 94.2393 54.6649 94.2393C54.1836 94.2393 53.8295 94.0577 53.6116 93.7126C53.4391 93.4493 53.3755 93.1588 53.3755 92.6503V89.4361L54.2199 89.3816V92.6685C54.2199 93.3222 54.4288 93.5855 54.9372 93.5855C55.3821 93.5855 55.6999 93.4493 56.2992 93.0044V89.4361L57.1436 89.3816V94.094H56.5897ZM58.2607 94.094V93.4857H58.9871V90.1171H58.2789V89.4724H58.642C59.1687 89.4724 59.432 89.4179 59.6408 89.2817H59.8315V90.0808C60.3763 89.6086 60.8757 89.3544 61.375 89.309V90.1262C60.7395 90.1897 60.2128 90.3259 59.8315 90.5257V93.4857H60.6305V94.094H58.2607ZM64.9528 93.4403V94.0486C64.6713 94.1576 64.4625 94.1939 64.181 94.1939C63.1641 94.1939 62.692 93.6945 62.692 92.6412V89.999H61.9928V89.3907H62.1653C62.5921 89.3907 62.7646 89.2636 62.8826 88.8278L63.0097 88.3738H63.5364V89.3907H64.8257V89.999H63.5364V92.7593C63.5364 93.3222 63.7634 93.5583 64.3081 93.5583C64.517 93.5583 64.6622 93.5311 64.9528 93.4403ZM68.8346 94.094V87.493H72.8024V88.1559H69.7153V90.4803H72.303V91.1431H69.7153V94.094H68.8346ZM75.1953 94.094H74.3509V88.056H73.6426V87.4204H74.0058C74.5415 87.4204 74.8139 87.3659 75.0137 87.2297H75.1953V94.094ZM79.9895 94.094L79.7716 93.4312C79.1633 94.0123 78.6911 94.2393 78.0646 94.2393C77.5834 94.2393 77.2293 94.0577 77.0114 93.7126C76.8388 93.4493 76.7753 93.1588 76.7753 92.6503V89.4361L77.6197 89.3816V92.6685C77.6197 93.3222 77.8285 93.5855 78.337 93.5855C78.7819 93.5855 79.0997 93.4493 79.699 93.0044V89.4361L80.5434 89.3816V94.094H79.9895ZM86.0006 89.8538H85.828C85.592 89.8538 85.4013 89.8901 85.2288 89.9627C85.4013 90.2351 85.4739 90.5257 85.4739 90.907C85.4739 91.9693 84.8384 92.5595 83.6852 92.5595C83.3674 92.5595 83.1223 92.5232 82.8862 92.4415C82.7319 92.6231 82.6683 92.7593 82.6683 92.9136C82.6683 93.1679 82.8862 93.3041 83.3039 93.3041H84.0666C85.3922 93.3041 85.9279 93.6763 85.9279 94.5934C85.9279 95.5649 85.1925 96.028 83.6761 96.028C82.287 96.028 81.5424 95.6194 81.5424 94.8567C81.5424 94.4209 81.7966 94.0758 82.3414 93.7762C82.069 93.6218 81.9419 93.4221 81.9419 93.1497C81.9419 92.8319 82.1144 92.5414 82.4776 92.2327C82.069 91.9239 81.8874 91.5335 81.8874 90.9433C81.8874 89.9082 82.5593 89.309 83.7215 89.309C83.9758 89.309 84.1846 89.3362 84.4025 89.3907H86.0006V89.8538ZM84.2028 93.9941H83.3311C83.1132 93.9941 82.9498 93.976 82.7682 93.9396C82.4776 94.1939 82.3505 94.4481 82.3505 94.775C82.3505 95.2199 82.7591 95.4196 83.7034 95.4196C84.2845 95.4196 84.6931 95.3288 84.9291 95.1563C85.1017 95.0383 85.1652 94.8839 85.1652 94.6206C85.1652 94.1576 84.911 93.9941 84.2028 93.9941ZM83.6852 89.8901C83.0315 89.8901 82.7319 90.2079 82.7319 90.907C82.7319 91.6606 83.0043 91.9603 83.7034 91.9603C84.348 91.9603 84.6295 91.6516 84.6295 90.9252C84.6295 90.1806 84.3662 89.8901 83.6852 89.8901ZM86.8669 94.094V87.4567C87.1484 87.4476 87.4207 87.3569 87.566 87.2297H87.7113V90.0535C88.4014 89.4997 88.8463 89.309 89.4274 89.309C90.2445 89.309 90.7167 89.8447 90.7167 90.7617V94.094H89.8723V90.8253C89.8723 90.2896 89.6271 90.0081 89.1459 90.0081C88.7101 90.0081 88.4377 90.108 87.7113 90.5529V94.094H86.8669ZM96.1175 93.4857V94.0486C95.9086 94.1212 95.6907 94.1576 95.5182 94.1576C95.0733 94.1576 94.81 93.9396 94.692 93.4766C94.2017 94.0032 93.7295 94.2393 93.1575 94.2393C92.3312 94.2393 91.85 93.758 91.85 92.9136C91.85 92.2054 92.1496 91.815 92.8125 91.6243C93.2392 91.4972 93.5025 91.47 94.6647 91.3882V90.9978C94.6647 90.2624 94.4014 89.9718 93.7477 89.9718C93.2574 89.9718 92.8125 90.0898 92.1406 90.3895V89.7085C92.7126 89.4361 93.2211 89.309 93.7931 89.309C94.9734 89.309 95.5091 89.8356 95.5091 91.0069V93.1225C95.5091 93.4221 95.5999 93.522 95.8542 93.522C95.954 93.522 96.0176 93.5129 96.1175 93.4857ZM94.6647 92.9409V91.9239L94.5376 91.933L94.1563 91.9603C93.0304 92.042 92.6944 92.2508 92.6944 92.8773C92.6944 93.4039 92.8942 93.6218 93.3754 93.6218C93.8203 93.6218 94.2561 93.3949 94.6647 92.9409ZM96.5915 89.999V89.3907H97.2997V89.0366C97.2997 87.8744 97.908 87.2207 98.9704 87.2207H99.4425V87.8926C99.3063 87.8653 99.2155 87.8562 99.1065 87.8562C98.4619 87.8562 98.1441 88.2194 98.1441 88.964V89.3907H99.2881V89.999H98.1441V94.094H97.2997V89.999H96.5915ZM103.889 91.933H100.784C100.784 93.1225 101.156 93.5765 102.155 93.5765C102.654 93.5765 102.918 93.5038 103.68 93.1588V93.8579C103.108 94.1303 102.673 94.2393 102.137 94.2393C100.648 94.2393 99.8851 93.4039 99.8851 91.7787C99.8851 90.1806 100.621 89.309 101.964 89.309C103.208 89.309 103.889 90.0989 103.889 91.5517V91.933ZM100.784 91.3156H102.981C102.927 90.2714 102.664 89.9082 101.955 89.9082C101.456 89.9082 101.12 90.1262 100.929 90.5529C100.857 90.7436 100.811 90.9433 100.784 91.3156ZM105.106 94.094V89.5087C105.388 89.4997 105.66 89.4089 105.805 89.2817H105.951V90.0535C106.631 89.5087 107.085 89.309 107.667 89.309C108.484 89.309 108.956 89.8447 108.956 90.7617V94.094H108.111V90.8798C108.111 90.2805 107.884 90.0081 107.385 90.0081C106.949 90.0081 106.677 90.108 105.951 90.5529V94.094H105.106Z" fill="black"/>
<path d="M26.238 108.094V101.493H27.1187V107.431H30.1877L30.1059 108.094H26.238ZM31.9703 101.475C32.2972 101.475 32.5242 101.702 32.5242 102.029C32.5242 102.356 32.2972 102.583 31.9703 102.583C31.6435 102.583 31.4165 102.356 31.4165 102.02C31.4165 101.702 31.6525 101.475 31.9703 101.475ZM32.4062 108.094H31.5617V104.117H30.8535V103.472H31.2167C31.7433 103.472 32.0067 103.418 32.2155 103.282H32.4062V108.094ZM33.9669 108.094V103.509C34.2484 103.5 34.5208 103.409 34.6661 103.282H34.8114V104.035C35.4833 103.482 35.8646 103.309 36.4094 103.309C36.9542 103.309 37.2538 103.536 37.4536 104.09C38.1709 103.527 38.6612 103.309 39.215 103.309C39.9596 103.309 40.3863 103.836 40.3863 104.762V108.094H39.5419V104.78C39.5419 104.262 39.3421 104.008 38.9335 104.008C38.5159 104.008 38.2798 104.099 37.5988 104.508V108.094H36.7544V104.834C36.7544 104.253 36.5637 104.008 36.1279 104.008C35.7103 104.008 35.4923 104.09 34.8114 104.508V108.094H33.9669ZM41.9028 108.094V101.457C42.1843 101.448 42.4567 101.357 42.602 101.23H42.7472V104.054C43.4373 103.482 43.8368 103.309 44.4179 103.309C45.4621 103.309 46.0795 104.199 46.0795 105.715C46.0795 106.65 45.8616 107.304 45.4076 107.758C45.0898 108.076 44.6812 108.239 44.2272 108.239C43.6915 108.239 43.1831 108.04 42.6201 107.595L42.4476 108.094H41.9028ZM42.7472 104.553V107.177C43.2557 107.495 43.5644 107.595 44.0184 107.595C44.8265 107.595 45.1624 107.05 45.1624 105.77C45.1624 104.498 44.8719 104.008 44.1183 104.008C43.6915 104.008 43.5009 104.081 42.7472 104.553ZM50.4982 108.094L50.2803 107.431C49.6719 108.012 49.1998 108.239 48.5733 108.239C48.0921 108.239 47.738 108.058 47.52 107.713C47.3475 107.449 47.284 107.159 47.284 106.65V103.436L48.1284 103.382V106.668C48.1284 107.322 48.3372 107.586 48.8457 107.586C49.2906 107.586 49.6084 107.449 50.2076 107.004V103.436L51.0521 103.382V108.094H50.4982ZM52.1691 108.094V107.486H52.8955V104.117H52.1873V103.472H52.5505C53.0771 103.472 53.3404 103.418 53.5493 103.282H53.7399V104.081C54.2847 103.609 54.7841 103.354 55.2835 103.309V104.126C54.6479 104.19 54.1213 104.326 53.7399 104.526V107.486H54.5389V108.094H52.1691ZM60.056 103.854H59.8835C59.6474 103.854 59.4567 103.89 59.2842 103.963C59.4567 104.235 59.5294 104.526 59.5294 104.907C59.5294 105.969 58.8938 106.56 57.7407 106.56C57.4229 106.56 57.1777 106.523 56.9417 106.441C56.7873 106.623 56.7237 106.759 56.7237 106.914C56.7237 107.168 56.9417 107.304 57.3593 107.304H58.122C59.4477 107.304 59.9834 107.676 59.9834 108.593C59.9834 109.565 59.2479 110.028 57.7316 110.028C56.3424 110.028 55.5979 109.619 55.5979 108.857C55.5979 108.421 55.8521 108.076 56.3969 107.776C56.1245 107.622 55.9974 107.422 55.9974 107.15C55.9974 106.832 56.1699 106.541 56.5331 106.233C56.1245 105.924 55.9429 105.534 55.9429 104.943C55.9429 103.908 56.6148 103.309 57.777 103.309C58.0312 103.309 58.2401 103.336 58.458 103.391H60.056V103.854ZM58.2582 107.994H57.3866C57.1687 107.994 57.0052 107.976 56.8236 107.94C56.5331 108.194 56.406 108.448 56.406 108.775C56.406 109.22 56.8145 109.42 57.7588 109.42C58.3399 109.42 58.7485 109.329 58.9846 109.156C59.1571 109.038 59.2207 108.884 59.2207 108.621C59.2207 108.158 58.9664 107.994 58.2582 107.994ZM57.7407 103.89C57.0869 103.89 56.7873 104.208 56.7873 104.907C56.7873 105.661 57.0597 105.96 57.7588 105.96C58.4035 105.96 58.685 105.652 58.685 104.925C58.685 104.181 58.4217 103.89 57.7407 103.89ZM63.2086 107.776V107.004C63.9169 107.395 64.4162 107.54 65.0427 107.54C65.9144 107.54 66.4047 107.168 66.4047 106.505C66.4047 106.16 66.2776 105.897 65.9961 105.661C65.7964 105.497 65.7146 105.443 64.9792 105.025C64.3981 104.698 64.0894 104.48 63.8715 104.253C63.5537 103.917 63.3902 103.518 63.3902 103.037C63.3902 101.983 64.1529 101.339 65.3969 101.339C65.9235 101.339 66.4229 101.448 66.9404 101.666V102.419C66.323 102.12 65.9235 102.02 65.3787 102.02C64.6069 102.02 64.1983 102.347 64.1983 102.964C64.1983 103.509 64.4435 103.799 65.3605 104.299C66.2322 104.78 66.323 104.834 66.6135 105.089C67.0584 105.47 67.2673 105.915 67.2673 106.441C67.2673 107.531 66.4138 108.221 65.07 108.221C64.4072 108.221 63.8805 108.094 63.2086 107.776ZM71.5925 108.094L71.3746 107.431C70.7663 108.012 70.2942 108.239 69.6677 108.239C69.1864 108.239 68.8323 108.058 68.6144 107.713C68.4419 107.449 68.3783 107.159 68.3783 106.65V103.436L69.2227 103.382V106.668C69.2227 107.322 69.4316 107.586 69.94 107.586C70.3849 107.586 70.7027 107.449 71.302 107.004V103.436L72.1464 103.382V108.094H71.5925ZM69.5133 101.52C69.8129 101.52 70.0218 101.729 70.0218 102.029C70.0218 102.328 69.8129 102.537 69.5042 102.537C69.2137 102.537 69.0048 102.328 69.0048 102.029C69.0048 101.729 69.2137 101.52 69.5133 101.52ZM71.0659 101.52C71.3656 101.52 71.5744 101.729 71.5744 102.029C71.5744 102.328 71.3656 102.537 71.0568 102.537C70.7663 102.537 70.5575 102.328 70.5575 102.029C70.5575 101.729 70.7663 101.52 71.0659 101.52ZM77.5673 108.094H77.0134L76.7955 107.467C76.1327 108.04 75.6787 108.239 75.0885 108.239C74.0262 108.239 73.3997 107.349 73.3997 105.833C73.3997 104.98 73.5631 104.353 73.8991 103.935C74.2259 103.527 74.6981 103.309 75.2429 103.309C75.7513 103.309 76.2053 103.482 76.7229 103.863V101.457C77.0043 101.448 77.2858 101.357 77.4311 101.23H77.5673V108.094ZM76.7229 107.041V104.435C76.2053 104.108 75.9057 104.008 75.4517 104.008C74.6255 104.008 74.3077 104.508 74.3077 105.815C74.3077 107.059 74.6255 107.595 75.3609 107.595C75.7967 107.595 76.1145 107.458 76.7229 107.041Z" fill="black"/>
<path d="M25.8626 122L25.9988 115.399H27.0883L29.1131 120.075L31.156 115.399H32.2365V122H31.3558V116.688L29.2675 121.319H28.7227L26.7705 116.779L26.6707 122H25.8626ZM35.7818 117.215C37.2255 117.215 37.9518 118.041 37.9518 119.676C37.9518 121.319 37.2255 122.145 35.7818 122.145C34.3381 122.145 33.6208 121.319 33.6208 119.648C33.6208 118.05 34.3654 117.215 35.7818 117.215ZM35.7818 117.814C34.8829 117.814 34.5288 118.332 34.5288 119.657C34.5288 121.028 34.8738 121.546 35.7818 121.546C36.6988 121.546 37.0439 121.028 37.0439 119.676C37.0439 118.332 36.6898 117.814 35.7818 117.814ZM39.2053 122V117.415C39.4868 117.406 39.7592 117.315 39.9045 117.188H40.0498V117.96C40.7307 117.415 41.1847 117.215 41.7658 117.215C42.583 117.215 43.0551 117.751 43.0551 118.668V122H42.2107V118.786C42.2107 118.187 41.9837 117.914 41.4844 117.914C41.0485 117.914 40.7761 118.014 40.0498 118.459V122H39.2053ZM47.0486 121.346V121.955C46.7671 122.064 46.5583 122.1 46.2768 122.1C45.2599 122.1 44.7877 121.6 44.7877 120.547V117.905H44.0886V117.297H44.2611C44.6879 117.297 44.8604 117.17 44.9784 116.734L45.1055 116.28H45.6321V117.297H46.9215V117.905H45.6321V120.665C45.6321 121.228 45.8591 121.464 46.4039 121.464C46.6128 121.464 46.758 121.437 47.0486 121.346ZM51.9672 121.392V121.955C51.7584 122.027 51.5405 122.064 51.368 122.064C50.9231 122.064 50.6598 121.846 50.5417 121.383C50.0514 121.909 49.5793 122.145 49.0072 122.145C48.181 122.145 47.6998 121.664 47.6998 120.82C47.6998 120.111 47.9994 119.721 48.6622 119.53C49.089 119.403 49.3523 119.376 50.5145 119.294V118.904C50.5145 118.168 50.2512 117.878 49.5974 117.878C49.1071 117.878 48.6622 117.996 47.9903 118.295V117.615C48.5623 117.342 49.0708 117.215 49.6428 117.215C50.8232 117.215 51.3589 117.742 51.3589 118.913V121.028C51.3589 121.328 51.4497 121.428 51.7039 121.428C51.8038 121.428 51.8674 121.419 51.9672 121.392ZM50.5145 120.847V119.83L50.3874 119.839L50.006 119.866C48.8801 119.948 48.5442 120.157 48.5442 120.783C48.5442 121.31 48.7439 121.528 49.2252 121.528C49.6701 121.528 50.1059 121.301 50.5145 120.847ZM52.9224 122V115.363C53.2039 115.354 53.4763 115.263 53.6216 115.136H53.7669V117.96C54.4569 117.388 54.8564 117.215 55.4375 117.215C56.4817 117.215 57.0991 118.105 57.0991 119.621C57.0991 120.556 56.8812 121.21 56.4272 121.664C56.1094 121.982 55.7008 122.145 55.2468 122.145C54.7111 122.145 54.2027 121.946 53.6397 121.501L53.4672 122H52.9224ZM53.7669 118.459V121.083C54.2753 121.401 54.584 121.501 55.038 121.501C55.8461 121.501 56.1821 120.956 56.1821 119.676C56.1821 118.404 55.8915 117.914 55.1379 117.914C54.7111 117.914 54.5205 117.987 53.7669 118.459ZM62.2351 121.392V121.955C62.0263 122.027 61.8084 122.064 61.6358 122.064C61.1909 122.064 60.9276 121.846 60.8096 121.383C60.3193 121.909 59.8471 122.145 59.2751 122.145C58.4489 122.145 57.9676 121.664 57.9676 120.82C57.9676 120.111 58.2673 119.721 58.9301 119.53C59.3568 119.403 59.6201 119.376 60.7824 119.294V118.904C60.7824 118.168 60.519 117.878 59.8653 117.878C59.375 117.878 58.9301 117.996 58.2582 118.295V117.615C58.8302 117.342 59.3387 117.215 59.9107 117.215C61.0911 117.215 61.6268 117.742 61.6268 118.913V121.028C61.6268 121.328 61.7176 121.428 61.9718 121.428C62.0717 121.428 62.1352 121.419 62.2351 121.392ZM60.7824 120.847V119.83L60.6552 119.839L60.2739 119.866C59.148 119.948 58.8121 120.157 58.8121 120.783C58.8121 121.31 59.0118 121.528 59.493 121.528C59.9379 121.528 60.3738 121.301 60.7824 120.847ZM66.3591 122L66.1412 121.337C65.5329 121.918 65.0607 122.145 64.4342 122.145C63.953 122.145 63.5989 121.964 63.381 121.619C63.2085 121.355 63.1449 121.065 63.1449 120.556V117.342L63.9893 117.288V120.574C63.9893 121.228 64.1982 121.492 64.7066 121.492C65.1515 121.492 65.4693 121.355 66.0686 120.91V117.342L66.913 117.288V122H66.3591ZM68.0301 122V121.392H68.7565V118.023H68.0482V117.378H68.4114C68.9381 117.378 69.2014 117.324 69.4102 117.188H69.6009V117.987C70.1457 117.515 70.645 117.26 71.1444 117.215V118.032C70.5088 118.096 69.9822 118.232 69.6009 118.432V121.392H70.3999V122H68.0301Z" fill="black"/>
<path d="M138.624 79.556V78.6844C139.741 77.6765 139.986 77.4405 140.404 76.9774C141.057 76.2419 141.266 75.788 141.266 75.0979C141.266 74.4714 140.985 74.1808 140.358 74.1808C139.868 74.1808 139.459 74.308 138.778 74.6893V73.4999C139.341 73.1458 139.941 72.9823 140.658 72.9823C142.074 72.9823 142.819 73.6815 142.819 75.0162C142.819 75.7789 142.592 76.3327 141.965 77.0591C141.684 77.386 141.357 77.7038 140.612 78.3757H142.946L142.819 79.556H138.624ZM143.987 76.8957V75.7789C143.987 74.0719 144.904 72.9823 146.338 72.9823C147.773 72.9823 148.69 74.0719 148.69 75.7789V76.8957C148.69 78.6027 147.773 79.6922 146.338 79.6922C144.904 79.6922 143.987 78.6027 143.987 76.8957ZM147.174 76.9956V75.679C147.174 74.5531 146.919 74.0628 146.338 74.0628C145.757 74.0628 145.503 74.5531 145.503 75.679V76.9956C145.503 78.1396 145.748 78.6117 146.338 78.6117C146.928 78.6117 147.174 78.1396 147.174 76.9956ZM150.475 78.0125C150.956 78.0125 151.31 78.3666 151.31 78.8478C151.31 79.329 150.956 79.6831 150.475 79.6831C149.994 79.6831 149.64 79.329 149.64 78.8387C149.64 78.3666 150.003 78.0125 150.475 78.0125ZM150.475 75.1978C150.956 75.1978 151.31 75.5519 151.31 76.0331C151.31 76.5143 150.956 76.8684 150.475 76.8684C149.994 76.8684 149.64 76.5143 149.64 76.024C149.64 75.5519 150.003 75.1978 150.475 75.1978ZM152.407 79.556V78.6753H153.905V74.5803L152.625 75.0979V74.0265L154.541 73.1004H155.503V78.6753H156.747V79.556H152.407ZM161.756 72.7009V73.8812C159.976 74.0083 159.286 74.5803 159.241 75.9695C159.631 75.5882 160.022 75.4338 160.566 75.4338C161.692 75.4338 162.31 76.133 162.31 77.3951C162.31 78.8024 161.429 79.6922 160.031 79.6922C159.223 79.6922 158.578 79.3744 158.169 78.7752C157.815 78.2576 157.643 77.5313 157.643 76.5234C157.643 74.9435 158.16 73.9175 159.277 73.291C159.913 72.9369 160.621 72.7735 161.756 72.7009ZM159.241 76.7504V76.8503V76.8957C159.241 78.1759 159.45 78.6208 160.058 78.6208C160.557 78.6208 160.757 78.294 160.757 77.4768C160.757 76.7141 160.584 76.478 160.04 76.478C159.731 76.478 159.504 76.5506 159.241 76.7504Z" fill="#518D1A"/>
<path d="M27.3704 67.3845H26.8752L25.4926 62.3494H26.1736L27.1847 66.2564L28.3472 62.3494H28.7874L29.9224 66.2564L30.9542 62.3494H31.5732L30.1769 67.3845H29.6541L28.526 63.6013L27.3704 67.3845ZM34.8509 65.713H32.4985C32.4985 66.6141 32.7805 66.958 33.5371 66.958C33.9154 66.958 34.1149 66.903 34.6927 66.6416V67.1713C34.2594 67.3776 33.9292 67.4602 33.5234 67.4602C32.3953 67.4602 31.8175 66.8273 31.8175 65.5961C31.8175 64.3854 32.3746 63.7251 33.3927 63.7251C34.335 63.7251 34.8509 64.3235 34.8509 65.4241V65.713ZM32.4985 65.2453H34.1631C34.1218 64.4542 33.9223 64.1791 33.3858 64.1791C33.0075 64.1791 32.753 64.3442 32.6085 64.6675C32.5535 64.8119 32.5191 64.9632 32.4985 65.2453ZM36.2955 62.3356C36.5432 62.3356 36.7151 62.5076 36.7151 62.7552C36.7151 63.0028 36.5432 63.1748 36.2955 63.1748C36.0479 63.1748 35.8759 63.0028 35.8759 62.7483C35.8759 62.5076 36.0548 62.3356 36.2955 62.3356ZM36.6257 67.3501H35.986V64.3373H35.4495V63.8489H35.7246C36.1236 63.8489 36.3231 63.8076 36.4813 63.7045H36.6257V67.3501ZM39.686 66.8548V67.3157C39.4727 67.3982 39.3145 67.4258 39.1013 67.4258C38.3309 67.4258 37.9732 67.0474 37.9732 66.2495V64.2479H37.4436V63.787H37.5743C37.8975 63.787 38.0282 63.6907 38.1177 63.3605L38.214 63.0166H38.6129V63.787H39.5897V64.2479H38.6129V66.3389C38.6129 66.7654 38.7849 66.9443 39.1976 66.9443C39.3558 66.9443 39.4659 66.9236 39.686 66.8548ZM43.2678 65.713H40.9153C40.9153 66.6141 41.1973 66.958 41.954 66.958C42.3323 66.958 42.5318 66.903 43.1096 66.6416V67.1713C42.6762 67.3776 42.346 67.4602 41.9402 67.4602C40.8121 67.4602 40.2343 66.8273 40.2343 65.5961C40.2343 64.3854 40.7915 63.7251 41.8095 63.7251C42.7519 63.7251 43.2678 64.3235 43.2678 65.4241V65.713ZM40.9153 65.2453H42.5799C42.5386 64.4542 42.3392 64.1791 41.8026 64.1791C41.4243 64.1791 41.1698 64.3442 41.0254 64.6675C40.9703 64.8119 40.9359 64.9632 40.9153 65.2453ZM43.8526 67.3501V66.8892H44.4028V64.3373H43.8663V63.8489H44.1415C44.5404 63.8489 44.7399 63.8076 44.8981 63.7045H45.0425V64.3098C45.4553 63.9521 45.8336 63.7595 46.2119 63.7251V64.3442C45.7304 64.3923 45.3314 64.4955 45.0425 64.6468V66.8892H45.6479V67.3501H43.8526ZM49.7097 65.713H47.3572C47.3572 66.6141 47.6393 66.958 48.3959 66.958C48.7742 66.958 48.9737 66.903 49.5515 66.6416V67.1713C49.1182 67.3776 48.788 67.4602 48.3821 67.4602C47.2541 67.4602 46.6763 66.8273 46.6763 65.5961C46.6763 64.3854 47.2334 63.7251 48.2515 63.7251C49.1938 63.7251 49.7097 64.3235 49.7097 65.4241V65.713ZM47.3572 65.2453H49.0219C48.9806 64.4542 48.7811 64.1791 48.2446 64.1791C47.8663 64.1791 47.6117 64.3442 47.4673 64.6675C47.4123 64.8119 47.3779 64.9632 47.3572 65.2453ZM52.3636 67.1093V66.5247C52.9001 66.8204 53.2784 66.9305 53.7531 66.9305C54.4134 66.9305 54.7849 66.6485 54.7849 66.1463C54.7849 65.885 54.6886 65.6855 54.4753 65.5066C54.324 65.3828 54.2621 65.3416 53.7049 65.0251C53.2647 64.7775 53.0308 64.6124 52.8657 64.4405C52.625 64.186 52.5012 63.8833 52.5012 63.5187C52.5012 62.7208 53.079 62.2324 54.0213 62.2324C54.4203 62.2324 54.7986 62.315 55.1907 62.4801V63.051C54.7229 62.824 54.4203 62.7483 54.0076 62.7483C53.4229 62.7483 53.1134 62.996 53.1134 63.4637C53.1134 63.8764 53.2991 64.0965 53.9938 64.4749C54.6542 64.8394 54.7229 64.8807 54.9431 65.0733C55.2801 65.3622 55.4383 65.6992 55.4383 66.0982C55.4383 66.9236 54.7917 67.4464 53.7737 67.4464C53.2716 67.4464 52.8726 67.3501 52.3636 67.1093ZM58.1923 66.8548V67.3157C57.979 67.3982 57.8208 67.4258 57.6076 67.4258C56.8372 67.4258 56.4795 67.0474 56.4795 66.2495V64.2479H55.9499V63.787H56.0806C56.4038 63.787 56.5345 63.6907 56.624 63.3605L56.7203 63.0166H57.1192V63.787H58.096V64.2479H57.1192V66.3389C57.1192 66.7654 57.2912 66.9443 57.7039 66.9443C57.8621 66.9443 57.9722 66.9236 58.1923 66.8548ZM61.9185 66.8892V67.3157C61.7603 67.3707 61.5952 67.3982 61.4645 67.3982C61.1275 67.3982 60.928 67.2332 60.8386 66.8824C60.4671 67.2813 60.1095 67.4602 59.6761 67.4602C59.0502 67.4602 58.6856 67.0956 58.6856 66.4559C58.6856 65.9194 58.9126 65.6236 59.4147 65.4791C59.738 65.3828 59.9375 65.3622 60.818 65.3003V65.0045C60.818 64.4473 60.6185 64.2272 60.1232 64.2272C59.7518 64.2272 59.4147 64.3166 58.9057 64.5436V64.0277C59.3391 63.8214 59.7243 63.7251 60.1576 63.7251C61.0518 63.7251 61.4577 64.124 61.4577 65.0114V66.6141C61.4577 66.8411 61.5264 66.9167 61.719 66.9167C61.7947 66.9167 61.8429 66.9099 61.9185 66.8892ZM60.818 66.4765V65.7061L60.7217 65.713L60.4328 65.7336C59.5798 65.7955 59.3253 65.9537 59.3253 66.4284C59.3253 66.8273 59.4766 66.9924 59.8412 66.9924C60.1782 66.9924 60.5084 66.8204 60.818 66.4765ZM64.52 66.8548V67.3157C64.3068 67.3982 64.1486 67.4258 63.9353 67.4258C63.1649 67.4258 62.8073 67.0474 62.8073 66.2495V64.2479H62.2776V63.787H62.4083C62.7316 63.787 62.8623 63.6907 62.9517 63.3605L63.048 63.0166H63.447V63.787H64.4237V64.2479H63.447V66.3389C63.447 66.7654 63.6189 66.9443 64.0316 66.9443C64.1898 66.9443 64.2999 66.9236 64.52 66.8548ZM65.825 62.3356C66.0726 62.3356 66.2446 62.5076 66.2446 62.7552C66.2446 63.0028 66.0726 63.1748 65.825 63.1748C65.5774 63.1748 65.4054 63.0028 65.4054 62.7483C65.4054 62.5076 65.5843 62.3356 65.825 62.3356ZM66.1552 67.3501H65.5155V64.3373H64.9789V63.8489H65.2541C65.653 63.8489 65.8525 63.8076 66.0107 63.7045H66.1552V67.3501ZM68.7408 63.7251C69.8345 63.7251 70.3848 64.351 70.3848 65.5892C70.3848 66.8342 69.8345 67.4602 68.7408 67.4602C67.6471 67.4602 67.1037 66.8342 67.1037 65.5685C67.1037 64.3579 67.6678 63.7251 68.7408 63.7251ZM68.7408 64.1791C68.0598 64.1791 67.7916 64.5712 67.7916 65.5754C67.7916 66.6141 68.053 67.0062 68.7408 67.0062C69.4356 67.0062 69.6969 66.6141 69.6969 65.5892C69.6969 64.5712 69.4287 64.1791 68.7408 64.1791ZM71.3344 67.3501V63.8764C71.5477 63.8695 71.754 63.8008 71.8641 63.7045H71.9741V64.2891C72.49 63.8764 72.8339 63.7251 73.2742 63.7251C73.8932 63.7251 74.2509 64.1309 74.2509 64.8257V67.3501H73.6112V64.9151C73.6112 64.4611 73.4393 64.2547 73.0609 64.2547C72.7308 64.2547 72.5244 64.3304 71.9741 64.6675V67.3501H71.3344ZM78.198 65.713H75.8455C75.8455 66.6141 76.1275 66.958 76.8842 66.958C77.2625 66.958 77.462 66.903 78.0398 66.6416V67.1713C77.6064 67.3776 77.2763 67.4602 76.8704 67.4602C75.7423 67.4602 75.1645 66.8273 75.1645 65.5961C75.1645 64.3854 75.7217 63.7251 76.7397 63.7251C77.6821 63.7251 78.198 64.3235 78.198 65.4241V65.713ZM75.8455 65.2453H77.5101C77.4689 64.4542 77.2694 64.1791 76.7329 64.1791C76.3545 64.1791 76.1 64.3442 75.9556 64.6675C75.9006 64.8119 75.8662 64.9632 75.8455 65.2453ZM79.1198 67.3501V63.8764C79.3331 63.8695 79.5394 63.8008 79.6495 63.7045H79.7595V64.2891C80.2754 63.8764 80.6194 63.7251 81.0596 63.7251C81.6787 63.7251 82.0363 64.1309 82.0363 64.8257V67.3501H81.3966V64.9151C81.3966 64.4611 81.2247 64.2547 80.8463 64.2547C80.5162 64.2547 80.3098 64.3304 79.7595 64.6675V67.3501H79.1198Z" fill="black"/>
<path d="M113.812 67.3501H113.082L112.532 65.8574H110.709L110.152 67.3501H109.513L111.473 62.3219H111.879L113.812 67.3501ZM112.346 65.3416L111.631 63.3812L110.902 65.3416H112.346ZM114.58 67.3501V62.3219C114.794 62.315 115 62.2462 115.11 62.1499H115.22V64.2891C115.743 63.8558 116.045 63.7251 116.486 63.7251C117.277 63.7251 117.745 64.3992 117.745 65.5479C117.745 66.2564 117.579 66.7517 117.235 67.0956C116.995 67.3363 116.685 67.4602 116.341 67.4602C115.935 67.4602 115.55 67.3088 115.124 66.9718L114.993 67.3501H114.58ZM115.22 64.6675V66.6554C115.605 66.8961 115.839 66.9718 116.183 66.9718C116.795 66.9718 117.05 66.5591 117.05 65.5892C117.05 64.6262 116.83 64.2547 116.259 64.2547C115.935 64.2547 115.791 64.3098 115.22 64.6675ZM118.327 64.2479V63.787H118.863V63.5187C118.863 62.6383 119.324 62.143 120.129 62.143H120.487V62.652C120.384 62.6314 120.315 62.6245 120.232 62.6245C119.744 62.6245 119.503 62.8997 119.503 63.4637V63.787H120.37V64.2479H119.503V67.3501H118.863V64.2479H118.327ZM124.067 66.8892V67.3157C123.909 67.3707 123.744 67.3982 123.613 67.3982C123.276 67.3982 123.077 67.2332 122.987 66.8824C122.616 67.2813 122.258 67.4602 121.825 67.4602C121.199 67.4602 120.834 67.0956 120.834 66.4559C120.834 65.9194 121.061 65.6236 121.563 65.4791C121.887 65.3828 122.086 65.3622 122.967 65.3003V65.0045C122.967 64.4473 122.767 64.2272 122.272 64.2272C121.9 64.2272 121.563 64.3166 121.054 64.5436V64.0277C121.488 63.8214 121.873 63.7251 122.306 63.7251C123.2 63.7251 123.606 64.124 123.606 65.0114V66.6141C123.606 66.8411 123.675 66.9167 123.868 66.9167C123.943 66.9167 123.991 66.9099 124.067 66.8892ZM122.967 66.4765V65.7061L122.87 65.713L122.581 65.7336C121.728 65.7955 121.474 65.9537 121.474 66.4284C121.474 66.8273 121.625 66.9924 121.99 66.9924C122.327 66.9924 122.657 66.8204 122.967 66.4765ZM124.791 67.3501V62.3219C125.004 62.315 125.21 62.2462 125.32 62.1499H125.43V64.2891C125.953 63.8695 126.29 63.7251 126.73 63.7251C127.35 63.7251 127.707 64.1309 127.707 64.8257V67.3501H127.068V64.8738C127.068 64.468 126.882 64.2547 126.517 64.2547C126.187 64.2547 125.981 64.3304 125.43 64.6675V67.3501H124.791ZM128.518 67.3501V66.8892H129.068V64.3373H128.531V63.8489H128.807C129.206 63.8489 129.405 63.8076 129.563 63.7045H129.708V64.3098C130.12 63.9521 130.499 63.7595 130.877 63.7251V64.3442C130.396 64.3923 129.997 64.4955 129.708 64.6468V66.8892H130.313V67.3501H128.518ZM133.587 66.8548V67.3157C133.374 67.3982 133.216 67.4258 133.003 67.4258C132.232 67.4258 131.875 67.0474 131.875 66.2495V64.2479H131.345V63.787H131.476C131.799 63.787 131.93 63.6907 132.019 63.3605L132.115 63.0166H132.514V63.787H133.491V64.2479H132.514V66.3389C132.514 66.7654 132.686 66.9443 133.099 66.9443C133.257 66.9443 133.367 66.9236 133.587 66.8548ZM136.955 62.3356C137.202 62.3356 137.374 62.5076 137.374 62.7552C137.374 63.0028 137.202 63.1748 136.955 63.1748C136.707 63.1748 136.535 63.0028 136.535 62.7483C136.535 62.5076 136.714 62.3356 136.955 62.3356ZM137.285 67.3501H136.645V64.3373H136.109V63.8489H136.384C136.783 63.8489 136.982 63.8076 137.14 63.7045H137.285V67.3501ZM138.467 67.3501V63.8764C138.68 63.8695 138.887 63.8008 138.997 63.7045H139.107V64.2891C139.623 63.8764 139.967 63.7251 140.407 63.7251C141.026 63.7251 141.384 64.1309 141.384 64.8257V67.3501H140.744V64.9151C140.744 64.4611 140.572 64.2547 140.194 64.2547C139.864 64.2547 139.657 64.3304 139.107 64.6675V67.3501H138.467ZM144.717 67.6321V67.0818C146.217 66.9993 147.001 66.3252 147.035 65.0733C146.671 65.3484 146.334 65.4585 145.866 65.4585C144.876 65.4585 144.332 64.9357 144.332 63.9796C144.332 63.0097 144.992 62.37 145.99 62.37C147.125 62.37 147.744 63.2092 147.744 64.7431C147.744 65.8781 147.352 66.6554 146.533 67.1437C146.031 67.4395 145.522 67.5771 144.717 67.6321ZM147.035 64.6055C147.035 63.3674 146.726 62.8653 145.955 62.8653C145.309 62.8653 145.041 63.1886 145.041 63.9727C145.041 64.7156 145.274 64.9701 145.969 64.9701C146.389 64.9701 146.671 64.8738 147.035 64.6055ZM150.78 67.3501V63.8764C150.993 63.8695 151.2 63.8008 151.31 63.7045H151.42V64.2754C151.929 63.8558 152.218 63.7251 152.63 63.7251C153.043 63.7251 153.27 63.8971 153.422 64.3166C153.965 63.8902 154.336 63.7251 154.756 63.7251C155.32 63.7251 155.643 64.124 155.643 64.8257V67.3501H155.004V64.8394C155.004 64.4473 154.852 64.2547 154.543 64.2547C154.226 64.2547 154.047 64.3235 153.532 64.6331V67.3501H152.892V64.8807C152.892 64.4405 152.747 64.2547 152.417 64.2547C152.101 64.2547 151.936 64.3166 151.42 64.6331V67.3501H150.78ZM157.315 62.3356C157.563 62.3356 157.735 62.5076 157.735 62.7552C157.735 63.0028 157.563 63.1748 157.315 63.1748C157.067 63.1748 156.895 63.0028 156.895 62.7483C156.895 62.5076 157.074 62.3356 157.315 62.3356ZM157.645 67.3501H157.005V64.3373H156.469V63.8489H156.744C157.143 63.8489 157.342 63.8076 157.501 63.7045H157.645V67.3501ZM158.828 67.3501V63.8764C159.041 63.8695 159.247 63.8008 159.357 63.7045H159.467V64.2891C159.983 63.8764 160.327 63.7251 160.767 63.7251C161.386 63.7251 161.744 64.1309 161.744 64.8257V67.3501H161.104V64.9151C161.104 64.4611 160.932 64.2547 160.554 64.2547C160.224 64.2547 160.018 64.3304 159.467 64.6675V67.3501H158.828Z" fill="black"/>
<path d="M6.93928 42V24.1537H13.9354C17.8385 24.1537 19.9005 25.7248 19.9005 28.7196C19.9005 30.7325 19.115 31.7635 16.9548 32.5245C19.6796 33.0646 20.907 34.4147 20.907 36.9431C20.907 40.2571 18.4522 42 13.7881 42H6.93928ZM11.2597 38.8824H13.5427C15.7274 38.8824 16.5866 38.146 16.5866 36.3294C16.5866 34.6602 15.7765 33.9483 13.8618 33.9483H11.2597V38.8824ZM11.2597 31.2971H13.5672C15.0646 31.2971 15.7274 30.6589 15.7274 29.2597C15.7274 27.885 15.0892 27.2713 13.6654 27.2713H11.2597V31.2971ZM22.6348 42V39.4961H24.2549V31.9354H22.6593V29.1615H23.7149C25.5559 29.1615 26.4151 29.0142 27.0288 28.5478H28.1826V31.0517C29.3118 29.6279 30.8337 28.7442 32.4048 28.6214V32.23C30.7846 32.3281 29.1645 32.6227 28.1826 32.9909V39.4961H30.3428V42H22.6348ZM43.0925 42L42.4543 40.0607C40.9568 41.7545 39.7049 42.3928 38.0111 42.3928C35.6545 42.3928 34.3289 40.8217 34.3289 38.0723V29.186L38.2811 28.8424V37.0904C38.2811 38.6615 38.6739 39.177 39.8522 39.177C40.6868 39.177 41.2514 38.9806 42.2333 38.3424V29.186L46.1855 28.8424V42H43.0925ZM48.283 42L52.6771 35.2984L48.5531 28.9405H52.9717L55.3283 32.8927L57.6112 28.9405H61.2443L57.2676 35.1511L61.7844 42H57.3657L54.6409 37.5323L51.9161 42H48.283ZM74.69 36.3294H66.4665C66.5892 38.686 67.3257 39.3979 69.7559 39.3979C71.106 39.3979 72.0634 39.2015 73.9536 38.5142V41.4599C72.2843 42.1227 70.8851 42.3928 69.2895 42.3928C64.4781 42.3928 62.3179 40.2571 62.3179 35.5194C62.3179 32.9418 62.9807 31.2235 64.4045 29.9961C65.5337 29.0142 66.982 28.5478 68.7985 28.5478C72.7016 28.5478 74.69 30.8062 74.69 35.2002V36.3294ZM66.4419 34.1447H70.7133C70.6151 31.9845 70.1241 31.248 68.7249 31.248C67.252 31.248 66.5892 32.0827 66.4419 34.1447ZM81.3507 42H77.3985V26.8294H75.7784V24.0801H76.883C78.7486 24.0801 79.5833 23.9082 80.197 23.4418H81.3507V42ZM89.1178 42H85.1656V26.8294H83.5455V24.0801H84.6501C86.5157 24.0801 87.3504 23.9082 87.9641 23.4418H89.1178V42ZM104.2 36.3294H95.9766C96.0994 38.686 96.8358 39.3979 99.266 39.3979C100.616 39.3979 101.574 39.2015 103.464 38.5142V41.4599C101.794 42.1227 100.395 42.3928 98.7996 42.3928C93.9883 42.3928 91.828 40.2571 91.828 35.5194C91.828 32.9418 92.4908 31.2235 93.9146 29.9961C95.0438 29.0142 96.4921 28.5478 98.3087 28.5478C102.212 28.5478 104.2 30.8062 104.2 35.2002V36.3294ZM95.9521 34.1447H100.223C100.125 31.9845 99.6343 31.248 98.235 31.248C96.7622 31.248 96.0994 32.0827 95.9521 34.1447ZM106.164 41.509V38.6369C107.808 39.2997 108.913 39.5452 110.386 39.5452C111.932 39.5452 112.522 39.2261 112.522 38.3915C112.522 38.0478 112.374 37.8023 112.006 37.5814C111.711 37.4096 111.711 37.4096 110.067 36.9677C107.17 36.1331 106.164 35.053 106.164 32.7209C106.164 29.9716 107.956 28.5478 111.417 28.5478C112.742 28.5478 113.724 28.7196 115.369 29.2106V32.1563C113.749 31.5426 112.816 31.3462 111.613 31.3462C110.214 31.3462 109.6 31.6654 109.6 32.3527C109.6 32.7946 109.797 33.0646 110.288 33.3101C110.656 33.4819 110.705 33.5064 112.448 33.9483C115.05 34.6111 116.081 35.7648 116.081 37.9987C116.081 40.8217 114.264 42.2946 110.73 42.2946C109.011 42.2946 107.636 42.0491 106.164 41.509ZM117.445 35.323V32.3036H123.582V35.323H117.445ZM125.959 42L126.425 24.1537H131.286L135.631 34.3411L140.074 24.1537H145.008V42H140.687V30.2416L136.269 40.1589H133.961L129.813 30.4871L129.543 42H125.959ZM151.019 23.2209C152.246 23.2209 153.13 24.1046 153.13 25.3075C153.13 26.5349 152.246 27.4186 151.044 27.4186C149.816 27.4186 148.932 26.5349 148.932 25.2829C148.932 24.1046 149.841 23.2209 151.019 23.2209ZM153.032 42H149.08V31.9354H147.484V29.1615H148.564C150.405 29.1615 151.24 29.0142 151.878 28.5478H153.032V42ZM168.531 42H165.561L164.972 40.3307C163.253 41.8527 162.075 42.3928 160.381 42.3928C157.288 42.3928 155.619 40.0116 155.619 35.593C155.619 31.1008 157.435 28.646 160.749 28.646C162.198 28.646 163.376 29.0878 164.579 30.0697V24.2274C166.101 24.2028 167.132 23.9328 167.623 23.4418H168.531V42ZM164.579 38.7597V32.4263C163.597 31.8863 163.057 31.7144 162.173 31.7144C160.381 31.7144 159.718 32.8191 159.718 35.7894C159.718 38.6124 160.357 39.6434 162.026 39.6434C162.934 39.6434 163.597 39.4225 164.579 38.7597ZM174.296 23.2209C175.524 23.2209 176.407 24.1046 176.407 25.3075C176.407 26.5349 175.524 27.4186 174.321 27.4186C173.094 27.4186 172.21 26.5349 172.21 25.2829C172.21 24.1046 173.118 23.2209 174.296 23.2209ZM176.309 42H172.357V31.9354H170.761V29.1615H171.842C173.683 29.1615 174.517 29.0142 175.156 28.5478H176.309V42Z" fill="white"/>
<path d="M18.2785 77.0002C18.2785 75.8206 17.3815 74.8502 16.2326 74.7336L16.0002 74.7219C14.742 74.7219 13.7219 75.7421 13.7219 77.0002L13.7336 77.2327C13.8423 78.3049 14.6946 79.1579 15.7668 79.2668L16.0002 79.2786C17.1798 79.2785 18.1503 78.3815 18.2668 77.2327L18.2785 77.0002ZM19.5285 77.0002C19.5284 78.9486 17.9486 80.5285 16.0002 80.5286C14.0517 80.5286 12.472 78.9487 12.4719 77.0002C12.4719 75.0517 14.0517 73.4719 16.0002 73.4719C17.9486 73.472 19.5285 75.0518 19.5285 77.0002Z" fill="white"/>
<path d="M16.2072 72.9768C18.3356 73.0847 20.0285 74.845 20.0285 77.0002L20.0236 77.2073C19.9192 79.267 18.267 80.9193 16.2072 81.0237L16.0002 81.0286C13.7756 81.0286 11.972 79.2248 11.9719 77.0002C11.9719 74.7756 13.7755 72.9719 16.0002 72.9719L16.2072 72.9768ZM15.9963 75.2219C15.0161 75.224 14.2219 76.0195 14.2219 77.0002L14.2316 77.1877C14.3186 78.0191 14.9799 78.6802 15.8107 78.7678L16.0031 78.7776C16.9202 78.776 17.6744 78.0803 17.7678 77.1877L17.7785 77.0002C17.7785 76.0818 17.0813 75.3251 16.1877 75.2317L15.9963 75.2219Z" stroke="#2F3A44" stroke-opacity="0.25"/>
<circle cx="16" cy="91.0001" r="2.3225" fill="white" stroke="#8A8B98"/>
<circle cx="16" cy="105" r="2.3225" fill="white" stroke="#8A8B98"/>
<circle cx="15.8225" cy="118.823" r="2.3225" fill="white" stroke="#8A8B98"/>
<path d="M18.2781 77C18.2781 78.2582 17.2582 79.2782 16 79.2782C14.7418 79.2782 13.7219 78.2582 13.7219 77C13.7219 75.7419 14.7418 74.7219 16 74.7219C17.2582 74.7219 18.2781 75.7419 18.2781 77Z" fill="#2F3A44"/>
<path d="M185.667 118.364H189V118.682C189 118.858 188.851 119 188.667 119H186C185.816 119 185.667 118.858 185.667 118.682V118.364Z" fill="black"/>
<path d="M197 118.364H200.333V118.682C200.333 118.858 200.184 119 200 119H197.333C197.149 119 197 118.858 197 118.682V118.364Z" fill="black"/>
<path fill-rule="evenodd" clip-rule="evenodd" d="M185.333 112C185.149 112 185 112.142 185 112.318V118.364H201V112.318C201 112.142 200.851 112 200.667 112H185.333ZM199.333 113.273H186.667C186.483 113.273 186.333 113.415 186.333 113.591V117.091H199.667V113.591C199.667 113.415 199.517 113.273 199.333 113.273Z" fill="black"/>
<path d="M203.408 118.5V116.757C205.642 114.741 206.132 114.269 206.967 113.343C208.275 111.872 208.692 110.964 208.692 109.584C208.692 108.331 208.129 107.75 206.876 107.75C205.896 107.75 205.079 108.004 203.717 108.767V106.388C204.843 105.679 206.041 105.353 207.476 105.353C210.309 105.353 211.798 106.751 211.798 109.42C211.798 110.946 211.344 112.053 210.091 113.506C209.528 114.16 208.874 114.795 207.385 116.139H212.052L211.798 118.5H203.408ZM214.151 119.353V117.047C216.149 116.902 217.075 116.739 218.11 116.375C219.508 115.867 220.071 115.231 220.071 114.16C220.071 113.27 219.526 112.834 218.401 112.834C217.874 112.834 217.329 112.907 216.349 113.088V111C219.018 110.492 219.599 110.129 219.599 108.93C219.599 108.022 219.072 107.641 217.856 107.641C216.911 107.641 216.004 107.877 214.605 108.494V106.224C215.804 105.643 217.111 105.353 218.528 105.353C221.233 105.353 222.668 106.424 222.668 108.458C222.668 109.929 222.069 110.691 220.398 111.4C221.252 111.509 221.506 111.581 221.942 111.817C222.813 112.271 223.231 113.016 223.231 114.142C223.231 116.357 221.96 117.792 219.29 118.573C217.838 119.008 216.585 119.19 214.151 119.353Z" fill="black"/>
<path d="M203.408 83.5V81.7567C205.642 79.741 206.132 79.2689 206.967 78.3427C208.275 76.8718 208.692 75.9638 208.692 74.5837C208.692 73.3307 208.129 72.7496 206.876 72.7496C205.896 72.7496 205.079 73.0039 203.717 73.7666V71.3877C204.843 70.6795 206.041 70.3526 207.476 70.3526C210.309 70.3526 211.798 71.7509 211.798 74.4203C211.798 75.9457 211.344 77.0534 210.091 78.5062C209.528 79.1599 208.874 79.7955 207.385 81.1393H212.052L211.798 83.5H203.408ZM222.595 83.5H219.708V81.0303H213.77V79.3415L219.109 69.9349H221.851L216.766 79.0146H219.708V75.9275L222.595 75.4917V79.0146H223.885V81.0303H222.595V83.5Z" fill="black"/>
<path d="M190.5 86V68M190.5 68L196.5 74M190.5 68L184.5 74" stroke="black" stroke-width="1.5" stroke-linecap="round" stroke-linejoin="round"/>
<defs>
<filter id="filter0_d_576_2" x="1.6" y="53.6" width="169.8" height="79.8" filterUnits="userSpaceOnUse" color-interpolation-filters="sRGB">
<feFlood flood-opacity="0" result="BackgroundImageFix"/>
<feColorMatrix in="SourceAlpha" type="matrix" values="0 0 0 0 0 0 0 0 0 0 0 0 0 0 0 0 0 0 127 0" result="hardAlpha"/>
<feOffset/>
<feGaussianBlur stdDeviation="1.7"/>
<feComposite in2="hardAlpha" operator="out"/>
<feColorMatrix type="matrix" values="0 0 0 0 0 0 0 0 0 0 0 0 0 0 0 0 0 0 0.25 0"/>
<feBlend mode="normal" in2="BackgroundImageFix" result="effect1_dropShadow_576_2"/>
<feBlend mode="normal" in="SourceGraphic" in2="effect1_dropShadow_576_2" result="shape"/>
</filter>
<filter id="filter1_d_576_2" x="168.6" y="53.6" width="69.8" height="79.8" filterUnits="userSpaceOnUse" color-interpolation-filters="sRGB">
<feFlood flood-opacity="0" result="BackgroundImageFix"/>
<feColorMatrix in="SourceAlpha" type="matrix" values="0 0 0 0 0 0 0 0 0 0 0 0 0 0 0 0 0 0 127 0" result="hardAlpha"/>
<feOffset/>
<feGaussianBlur stdDeviation="1.7"/>
<feComposite in2="hardAlpha" operator="out"/>
<feColorMatrix type="matrix" values="0 0 0 0 0 0 0 0 0 0 0 0 0 0 0 0 0 0 0.25 0"/>
<feBlend mode="normal" in2="BackgroundImageFix" result="effect1_dropShadow_576_2"/>
<feBlend mode="normal" in="SourceGraphic" in2="effect1_dropShadow_576_2" result="shape"/>
</filter>
</defs>
</svg>
