<svg width="240" height="135" viewBox="0 0 240 135" fill="none" xmlns="http://www.w3.org/2000/svg">
<g clip-path="url(#clip0_577_32)">
<rect width="240" height="135" fill="#D6DBE3"/>
<g filter="url(#filter0_d_577_32)">
<path d="M5 59C5 57.8954 5.89543 57 7 57H234C235.105 57 236 57.8954 236 59V113H5V59Z" fill="white"/>
<path d="M5 113H236V129C236 130.105 235.105 131 234 131H7C5.89543 131 5 130.105 5 129V113Z" fill="white"/>
</g>
<rect width="240" height="15" fill="#131516"/>
<path d="M6.22739 10.4871V4.9987H5.40258V3.98577H8.77055V4.9987H7.95556V10.4871H8.77055V11.5H5.40258V10.4871H6.22739ZM14.8095 4.12014V5.53616C14.2105 5.2881 13.6901 5.17441 13.1009 5.17441C11.8146 5.17441 11.3237 5.89792 11.3237 7.76873C11.3237 9.56718 11.8343 10.2907 13.0911 10.2907C13.6901 10.2907 14.1614 10.1873 14.8488 9.9186V11.2416C14.3087 11.5103 13.6705 11.655 12.9929 11.655C11.8048 11.655 10.8524 11.2623 10.2534 10.5181C9.7428 9.87726 9.49732 8.9987 9.49732 7.77906C9.49732 6.34237 9.85081 5.35012 10.6069 4.65761C11.2157 4.09947 12.0503 3.81006 13.0518 3.81006C13.6803 3.81006 14.24 3.90309 14.8095 4.12014ZM16.0647 11.5V3.98577H20.9645V5.38112H17.7929V7.0142H20.2968V8.3372H17.7929V10.1046H21.2394L21.1216 11.5H16.0647ZM29.4805 3.69637V5.04004C27.5559 5.18474 26.8097 5.83591 26.7606 7.4173C27.1828 6.9832 27.605 6.80748 28.1942 6.80748C29.4118 6.80748 30.0795 7.60335 30.0795 9.04005C30.0795 10.6421 29.127 11.655 27.6149 11.655C26.741 11.655 26.0438 11.2933 25.6019 10.6111C25.219 10.022 25.0324 9.19509 25.0324 8.0478C25.0324 6.24934 25.5921 5.08138 26.7999 4.3682C27.4872 3.9651 28.2531 3.77905 29.4805 3.69637ZM26.7606 8.3062V8.41989V8.47157C26.7606 9.92894 26.9864 10.4354 27.6443 10.4354C28.1844 10.4354 28.4004 10.0633 28.4004 9.13307C28.4004 8.26485 28.2138 7.99612 27.6247 7.99612C27.2908 7.99612 27.0454 8.0788 26.7606 8.3062ZM30.9594 11.5V10.5077C32.1671 9.36046 32.4322 9.09173 32.8839 8.56459C33.5909 7.72738 33.8167 7.21059 33.8167 6.42505C33.8167 5.71187 33.5123 5.38112 32.8348 5.38112C32.3046 5.38112 31.8627 5.52583 31.1263 5.95994V4.60593C31.7351 4.20283 32.3831 4.01678 33.1588 4.01678C34.6906 4.01678 35.4958 4.81265 35.4958 6.33203C35.4958 7.20025 35.2503 7.83074 34.5728 8.65762C34.2684 9.02971 33.9149 9.39147 33.1097 10.1563H35.6333L35.4958 11.5H30.9594ZM41.5307 4.20283L41.4031 5.52583H38.8305L38.6341 7.09689C38.9483 7.00387 39.1741 6.97286 39.4785 6.97286C40.8041 6.97286 41.5307 7.68604 41.5307 8.97803C41.5307 10.3217 40.8827 11.1589 39.4982 11.6034C38.7716 11.8411 38.2119 11.9134 36.8372 11.9858V10.6731C37.9762 10.5698 38.4672 10.4871 38.9778 10.27C39.5964 10.0013 39.8615 9.6602 39.8615 9.09173C39.8615 8.4509 39.4884 8.20284 38.5457 8.20284C38.0842 8.20284 37.662 8.25452 37.1907 8.36821L37.6914 4.20283H41.5307Z" fill="white"/>
<path d="M48 9.02841V5.97159C48 5.56491 48.4597 5.32835 48.7906 5.56473L50.9304 7.09313C51.2096 7.29254 51.2096 7.70746 50.9304 7.90687L48.7906 9.43527C48.4597 9.67165 48 9.43509 48 9.02841Z" fill="white"/>
<path d="M57.4328 11.5L57.5801 3.98577H58.7584L60.9481 9.30878L63.1574 3.98577H64.3259V11.5H63.3734V5.45348L61.115 10.7248H60.5258L58.4147 5.55684L58.3067 11.5H57.4328ZM69.5836 11.5L69.348 10.7455C68.6901 11.407 68.1795 11.6654 67.502 11.6654C66.9815 11.6654 66.5986 11.4587 66.3629 11.0659C66.1764 10.7661 66.1076 10.4354 66.1076 9.85659V6.19766L67.0208 6.13565V9.87726C67.0208 10.6214 67.2467 10.9212 67.7965 10.9212C68.2777 10.9212 68.6213 10.7661 69.2694 10.2597V6.19766L70.1826 6.13565V11.5H69.5836ZM67.335 4.01678C67.6591 4.01678 67.8849 4.25451 67.8849 4.59559C67.8849 4.93668 67.6591 5.17441 67.3252 5.17441C67.011 5.17441 66.7852 4.93668 66.7852 4.59559C66.7852 4.25451 67.011 4.01678 67.335 4.01678ZM69.0141 4.01678C69.3381 4.01678 69.564 4.25451 69.564 4.59559C69.564 4.93668 69.3381 5.17441 69.0043 5.17441C68.6901 5.17441 68.4642 4.93668 68.4642 4.59559C68.4642 4.25451 68.6901 4.01678 69.0141 4.01678ZM71.8718 11.5V6.28035C72.1762 6.27002 72.4708 6.16666 72.6279 6.02195H72.785V6.90051C73.5214 6.28035 74.0124 6.05296 74.6408 6.05296C75.5245 6.05296 76.0351 6.66278 76.0351 7.70671V11.5H75.1219V7.84108C75.1219 7.15891 74.8764 6.84883 74.3364 6.84883C73.8651 6.84883 73.5705 6.96252 72.785 7.46898V11.5H71.8718ZM81.2375 10.4457V11.2416C80.6483 11.5413 80.2065 11.6654 79.6861 11.6654C78.1248 11.6654 77.3393 10.7248 77.3393 8.83333C77.3393 7.00387 78.1445 6.05296 79.6959 6.05296C80.1868 6.05296 80.5796 6.13565 81.1393 6.3527V7.21059C80.4225 6.89017 80.1672 6.81782 79.6861 6.81782C78.6354 6.81782 78.3114 7.29327 78.3114 8.854C78.3114 10.4147 78.655 10.9109 79.7253 10.9109C80.2261 10.9109 80.393 10.8592 81.2375 10.4457ZM82.5156 11.5V3.94443C82.82 3.93409 83.1146 3.83073 83.2717 3.68603H83.4288V6.90051C84.175 6.27002 84.6562 6.05296 85.2846 6.05296C86.1683 6.05296 86.6789 6.66278 86.6789 7.70671V11.5H85.7657V7.77906C85.7657 7.16924 85.5006 6.84883 84.9802 6.84883C84.5089 6.84883 84.2143 6.96252 83.4288 7.46898V11.5H82.5156ZM92.3133 9.04005H88.9552C88.9552 10.3941 89.3578 10.9109 90.4379 10.9109C90.9779 10.9109 91.2627 10.8282 92.0875 10.4354V11.2313C91.4689 11.5413 90.9976 11.6654 90.4182 11.6654C88.8079 11.6654 87.9831 10.7145 87.9831 8.86434C87.9831 7.04521 88.7784 6.05296 90.2317 6.05296C91.5769 6.05296 92.3133 6.95219 92.3133 8.60594V9.04005ZM88.9552 8.3372H91.3314C91.2725 7.14857 90.9877 6.73513 90.2218 6.73513C89.6818 6.73513 89.3185 6.9832 89.1123 7.46898C89.0337 7.68604 88.9846 7.91343 88.9552 8.3372ZM93.6292 11.5V6.28035C93.9336 6.27002 94.2282 6.16666 94.3853 6.02195H94.5424V6.90051C95.2789 6.28035 95.7698 6.05296 96.3982 6.05296C97.282 6.05296 97.7926 6.66278 97.7926 7.70671V11.5H96.8794V7.84108C96.8794 7.15891 96.6339 6.84883 96.0938 6.84883C95.6225 6.84883 95.328 6.96252 94.5424 7.46898V11.5H93.6292ZM102.512 11.5V3.98577H103.464V7.2726H107.078V3.98577H108.03V11.5H107.078V8.02712H103.464V11.5H102.512ZM109.854 11.5V3.94443C110.158 3.93409 110.453 3.83073 110.61 3.68603H110.767V6.90051C111.513 6.24934 111.945 6.05296 112.574 6.05296C113.703 6.05296 114.371 7.06588 114.371 8.79198C114.371 9.85659 114.135 10.6008 113.644 11.1176C113.3 11.4793 112.858 11.6654 112.368 11.6654C111.788 11.6654 111.238 11.438 110.63 10.9315L110.443 11.5H109.854ZM110.767 7.46898V10.4561C111.317 10.8178 111.651 10.9315 112.142 10.9315C113.016 10.9315 113.379 10.3114 113.379 8.854C113.379 7.40697 113.065 6.84883 112.25 6.84883C111.788 6.84883 111.582 6.93152 110.767 7.46898ZM115.202 6.83849V6.14598H115.968V5.74288C115.968 4.41988 116.626 3.6757 117.775 3.6757H118.285V4.44055C118.138 4.40955 118.04 4.39921 117.922 4.39921C117.225 4.39921 116.881 4.81265 116.881 5.6602V6.14598H118.118V6.83849H116.881V11.5H115.968V6.83849H115.202Z" fill="white"/>
<path d="M209.136 11.5V10.8385H211.081V5.09172L209.46 5.6602V4.9987L211.523 4.15115H212.033V10.8385H213.653V11.5H209.136ZM214.906 11.5V10.9109C215.014 10.8075 215.24 10.5904 215.584 10.2597C217.705 8.22351 218.186 7.46898 218.186 6.17699C218.186 5.26743 217.773 4.81265 216.939 4.81265C216.291 4.81265 215.682 5.04004 215.054 5.51549V4.69895C215.584 4.25451 216.271 4.01678 216.998 4.01678C218.402 4.01678 219.178 4.80231 219.178 6.21834C219.178 7.20025 218.844 7.92377 217.921 8.94702C217.548 9.35012 217.361 9.53617 216.104 10.7248H219.364L219.276 11.5H214.906ZM221.648 10.1977C222.041 10.1977 222.326 10.4974 222.326 10.9109C222.326 11.3243 222.041 11.624 221.648 11.624C221.246 11.624 220.971 11.3243 220.971 10.9005C220.971 10.4974 221.255 10.1977 221.648 10.1977ZM221.648 6.64211C222.041 6.64211 222.326 6.94185 222.326 7.35529C222.326 7.76873 222.041 8.06847 221.648 8.06847C221.246 8.06847 220.971 7.76873 220.971 7.34495C220.971 6.94185 221.255 6.64211 221.648 6.64211ZM227.764 11.5H226.811V9.88759H223.365V9.3708L226.703 3.81006H227.597L224.405 9.18475H226.811V6.77648L227.764 6.66278V9.18475H228.746V9.88759H227.764V11.5ZM229.537 8.47157V7.20025C229.537 5.23642 230.46 4.01678 231.953 4.01678C233.445 4.01678 234.368 5.23642 234.368 7.20025V8.47157C234.368 10.4354 233.445 11.655 231.953 11.655C230.46 11.655 229.537 10.4354 229.537 8.47157ZM233.357 8.53359V7.13823C233.357 5.46381 232.934 4.75063 231.953 4.75063C230.971 4.75063 230.548 5.46381 230.548 7.13823V8.53359C230.548 10.208 230.971 10.9212 231.953 10.9212C232.934 10.9212 233.357 10.208 233.357 8.53359Z" fill="white"/>
<g filter="url(#filter1_d_577_32)">
<rect x="5" y="19" width="231" height="34" rx="2" fill="white"/>
</g>
<path d="M10.9878 31.3501V26.3494H11.5725L14.3033 30.0707V26.3494H14.9224V31.3501H14.4753L11.6069 27.45V31.3501H10.9878ZM19.149 30.8892V31.3157C18.9908 31.3707 18.8257 31.3982 18.695 31.3982C18.358 31.3982 18.1585 31.2332 18.0691 30.8824C17.6976 31.2813 17.3399 31.4602 16.9066 31.4602C16.2806 31.4602 15.9161 31.0956 15.9161 30.4559C15.9161 29.9194 16.1431 29.6236 16.6452 29.4791C16.9685 29.3828 17.168 29.3622 18.0484 29.3003V29.0045C18.0484 28.4473 17.8489 28.2272 17.3537 28.2272C16.9822 28.2272 16.6452 28.3166 16.1362 28.5436V28.0277C16.5695 27.8214 16.9547 27.7251 17.3881 27.7251C18.2823 27.7251 18.6881 28.124 18.6881 29.0114V30.6141C18.6881 30.8411 18.7569 30.9167 18.9495 30.9167C19.0252 30.9167 19.0733 30.9099 19.149 30.8892ZM18.0484 30.4765V29.7061L17.9521 29.713L17.6632 29.7336C16.8103 29.7955 16.5558 29.9537 16.5558 30.4284C16.5558 30.8273 16.7071 30.9924 17.0717 30.9924C17.4087 30.9924 17.7389 30.8204 18.0484 30.4765ZM16.8309 26.37C17.0579 26.37 17.2161 26.5282 17.2161 26.7552C17.2161 26.9822 17.0579 27.1404 16.824 27.1404C16.6039 27.1404 16.4457 26.9822 16.4457 26.7552C16.4457 26.5282 16.6039 26.37 16.8309 26.37ZM18.0072 26.37C18.2341 26.37 18.3924 26.5282 18.3924 26.7552C18.3924 26.9822 18.2341 27.1404 18.0003 27.1404C17.7802 27.1404 17.622 26.9822 17.622 26.7552C17.622 26.5282 17.7802 26.37 18.0072 26.37ZM22.3696 30.6485V31.1781C21.9568 31.3776 21.6473 31.4602 21.2827 31.4602C20.1891 31.4602 19.6388 30.8342 19.6388 29.5754C19.6388 28.3579 20.2028 27.7251 21.2896 27.7251C21.6336 27.7251 21.9087 27.7801 22.3008 27.9246V28.4955C21.7986 28.2823 21.6198 28.2341 21.2827 28.2341C20.5467 28.2341 20.3197 28.5505 20.3197 29.5892C20.3197 30.6278 20.5605 30.958 21.3103 30.958C21.6611 30.958 21.778 30.9236 22.3696 30.6485ZM23.2649 31.3501V26.3219C23.4781 26.315 23.6845 26.2462 23.7946 26.1499H23.9046V28.2891C24.4274 27.8695 24.7644 27.7251 25.2047 27.7251C25.8237 27.7251 26.1814 28.1309 26.1814 28.8257V31.3501H25.5417V28.8738C25.5417 28.468 25.356 28.2547 24.9914 28.2547C24.6613 28.2547 24.4549 28.3304 23.9046 28.6675V31.3501H23.2649ZM27.1157 31.185V30.6554C27.5284 30.8686 27.8035 30.9374 28.1956 30.9374C28.7046 30.9374 28.9247 30.7929 28.9247 30.4559C28.9247 30.1739 28.8009 30.0638 28.2369 29.8506C27.776 29.6786 27.5834 29.5754 27.4252 29.4241C27.2395 29.2453 27.1501 29.0114 27.1501 28.7294C27.1501 28.0965 27.5834 27.7388 28.3607 27.7388C28.6909 27.7388 28.9385 27.787 29.3374 27.9383V28.5092C28.9041 28.3098 28.6633 28.2479 28.3538 28.2479C27.9342 28.2479 27.7141 28.3923 27.7141 28.6743C27.7141 28.977 27.8242 29.0733 28.4639 29.314C28.8835 29.4722 29.0279 29.541 29.1655 29.6511C29.4131 29.8437 29.5232 30.0707 29.5232 30.4009C29.5232 31.0474 29.0485 31.4326 28.2438 31.4326C27.8448 31.4326 27.4871 31.357 27.1157 31.185ZM32.2699 30.8548V31.3157C32.0566 31.3982 31.8984 31.4258 31.6852 31.4258C30.9148 31.4258 30.5571 31.0474 30.5571 30.2495V28.2479H30.0274V27.787H30.1581C30.4814 27.787 30.6121 27.6907 30.7015 27.3605L30.7978 27.0166H31.1968V27.787H32.1736V28.2479H31.1968V30.3389C31.1968 30.7654 31.3688 30.9443 31.7815 30.9443C31.9397 30.9443 32.0497 30.9236 32.2699 30.8548ZM35.8517 29.713H33.4992C33.4992 30.6141 33.7812 30.958 34.5379 30.958C34.9162 30.958 35.1157 30.903 35.6935 30.6416V31.1713C35.2601 31.3776 34.9299 31.4602 34.5241 31.4602C33.396 31.4602 32.8182 30.8273 32.8182 29.5961C32.8182 28.3854 33.3754 27.7251 34.3934 27.7251C35.3358 27.7251 35.8517 28.3235 35.8517 29.4241V29.713ZM33.4992 29.2453H35.1638C35.1225 28.4542 34.9231 28.1791 34.3865 28.1791C34.0082 28.1791 33.7537 28.3442 33.6092 28.6675C33.5542 28.8119 33.5198 28.9632 33.4992 29.2453ZM38.5056 31.1093V30.5247C39.0421 30.8204 39.4204 30.9305 39.895 30.9305C40.5554 30.9305 40.9268 30.6485 40.9268 30.1463C40.9268 29.885 40.8305 29.6855 40.6173 29.5066C40.4659 29.3828 40.404 29.3416 39.8469 29.0251C39.4066 28.7775 39.1728 28.6124 39.0077 28.4405C38.7669 28.186 38.6431 27.8833 38.6431 27.5187C38.6431 26.7208 39.2209 26.2324 40.1633 26.2324C40.5622 26.2324 40.9406 26.315 41.3326 26.4801V27.051C40.8649 26.824 40.5622 26.7483 40.1495 26.7483C39.5649 26.7483 39.2553 26.996 39.2553 27.4637C39.2553 27.8764 39.441 28.0965 40.1358 28.4749C40.7961 28.8394 40.8649 28.8807 41.085 29.0733C41.4221 29.3622 41.5803 29.6992 41.5803 30.0982C41.5803 30.9236 40.9337 31.4464 39.9157 31.4464C39.4135 31.4464 39.0146 31.3501 38.5056 31.1093ZM44.3342 30.8548V31.3157C44.121 31.3982 43.9628 31.4258 43.7495 31.4258C42.9791 31.4258 42.6215 31.0474 42.6215 30.2495V28.2479H42.0918V27.787H42.2225C42.5458 27.787 42.6765 27.6907 42.7659 27.3605L42.8622 27.0166H43.2612V27.787H44.2379V28.2479H43.2612V30.3389C43.2612 30.7654 43.4331 30.9443 43.8458 30.9443C44.0041 30.9443 44.1141 30.9236 44.3342 30.8548ZM48.0605 30.8892V31.3157C47.9023 31.3707 47.7372 31.3982 47.6065 31.3982C47.2694 31.3982 47.07 31.2332 46.9805 30.8824C46.6091 31.2813 46.2514 31.4602 45.8181 31.4602C45.1921 31.4602 44.8275 31.0956 44.8275 30.4559C44.8275 29.9194 45.0545 29.6236 45.5567 29.4791C45.88 29.3828 46.0794 29.3622 46.9599 29.3003V29.0045C46.9599 28.4473 46.7604 28.2272 46.2652 28.2272C45.8937 28.2272 45.5567 28.3166 45.0477 28.5436V28.0277C45.481 27.8214 45.8662 27.7251 46.2996 27.7251C47.1938 27.7251 47.5996 28.124 47.5996 29.0114V30.6141C47.5996 30.8411 47.6684 30.9167 47.861 30.9167C47.9367 30.9167 47.9848 30.9099 48.0605 30.8892ZM46.9599 30.4765V29.7061L46.8636 29.713L46.5747 29.7336C45.7218 29.7955 45.4673 29.9537 45.4673 30.4284C45.4673 30.8273 45.6186 30.9924 45.9831 30.9924C46.3202 30.9924 46.6504 30.8204 46.9599 30.4765ZM50.662 30.8548V31.3157C50.4487 31.3982 50.2905 31.4258 50.0773 31.4258C49.3069 31.4258 48.9492 31.0474 48.9492 30.2495V28.2479H48.4196V27.787H48.5502C48.8735 27.787 49.0042 27.6907 49.0937 27.3605L49.19 27.0166H49.5889V27.787H50.5657V28.2479H49.5889V30.3389C49.5889 30.7654 49.7609 30.9443 50.1736 30.9443C50.3318 30.9443 50.4419 30.9236 50.662 30.8548ZM51.967 26.3356C52.2146 26.3356 52.3866 26.5076 52.3866 26.7552C52.3866 27.0028 52.2146 27.1748 51.967 27.1748C51.7193 27.1748 51.5474 27.0028 51.5474 26.7483C51.5474 26.5076 51.7262 26.3356 51.967 26.3356ZM52.2971 31.3501H51.6574V28.3373H51.1209V27.8489H51.396C51.795 27.8489 51.9945 27.8076 52.1527 27.7045H52.2971V31.3501ZM54.8828 27.7251C55.9765 27.7251 56.5268 28.351 56.5268 29.5892C56.5268 30.8342 55.9765 31.4602 54.8828 31.4602C53.7891 31.4602 53.2457 30.8342 53.2457 29.5685C53.2457 28.3579 53.8097 27.7251 54.8828 27.7251ZM54.8828 28.1791C54.2018 28.1791 53.9335 28.5712 53.9335 29.5754C53.9335 30.6141 54.1949 31.0062 54.8828 31.0062C55.5775 31.0062 55.8389 30.6141 55.8389 29.5892C55.8389 28.5712 55.5706 28.1791 54.8828 28.1791ZM57.4764 31.3501V27.8764C57.6896 27.8695 57.896 27.8008 58.006 27.7045H58.1161V28.2891C58.632 27.8764 58.9759 27.7251 59.4161 27.7251C60.0352 27.7251 60.3929 28.1309 60.3929 28.8257V31.3501H59.7532V28.9151C59.7532 28.4611 59.5812 28.2547 59.2029 28.2547C58.8727 28.2547 58.6664 28.3304 58.1161 28.6675V31.3501H57.4764Z" fill="black"/>
<path d="M215.72 25.4526V26.0235C215.225 25.824 214.86 25.7483 214.406 25.7483C213.815 25.7483 213.375 25.9409 213.072 26.3193C212.804 26.6563 212.68 27.1584 212.68 27.8738C212.68 29.277 213.223 29.9374 214.386 29.9374C214.695 29.9374 214.97 29.8961 215.28 29.8067V28.4379H214.379V27.9357H215.947V30.1162C215.363 30.357 214.902 30.4533 214.365 30.4533C213.512 30.4533 212.838 30.1644 212.432 29.6141C212.123 29.1945 211.971 28.6305 211.971 27.8738C211.971 26.9865 212.192 26.3537 212.659 25.8859C213.093 25.4526 213.677 25.2324 214.413 25.2324C214.895 25.2324 215.308 25.3012 215.72 25.4526ZM217.785 30.3501H217.145V25.7759H216.609V25.2944H216.884C217.29 25.2944 217.496 25.2531 217.647 25.1499H217.785V30.3501ZM221.816 28.713H219.463C219.463 29.6141 219.745 29.958 220.502 29.958C220.88 29.958 221.08 29.903 221.658 29.6416V30.1713C221.224 30.3776 220.894 30.4602 220.488 30.4602C219.36 30.4602 218.782 29.8273 218.782 28.5961C218.782 27.3854 219.34 26.7251 220.358 26.7251C221.3 26.7251 221.816 27.3235 221.816 28.4241V28.713ZM219.463 28.2453H221.128C221.087 27.4542 220.887 27.1791 220.351 27.1791C219.972 27.1791 219.718 27.3442 219.574 27.6675C219.518 27.8119 219.484 27.9632 219.463 28.2453ZM223.261 25.3356C223.508 25.3356 223.68 25.5076 223.68 25.7552C223.68 26.0028 223.508 26.1748 223.261 26.1748C223.013 26.1748 222.841 26.0028 222.841 25.7483C222.841 25.5076 223.02 25.3356 223.261 25.3356ZM223.591 30.3501H222.951V27.3373H222.414V26.8489H222.69C223.089 26.8489 223.288 26.8076 223.446 26.7045H223.591V30.3501ZM224.56 30.185V29.6554C224.973 29.8686 225.248 29.9374 225.64 29.9374C226.149 29.9374 226.369 29.7929 226.369 29.4559C226.369 29.1739 226.245 29.0638 225.681 28.8506C225.22 28.6786 225.028 28.5754 224.869 28.4241C224.684 28.2453 224.594 28.0114 224.594 27.7294C224.594 27.0965 225.028 26.7388 225.805 26.7388C226.135 26.7388 226.383 26.787 226.782 26.9383V27.5092C226.348 27.3098 226.108 27.2479 225.798 27.2479C225.378 27.2479 225.158 27.3923 225.158 27.6743C225.158 27.977 225.268 28.0733 225.908 28.314C226.328 28.4722 226.472 28.541 226.61 28.6511C226.857 28.8437 226.967 29.0707 226.967 29.4009C226.967 30.0474 226.493 30.4326 225.688 30.4326C225.289 30.4326 224.931 30.357 224.56 30.185Z" fill="black"/>
<path d="M150.778 30.3501H150.049L149.499 28.8574H147.676L147.119 30.3501H146.479L148.439 25.3219H148.845L150.778 30.3501ZM149.313 28.3416L148.597 26.3812L147.868 28.3416H149.313ZM151.547 30.3501V26.8764C151.76 26.8695 151.966 26.8008 152.076 26.7045H152.186V27.2891C152.702 26.8764 153.046 26.7251 153.486 26.7251C154.105 26.7251 154.463 27.1309 154.463 27.8257V30.3501H153.823V27.9151C153.823 27.4611 153.652 27.2547 153.273 27.2547C152.943 27.2547 152.737 27.3304 152.186 27.6675V30.3501H151.547ZM155.611 30.3501V25.3219C155.824 25.315 156.03 25.2462 156.14 25.1499H156.25V28.6167L157.716 26.787H158.431L157.206 28.1971L158.568 30.3501H157.867L156.794 28.6786L156.25 29.3046V30.3501H155.611ZM161.639 30.3501L161.474 29.848C161.013 30.2882 160.655 30.4602 160.18 30.4602C159.816 30.4602 159.548 30.3226 159.382 30.0612C159.252 29.8617 159.204 29.6416 159.204 29.2564V26.8214L159.843 26.7801V29.2702C159.843 29.7654 160.002 29.9649 160.387 29.9649C160.724 29.9649 160.965 29.8617 161.419 29.5247V26.8214L162.058 26.7801V30.3501H161.639ZM163.242 30.3501V26.8764C163.455 26.8695 163.661 26.8008 163.771 26.7045H163.881V27.2891C164.397 26.8764 164.741 26.7251 165.181 26.7251C165.8 26.7251 166.158 27.1309 166.158 27.8257V30.3501H165.518V27.9151C165.518 27.4611 165.346 27.2547 164.968 27.2547C164.638 27.2547 164.432 27.3304 163.881 27.6675V30.3501H163.242ZM166.941 27.2479V26.787H167.478V26.5187C167.478 25.6383 167.938 25.143 168.743 25.143H169.101V25.652C168.998 25.6314 168.929 25.6245 168.846 25.6245C168.358 25.6245 168.117 25.8997 168.117 26.4637V26.787H168.984V27.2479H168.117V30.3501H167.478V27.2479H166.941ZM171.615 29.8548V30.3157C171.402 30.3982 171.244 30.4258 171.03 30.4258C170.26 30.4258 169.902 30.0474 169.902 29.2495V27.2479H169.373V26.787H169.503C169.827 26.787 169.957 26.6907 170.047 26.3605L170.143 26.0166H170.542V26.787H171.519V27.2479H170.542V29.3389C170.542 29.7654 170.714 29.9443 171.127 29.9443C171.285 29.9443 171.395 29.9236 171.615 29.8548ZM174.982 25.3356C175.23 25.3356 175.402 25.5076 175.402 25.7552C175.402 26.0028 175.23 26.1748 174.982 26.1748C174.735 26.1748 174.563 26.0028 174.563 25.7483C174.563 25.5076 174.742 25.3356 174.982 25.3356ZM175.312 30.3501H174.673V27.3373H174.136V26.8489H174.411C174.81 26.8489 175.01 26.8076 175.168 26.7045H175.312V30.3501ZM176.495 30.3501V26.8764C176.708 26.8695 176.915 26.8008 177.025 26.7045H177.135V27.2891C177.651 26.8764 177.994 26.7251 178.435 26.7251C179.054 26.7251 179.411 27.1309 179.411 27.8257V30.3501H178.772V27.9151C178.772 27.4611 178.6 27.2547 178.221 27.2547C177.891 27.2547 177.685 27.3304 177.135 27.6675V30.3501H176.495ZM184.774 27.7431C185.235 27.9564 185.324 28.0114 185.476 28.149C185.716 28.3759 185.827 28.658 185.827 29.0363C185.827 29.9099 185.166 30.4533 184.093 30.4533C183.013 30.4533 182.36 29.9374 182.36 29.0913C182.36 28.4929 182.649 28.1421 183.412 27.805C182.786 27.468 182.539 27.1309 182.539 26.6013C182.539 25.8309 183.13 25.37 184.134 25.37C185.118 25.37 185.661 25.7827 185.661 26.5394C185.661 27.0415 185.393 27.4129 184.774 27.7431ZM183.88 28.0114C183.852 28.0251 183.852 28.0251 183.818 28.0389C183.288 28.2659 183.041 28.6029 183.041 29.112C183.041 29.6554 183.419 29.958 184.107 29.958C184.788 29.958 185.152 29.6691 185.152 29.1395C185.152 28.7749 185.008 28.5479 184.65 28.3553C184.465 28.2521 184.382 28.2109 183.88 28.0114ZM184.327 27.5505C184.809 27.2616 184.98 27.0071 184.98 26.5806C184.98 26.0923 184.698 25.8584 184.1 25.8584C183.508 25.8584 183.206 26.0854 183.206 26.5256C183.206 26.9658 183.433 27.1722 184.327 27.5505ZM188.808 30.3501V26.8764C189.021 26.8695 189.227 26.8008 189.337 26.7045H189.448V27.2754C189.957 26.8558 190.245 26.7251 190.658 26.7251C191.071 26.7251 191.298 26.8971 191.449 27.3166C191.993 26.8902 192.364 26.7251 192.784 26.7251C193.348 26.7251 193.671 27.124 193.671 27.8257V30.3501H193.031V27.8394C193.031 27.4473 192.88 27.2547 192.57 27.2547C192.254 27.2547 192.075 27.3235 191.559 27.6331V30.3501H190.92V27.8807C190.92 27.4405 190.775 27.2547 190.445 27.2547C190.128 27.2547 189.963 27.3166 189.448 27.6331V30.3501H188.808ZM195.343 25.3356C195.59 25.3356 195.762 25.5076 195.762 25.7552C195.762 26.0028 195.59 26.1748 195.343 26.1748C195.095 26.1748 194.923 26.0028 194.923 25.7483C194.923 25.5076 195.102 25.3356 195.343 25.3356ZM195.673 30.3501H195.033V27.3373H194.497V26.8489H194.772C195.171 26.8489 195.37 26.8076 195.528 26.7045H195.673V30.3501ZM196.855 30.3501V26.8764C197.068 26.8695 197.275 26.8008 197.385 26.7045H197.495V27.2891C198.011 26.8764 198.355 26.7251 198.795 26.7251C199.414 26.7251 199.772 27.1309 199.772 27.8257V30.3501H199.132V27.9151C199.132 27.4611 198.96 27.2547 198.582 27.2547C198.252 27.2547 198.045 27.3304 197.495 27.6675V30.3501H196.855Z" fill="black"/>
<path d="M11.1446 44.225V35.3018H17.2448V36.9588H13.3048V39.1927H16.5943V40.7637H13.3048V44.225H11.1446ZM18.2372 44.225V42.973H19.0473V39.1927H18.2495V37.8057H18.7773C19.6978 37.8057 20.1274 37.7321 20.4343 37.4989H21.0111V38.7508C21.5757 38.0389 22.3367 37.5971 23.1223 37.5357V39.34C22.3122 39.389 21.5021 39.5363 21.0111 39.7204V42.973H22.0912V44.225H18.2372ZM30.0307 42.8871V44.1391C29.7238 44.2741 29.3801 44.3354 28.9751 44.3354C28.165 44.3354 27.7109 44.0163 27.4531 43.2676C26.9499 44.0409 26.2626 44.4214 25.4157 44.4214C24.2251 44.4214 23.5255 43.7217 23.5255 42.5189C23.5255 41.4879 23.9796 40.9233 24.9983 40.6655C25.612 40.506 26.0048 40.4692 27.3672 40.4078V40.0518C27.3672 39.3031 27.0726 39.0208 26.2994 39.0208C25.6611 39.0208 25.1334 39.119 24.041 39.4504V37.9285C24.9247 37.6216 25.6611 37.4989 26.4835 37.4989C28.5087 37.4989 29.3433 38.2353 29.3433 40.0396V42.4453C29.3433 42.7889 29.4538 42.9239 29.7361 42.9239C29.8343 42.9239 29.9202 42.9117 30.0307 42.8871ZM27.3672 42.568V41.3283C26.5694 41.3652 26.3485 41.3897 26.0539 41.4633C25.612 41.5861 25.4525 41.807 25.4525 42.3348C25.4525 42.8626 25.6734 43.0958 26.1889 43.0958C26.6062 43.0958 26.999 42.9239 27.3672 42.568ZM31.0015 44.225V37.9039C31.7871 37.8794 32.278 37.7443 32.5235 37.4989H32.9776V38.7017C33.6895 37.9162 34.4382 37.5357 35.2729 37.5357C36.3898 37.5357 37.0403 38.3089 37.0403 39.6223V44.225H35.0642V40.0273C35.0642 39.4504 34.7942 39.1558 34.2419 39.1558C33.8368 39.1558 33.53 39.254 32.9776 39.5732V44.225H31.0015ZM38.5529 44.225V35.3387C39.3139 35.3264 39.8294 35.1914 40.0748 34.9459H40.529V40.3464L42.5665 37.6952H44.6407L42.5174 40.15L44.8371 44.225H42.6892L41.1672 41.5861L40.529 42.3716V44.225H38.5529ZM45.2057 39.0577V37.6952H46.0404V37.4743C46.0404 35.8419 46.9364 34.9336 48.532 34.9336H49.563V36.3697C49.4157 36.3451 49.2684 36.3328 49.1088 36.3328C48.3601 36.3328 48.0165 36.652 48.0165 37.3516V37.6952H49.4034V39.0577H48.0165V44.225H46.0404V39.0577H45.2057ZM54.7999 44.225L54.4808 43.2553C53.7321 44.1022 53.1061 44.4214 52.2592 44.4214C51.0809 44.4214 50.4181 43.6358 50.4181 42.2611V37.818L52.3942 37.6462V41.7702C52.3942 42.5557 52.5906 42.8135 53.1798 42.8135C53.5971 42.8135 53.8794 42.7153 54.3703 42.3962V37.818L56.3464 37.6462V44.225H54.7999ZM57.4443 44.225V42.973H58.2544V39.1927H57.4565V37.8057H57.9843C58.9049 37.8057 59.3345 37.7321 59.6413 37.4989H60.2182V38.7508C60.7828 38.0389 61.5438 37.5971 62.3293 37.5357V39.34C61.5192 39.389 60.7091 39.5363 60.2182 39.7204V42.973H61.2983V44.225H57.4443ZM67.5107 42.7153V44.1391C67.1302 44.2863 66.6638 44.36 66.1606 44.36C64.5282 44.36 63.8408 43.7095 63.8408 42.1507V39.0577H62.9816V37.6952H63.1289C63.7672 37.6952 64.0617 37.4866 64.2213 36.9343L64.4177 36.2224H65.8169V37.6952H67.388V39.0577H65.8169V41.9788C65.8169 42.6539 66.0256 42.8748 66.6761 42.8748C66.9338 42.8748 67.1057 42.838 67.5107 42.7153ZM72.6648 46.2134H71.0078C69.2895 44.5195 68.553 42.8012 68.553 40.4937C68.553 38.1862 69.2895 36.4679 71.0078 34.7741H72.6648C71.2165 36.5047 70.6396 38.1371 70.6396 40.4937C70.6396 42.8503 71.2165 44.4827 72.6648 46.2134ZM73.8667 44.225L74.0999 35.3018H76.5301L78.7026 40.3955L80.9242 35.3018H83.3913V44.225H81.231V38.3458L79.0217 43.3044H77.868L75.7937 38.4685L75.6587 44.225H73.8667ZM91.2205 42.8871V44.1391C90.9136 44.2741 90.57 44.3354 90.1649 44.3354C89.3548 44.3354 88.9007 44.0163 88.643 43.2676C88.1397 44.0409 87.4524 44.4214 86.6055 44.4214C85.4149 44.4214 84.7153 43.7217 84.7153 42.5189C84.7153 41.4879 85.1694 40.9233 86.1882 40.6655C86.8019 40.506 87.1946 40.4692 88.557 40.4078V40.0518C88.557 39.3031 88.2625 39.0208 87.4892 39.0208C86.851 39.0208 86.3232 39.119 85.2308 39.4504V37.9285C86.1145 37.6216 86.851 37.4989 87.6733 37.4989C89.6985 37.4989 90.5331 38.2353 90.5331 40.0396V42.4453C90.5331 42.7889 90.6436 42.9239 90.9259 42.9239C91.0241 42.9239 91.11 42.9117 91.2205 42.8871ZM88.557 42.568V41.3283C87.7592 41.3652 87.5383 41.3897 87.2437 41.4633C86.8019 41.5861 86.6423 41.807 86.6423 42.3348C86.6423 42.8626 86.8632 43.0958 87.3787 43.0958C87.7961 43.0958 88.1888 42.9239 88.557 42.568ZM93.5047 34.8354C94.1184 34.8354 94.5602 35.2773 94.5602 35.8787C94.5602 36.4924 94.1184 36.9343 93.517 36.9343C92.9033 36.9343 92.4614 36.4924 92.4614 35.8664C92.4614 35.2773 92.9155 34.8354 93.5047 34.8354ZM94.5111 44.225H92.535V39.1927H91.7372V37.8057H92.2773C93.1978 37.8057 93.6152 37.7321 93.9343 37.4989H94.5111V44.225ZM96.0869 44.225V37.9039C96.8724 37.8794 97.3634 37.7443 97.6089 37.4989H98.063V38.7017C98.7749 37.9162 99.5236 37.5357 100.358 37.5357C101.475 37.5357 102.126 38.3089 102.126 39.6223V44.225H100.15V40.0273C100.15 39.4504 99.8796 39.1558 99.3272 39.1558C98.9222 39.1558 98.6153 39.254 98.063 39.5732V44.225H96.0869ZM103.172 34.7741H104.829C106.547 36.4679 107.284 38.1862 107.284 40.4937C107.284 42.8012 106.547 44.5195 104.829 46.2134H103.172C104.62 44.4827 105.197 42.8503 105.197 40.4937C105.197 38.1371 104.62 36.5047 103.172 34.7741ZM108.976 44.225V35.3018H111.137V38.8367H114.573V35.3018H116.734V44.225H114.573V40.4692H111.137V44.225H108.976ZM118.477 44.225V35.3387C119.238 35.3264 119.754 35.1914 119.999 34.9459H120.453V38.6035C121.19 37.8425 121.791 37.548 122.589 37.548C124.111 37.548 124.933 38.7385 124.933 40.9478C124.933 43.1571 124.001 44.4214 122.38 44.4214C121.558 44.4214 120.907 44.1513 120.208 43.5131L119.95 44.225H118.477ZM120.453 39.5609V42.6785C120.883 42.973 121.202 43.0835 121.656 43.0835C122.552 43.0835 122.884 42.5189 122.884 40.9847C122.884 39.61 122.564 39.1067 121.718 39.1067C121.288 39.1067 121.006 39.2049 120.453 39.5609ZM125.729 39.0577V37.6952H126.564V37.4743C126.564 35.8419 127.46 34.9336 129.056 34.9336H130.087V36.3697C129.939 36.3451 129.792 36.3328 129.633 36.3328C128.884 36.3328 128.54 36.652 128.54 37.3516V37.6952H129.927V39.0577H128.54V44.225H126.564V39.0577H125.729Z" fill="black"/>
<path d="M11.0587 74.225L11.2919 65.3018H13.7222L15.8946 70.3955L18.1162 65.3018H20.5833V74.225H18.4231V68.3458L16.2138 73.3044H15.06L12.9857 68.4685L12.8507 74.225H11.0587ZM23.5889 64.8354C24.2026 64.8354 24.6444 65.2773 24.6444 65.8787C24.6444 66.4924 24.2026 66.9343 23.6011 66.9343C22.9874 66.9343 22.5456 66.4924 22.5456 65.8664C22.5456 65.2773 22.9997 64.8354 23.5889 64.8354ZM24.5953 74.225H22.6192V69.1927H21.8214V67.8057H22.3615C23.282 67.8057 23.6993 67.7321 24.0184 67.4989H24.5953V74.225ZM30.2215 72.7153V74.1391C29.841 74.2863 29.3746 74.36 28.8713 74.36C27.2389 74.36 26.5516 73.7095 26.5516 72.1507V69.0577H25.6924V67.6952H25.8397C26.4779 67.6952 26.7725 67.4866 26.9321 66.9343L27.1284 66.2224H28.5277V67.6952H30.0987V69.0577H28.5277V71.9788C28.5277 72.6539 28.7363 72.8748 29.3868 72.8748C29.6446 72.8748 29.8164 72.838 30.2215 72.7153ZM34.7349 74.8019V73.2431C36.0851 73.1449 36.711 73.0344 37.4106 72.7889C38.3557 72.4453 38.7362 72.0157 38.7362 71.2915C38.7362 70.6901 38.368 70.3955 37.607 70.3955C37.2511 70.3955 36.8829 70.4446 36.2201 70.5673V69.1558C38.0243 68.8122 38.4171 68.5667 38.4171 67.7566C38.4171 67.1429 38.0612 66.8852 37.2388 66.8852C36.6006 66.8852 35.9869 67.0447 35.0418 67.462V65.9278C35.8518 65.535 36.7356 65.3387 37.6929 65.3387C39.5218 65.3387 40.4914 66.0628 40.4914 67.4375C40.4914 68.4317 40.0864 68.9472 38.9572 69.4259C39.534 69.4995 39.7059 69.5486 40.0004 69.7082C40.5896 70.015 40.8719 70.5182 40.8719 71.2792C40.8719 72.7767 40.0127 73.7463 38.2084 74.2741C37.2265 74.5686 36.3796 74.6914 34.7349 74.8019ZM42.0822 70.6287V69.119C42.0822 66.8115 43.3219 65.3387 45.2612 65.3387C47.2004 65.3387 48.4401 66.8115 48.4401 69.119V70.6287C48.4401 72.9362 47.2004 74.4091 45.2612 74.4091C43.3219 74.4091 42.0822 72.9362 42.0822 70.6287ZM46.3904 70.7637V68.984C46.3904 67.462 46.0467 66.7993 45.2612 66.7993C44.4756 66.7993 44.132 67.462 44.132 68.984V70.7637C44.132 72.3102 44.4634 72.9485 45.2612 72.9485C46.059 72.9485 46.3904 72.3102 46.3904 70.7637ZM49.4418 70.6287V69.119C49.4418 66.8115 50.6814 65.3387 52.6207 65.3387C54.56 65.3387 55.7997 66.8115 55.7997 69.119V70.6287C55.7997 72.9362 54.56 74.4091 52.6207 74.4091C50.6814 74.4091 49.4418 72.9362 49.4418 70.6287ZM53.7499 70.7637V68.984C53.7499 67.462 53.4062 66.7993 52.6207 66.7993C51.8352 66.7993 51.4915 67.462 51.4915 68.984V70.7637C51.4915 72.3102 51.8229 72.9485 52.6207 72.9485C53.4185 72.9485 53.7499 72.3102 53.7499 70.7637ZM60.7634 74.225V65.3387C61.5244 65.3264 62.0399 65.1914 62.2854 64.9459H62.7395V70.3464L64.777 67.6952H66.8513L64.7279 70.15L67.0477 74.225H64.8997L63.3778 71.5861L62.7395 72.3716V74.225H60.7634ZM67.9671 74.225V67.9039C68.7527 67.8794 69.2436 67.7443 69.4891 67.4989H69.9433V68.6772C70.6183 67.9162 71.3179 67.5357 72.0666 67.5357C72.8153 67.5357 73.2695 67.8916 73.5641 68.714C74.3741 67.9285 75.1351 67.5357 75.8838 67.5357C76.9639 67.5357 77.6145 68.3212 77.6145 69.6223V74.225H75.6261V69.9905C75.6261 69.4381 75.4051 69.1558 74.951 69.1558C74.5582 69.1558 74.2759 69.2418 73.7727 69.5363V74.225H71.7966V70.015C71.7966 69.4381 71.5757 69.1558 71.1215 69.1558C70.7288 69.1558 70.4588 69.2418 69.9433 69.5363V74.225H67.9671ZM77.7517 76.2134L82.5631 64.7741H84.2446L79.4332 76.2134H77.7517ZM84.9756 74.225V65.3387C85.7366 65.3264 86.2521 65.1914 86.4976 64.9459H86.9518V68.7017C87.7127 67.8916 88.4001 67.548 89.247 67.548C90.3639 67.548 91.0144 68.3089 91.0144 69.6223V74.225H89.0383V70.0027C89.0383 69.4504 88.756 69.1558 88.216 69.1558C87.8109 69.1558 87.5164 69.254 86.9518 69.5732V74.225H84.9756ZM100.539 74.225L100.22 73.2553C99.4716 74.1022 98.8457 74.4214 97.9988 74.4214C96.8205 74.4214 96.1577 73.6358 96.1577 72.2611V67.818L98.1338 67.6462V71.7702C98.1338 72.5557 98.3302 72.8135 98.9193 72.8135C99.3366 72.8135 99.6189 72.7153 100.11 72.3962V67.818L102.086 67.6462V74.225H100.539ZM97.8883 64.9213C98.4406 64.9213 98.8579 65.3264 98.8579 65.891C98.8579 66.4556 98.4529 66.8606 97.876 66.8606C97.3237 66.8606 96.9187 66.4433 96.9187 65.891C96.9187 65.3264 97.3237 64.9213 97.8883 64.9213ZM100.404 64.9213C100.957 64.9213 101.374 65.3264 101.374 65.891C101.374 66.4556 100.969 66.8606 100.392 66.8606C99.8399 66.8606 99.4348 66.4433 99.4348 65.891C99.4348 65.3264 99.8399 64.9213 100.404 64.9213ZM103.65 74.225V65.3387C104.411 65.3264 104.927 65.1914 105.172 64.9459H105.626V68.6035C106.363 67.8425 106.964 67.548 107.762 67.548C109.284 67.548 110.106 68.7385 110.106 70.9478C110.106 73.1571 109.173 74.4214 107.553 74.4214C106.731 74.4214 106.08 74.1513 105.381 73.5131L105.123 74.225H103.65ZM105.626 69.5609V72.6785C106.056 72.973 106.375 73.0835 106.829 73.0835C107.725 73.0835 108.057 72.5189 108.057 70.9847C108.057 69.61 107.737 69.1067 106.891 69.1067C106.461 69.1067 106.179 69.2049 105.626 69.5609ZM117.297 71.3897H113.185C113.247 72.568 113.615 72.9239 114.83 72.9239C115.505 72.9239 115.984 72.8257 116.929 72.4821V73.9549C116.094 74.2863 115.395 74.4214 114.597 74.4214C112.191 74.4214 111.111 73.3535 111.111 70.9847C111.111 69.6959 111.442 68.8367 112.154 68.223C112.719 67.7321 113.443 67.4989 114.351 67.4989C116.303 67.4989 117.297 68.6281 117.297 70.8251V71.3897ZM113.173 70.2973H115.309C115.26 69.2172 115.014 68.849 114.315 68.849C113.578 68.849 113.247 69.2663 113.173 70.2973ZM118.095 74.225V72.973H118.905V69.1927H118.107V67.8057H118.635C119.555 67.8057 119.985 67.7321 120.292 67.4989H120.869V68.7508C121.433 68.0389 122.194 67.5971 122.98 67.5357V69.34C122.17 69.389 121.36 69.5363 120.869 69.7204V72.973H121.949V74.225H118.095ZM127.671 74.225V67.9039C128.456 67.8794 128.947 67.7443 129.193 67.4989H129.647V68.7017C130.359 67.9162 131.107 67.5357 131.942 67.5357C133.059 67.5357 133.709 68.3089 133.709 69.6223V74.225H131.733V70.0273C131.733 69.4504 131.463 69.1558 130.911 69.1558C130.506 69.1558 130.199 69.254 129.647 69.5732V74.225H127.671ZM141.126 71.3897H137.014C137.075 72.568 137.444 72.9239 138.659 72.9239C139.334 72.9239 139.812 72.8257 140.758 72.4821V73.9549C139.923 74.2863 139.223 74.4214 138.426 74.4214C136.02 74.4214 134.94 73.3535 134.94 70.9847C134.94 69.6959 135.271 68.8367 135.983 68.223C136.548 67.7321 137.272 67.4989 138.18 67.4989C140.132 67.4989 141.126 68.6281 141.126 70.8251V71.3897ZM137.002 70.2973H139.137C139.088 69.2172 138.843 68.849 138.143 68.849C137.407 68.849 137.075 69.2663 137.002 70.2973ZM146.723 74.225L146.403 73.2553C145.655 74.1022 145.029 74.4214 144.182 74.4214C143.004 74.4214 142.341 73.6358 142.341 72.2611V67.818L144.317 67.6462V71.7702C144.317 72.5557 144.513 72.8135 145.102 72.8135C145.52 72.8135 145.802 72.7153 146.293 72.3962V67.818L148.269 67.6462V74.225H146.723ZM155.737 71.3897H151.625C151.687 72.568 152.055 72.9239 153.27 72.9239C153.945 72.9239 154.424 72.8257 155.369 72.4821V73.9549C154.534 74.2863 153.835 74.4214 153.037 74.4214C150.631 74.4214 149.551 73.3535 149.551 70.9847C149.551 69.6959 149.882 68.8367 150.594 68.223C151.159 67.7321 151.883 67.4989 152.791 67.4989C154.743 67.4989 155.737 68.6281 155.737 70.8251V71.3897ZM151.613 70.2973H153.749C153.7 69.2172 153.454 68.849 152.754 68.849C152.018 68.849 151.687 69.2663 151.613 70.2973ZM160.325 73.8568V72.163C161.27 72.6294 161.921 72.8012 162.767 72.8012C163.786 72.8012 164.314 72.4698 164.314 71.8316C164.314 71.2547 164.056 71.0583 162.461 70.3955C160.951 69.7818 160.374 69.0577 160.374 67.7689C160.374 66.0751 161.552 65.0932 163.59 65.0932C164.351 65.0932 165.026 65.2159 165.836 65.5105V67.2043C164.964 66.8238 164.412 66.7011 163.688 66.7011C162.804 66.7011 162.35 66.9956 162.35 67.548C162.35 67.8671 162.473 68.0635 162.804 68.2967C163.05 68.4685 163.087 68.4808 164.179 68.9472C165.836 69.6345 166.388 70.3219 166.388 71.6597C166.388 73.4517 165.173 74.4091 162.915 74.4091C161.945 74.4091 161.184 74.2495 160.325 73.8568ZM171.707 72.7153V74.1391C171.327 74.2863 170.86 74.36 170.357 74.36C168.725 74.36 168.037 73.7095 168.037 72.1507V69.0577H167.178V67.6952H167.325C167.964 67.6952 168.258 67.4866 168.418 66.9343L168.614 66.2224H170.013V67.6952H171.584V69.0577H170.013V71.9788C170.013 72.6539 170.222 72.8748 170.873 72.8748C171.13 72.8748 171.302 72.838 171.707 72.7153ZM172.345 74.225V72.973H173.155V69.1927H172.357V67.8057H172.885C173.805 67.8057 174.235 67.7321 174.542 67.4989H175.118V68.7508C175.683 68.0389 176.444 67.5971 177.23 67.5357V69.34C176.419 69.389 175.609 69.5363 175.118 69.7204V72.973H176.199V74.225H172.345ZM184.085 71.3897H179.973C180.034 72.568 180.402 72.9239 181.617 72.9239C182.293 72.9239 182.771 72.8257 183.716 72.4821V73.9549C182.882 74.2863 182.182 74.4214 181.384 74.4214C178.979 74.4214 177.898 73.3535 177.898 70.9847C177.898 69.6959 178.23 68.8367 178.942 68.223C179.506 67.7321 180.231 67.4989 181.139 67.4989C183.09 67.4989 184.085 68.6281 184.085 70.8251V71.3897ZM179.96 70.2973H182.096C182.047 69.2172 181.802 68.849 181.102 68.849C180.366 68.849 180.034 69.2663 179.96 70.2973ZM190.381 72.5066V73.9549C189.743 74.2863 189.166 74.4214 188.442 74.4214C186.195 74.4214 185.079 73.2676 185.079 70.9478C185.079 68.6403 186.195 67.4989 188.442 67.4989C189.08 67.4989 189.583 67.5848 190.332 67.818V69.4136C189.46 69.0699 189.166 68.9963 188.613 68.9963C187.472 68.9963 187.141 69.4259 187.141 70.9601C187.141 72.4944 187.472 72.9239 188.65 72.9239C189.227 72.9239 189.546 72.8503 190.381 72.5066ZM191.677 74.225V65.3387C192.438 65.3264 192.954 65.1914 193.199 64.9459H193.653V70.3464L195.691 67.6952H197.765L195.642 70.15L197.962 74.225H195.814L194.292 71.5861L193.653 72.3716V74.225H191.677ZM204.473 71.3897H200.361C200.423 72.568 200.791 72.9239 202.006 72.9239C202.681 72.9239 203.16 72.8257 204.105 72.4821V73.9549C203.27 74.2863 202.571 74.4214 201.773 74.4214C199.367 74.4214 198.287 73.3535 198.287 70.9847C198.287 69.6959 198.618 68.8367 199.33 68.223C199.895 67.7321 200.619 67.4989 201.527 67.4989C203.479 67.4989 204.473 68.6281 204.473 70.8251V71.3897ZM200.349 70.2973H202.485C202.436 69.2172 202.19 68.849 201.491 68.849C200.754 68.849 200.423 69.2663 200.349 70.2973ZM205.737 74.225V67.9039C206.523 67.8794 207.014 67.7443 207.259 67.4989H207.713V68.7017C208.425 67.9162 209.174 67.5357 210.009 67.5357C211.125 67.5357 211.776 68.3089 211.776 69.6223V74.225H209.8V70.0273C209.8 69.4504 209.53 69.1558 208.977 69.1558C208.572 69.1558 208.266 69.254 207.713 69.5732V74.225H205.737Z" fill="black"/>
<path d="M16.4202 88.475H15.7696L15.2787 87.1433H13.6524L13.1553 88.475H12.5845L14.3336 83.9889H14.6957L16.4202 88.475ZM15.113 86.683L14.4747 84.9339L13.8242 86.683H15.113ZM17.106 88.475V83.9889C17.2962 83.9827 17.4804 83.9213 17.5786 83.8354H17.6767V85.744C18.1432 85.3574 18.4132 85.2408 18.8059 85.2408C19.5117 85.2408 19.929 85.8422 19.929 86.8671C19.929 87.4992 19.7817 87.9411 19.4749 88.2479C19.2601 88.4627 18.9839 88.5732 18.6771 88.5732C18.315 88.5732 17.9713 88.4382 17.5908 88.1374L17.4742 88.475H17.106ZM17.6767 86.0816V87.8551C18.0204 88.0699 18.2291 88.1374 18.5359 88.1374C19.0821 88.1374 19.3092 87.7692 19.3092 86.9039C19.3092 86.0447 19.1128 85.7133 18.6034 85.7133C18.315 85.7133 18.1861 85.7624 17.6767 86.0816ZM25.2219 88.475H24.8475L24.7003 88.0515C24.2523 88.4382 23.9454 88.5732 23.5465 88.5732C22.8285 88.5732 22.405 87.9717 22.405 86.9469C22.405 86.37 22.5155 85.9465 22.7426 85.6642C22.9635 85.3881 23.2826 85.2408 23.6508 85.2408C23.9945 85.2408 24.3014 85.3574 24.6512 85.6152V83.9889C24.8414 83.9827 25.0317 83.9213 25.1298 83.8354H25.2219V88.475ZM24.6512 87.7631V86.0018C24.3014 85.7808 24.0988 85.7133 23.792 85.7133C23.2335 85.7133 23.0187 86.0509 23.0187 86.9346C23.0187 87.7754 23.2335 88.1374 23.7306 88.1374C24.0252 88.1374 24.24 88.0454 24.6512 87.7631ZM28.7672 87.0144H26.6684C26.6684 87.8183 26.92 88.1252 27.5951 88.1252C27.9326 88.1252 28.1106 88.0761 28.6261 87.8429V88.3154C28.2395 88.4995 27.9449 88.5732 27.5828 88.5732C26.5763 88.5732 26.0608 88.0086 26.0608 86.91C26.0608 85.8299 26.5579 85.2408 27.4662 85.2408C28.307 85.2408 28.7672 85.7747 28.7672 86.7566V87.0144ZM26.6684 86.5971H28.1535C28.1167 85.8913 27.9388 85.6458 27.4601 85.6458C27.1225 85.6458 26.8955 85.7931 26.7666 86.0816C26.7175 86.2104 26.6868 86.3454 26.6684 86.5971ZM29.5897 88.475V85.3758C29.7799 85.3697 29.964 85.3083 30.0622 85.2224H30.1604V85.7318C30.6146 85.3574 30.8723 85.2408 31.2405 85.2408C31.6088 85.2408 31.8113 85.3942 31.9463 85.7686C32.4311 85.3881 32.7625 85.2408 33.1369 85.2408C33.6401 85.2408 33.9285 85.5967 33.9285 86.2227V88.475H33.3578V86.235C33.3578 85.8852 33.2228 85.7133 32.9466 85.7133C32.6643 85.7133 32.5047 85.7747 32.0445 86.0509V88.475H31.4737V86.2718C31.4737 85.879 31.3449 85.7133 31.0503 85.7133C30.768 85.7133 30.6207 85.7686 30.1604 86.0509V88.475H29.5897ZM36.597 86.6768V85.922C36.597 84.756 37.1739 84.0318 38.1067 84.0318C39.0396 84.0318 39.6164 84.756 39.6164 85.922V86.6768C39.6164 87.8429 39.0396 88.567 38.1067 88.567C37.1739 88.567 36.597 87.8429 36.597 86.6768ZM38.9843 86.7137V85.8852C38.9843 84.891 38.7204 84.4675 38.1067 84.4675C37.493 84.4675 37.2292 84.891 37.2292 85.8852V86.7137C37.2292 87.7079 37.493 88.1313 38.1067 88.1313C38.7204 88.1313 38.9843 87.7079 38.9843 86.7137ZM40.2768 88.745V88.254C41.0624 88.2172 41.4306 88.1497 41.8418 87.9717C42.3388 87.757 42.5352 87.4869 42.5352 87.0267C42.5352 86.5909 42.3204 86.4007 41.8295 86.4007C41.6085 86.4007 41.4613 86.4191 41.0869 86.4927V86.057L41.2403 86.0202C42.1486 85.8177 42.3634 85.6458 42.3634 85.1119C42.3634 84.6946 42.1302 84.5044 41.6085 84.5044C41.2219 84.5044 40.9089 84.5841 40.4425 84.8112V84.3325C40.8414 84.13 41.2281 84.0318 41.6576 84.0318C42.5168 84.0318 42.971 84.3939 42.971 85.0874C42.971 85.5906 42.7684 85.8484 42.1793 86.0816C42.4739 86.1245 42.5536 86.1429 42.7009 86.2288C42.9955 86.3945 43.1428 86.6584 43.1428 87.0267C43.1428 87.7385 42.6825 88.2479 41.7927 88.5179C41.3447 88.6591 40.9703 88.7143 40.2768 88.745ZM44.5458 87.7017C44.7912 87.7017 44.9692 87.8797 44.9692 88.1252C44.9692 88.3706 44.7912 88.5486 44.5458 88.5486C44.2941 88.5486 44.1223 88.3706 44.1223 88.119C44.1223 87.8797 44.3003 87.7017 44.5458 87.7017ZM45.7965 86.6768V85.922C45.7965 84.756 46.3734 84.0318 47.3062 84.0318C48.239 84.0318 48.8159 84.756 48.8159 85.922V86.6768C48.8159 87.8429 48.239 88.567 47.3062 88.567C46.3734 88.567 45.7965 87.8429 45.7965 86.6768ZM48.1838 86.7137V85.8852C48.1838 84.891 47.9199 84.4675 47.3062 84.4675C46.6925 84.4675 46.4286 84.891 46.4286 85.8852V86.7137C46.4286 87.7079 46.6925 88.1313 47.3062 88.1313C47.9199 88.1313 48.1838 87.7079 48.1838 86.7137ZM49.7831 88.7266V88.2356C51.121 88.162 51.8206 87.5606 51.8513 86.4436C51.526 86.6891 51.2253 86.7873 50.808 86.7873C49.9243 86.7873 49.4395 86.3209 49.4395 85.4679C49.4395 84.6026 50.0286 84.0318 50.9185 84.0318C51.9311 84.0318 52.4834 84.7805 52.4834 86.1491C52.4834 87.1617 52.1336 87.8551 51.4033 88.2909C50.9553 88.5548 50.5012 88.6775 49.7831 88.7266ZM51.8513 86.0263C51.8513 84.9217 51.5751 84.4737 50.8878 84.4737C50.3109 84.4737 50.0716 84.7621 50.0716 85.4617C50.0716 86.1245 50.2802 86.3516 50.9001 86.3516C51.2744 86.3516 51.526 86.2657 51.8513 86.0263ZM53.7452 87.7017C53.9907 87.7017 54.1687 87.8797 54.1687 88.1252C54.1687 88.3706 53.9907 88.5486 53.7452 88.5486C53.4936 88.5486 53.3218 88.3706 53.3218 88.119C53.3218 87.8797 53.4997 87.7017 53.7452 87.7017ZM55.0512 88.475V88.1252C55.1187 88.0638 55.2598 87.9349 55.4746 87.7385C56.8002 86.5296 57.1009 86.0816 57.1009 85.3144C57.1009 84.7744 56.8432 84.5044 56.3215 84.5044C55.9165 84.5044 55.536 84.6394 55.1432 84.9217V84.4369C55.4746 84.173 55.9042 84.0318 56.3584 84.0318C57.2359 84.0318 57.7208 84.4982 57.7208 85.339C57.7208 85.922 57.5121 86.3516 56.9352 86.9591C56.702 87.1985 56.5854 87.309 55.7999 88.0147H57.8374L57.7821 88.475H55.0512ZM58.6757 86.6768V85.922C58.6757 84.756 59.2526 84.0318 60.1854 84.0318C61.1182 84.0318 61.6951 84.756 61.6951 85.922V86.6768C61.6951 87.8429 61.1182 88.567 60.1854 88.567C59.2526 88.567 58.6757 87.8429 58.6757 86.6768ZM61.063 86.7137V85.8852C61.063 84.891 60.7991 84.4675 60.1854 84.4675C59.5717 84.4675 59.3078 84.891 59.3078 85.8852V86.7137C59.3078 87.7079 59.5717 88.1313 60.1854 88.1313C60.7991 88.1313 61.063 87.7079 61.063 86.7137ZM62.4107 88.475V88.1252C62.4782 88.0638 62.6194 87.9349 62.8342 87.7385C64.1598 86.5296 64.4605 86.0816 64.4605 85.3144C64.4605 84.7744 64.2027 84.5044 63.6811 84.5044C63.2761 84.5044 62.8956 84.6394 62.5028 84.9217V84.4369C62.8342 84.173 63.2638 84.0318 63.7179 84.0318C64.5955 84.0318 65.0803 84.4982 65.0803 85.339C65.0803 85.922 64.8717 86.3516 64.2948 86.9591C64.0616 87.1985 63.945 87.309 63.1595 88.0147H65.1969L65.1417 88.475H62.4107ZM68.8522 84.1423L68.7908 84.5964H67.0663L66.8883 85.922C67.1829 85.8422 67.275 85.8299 67.4713 85.8299C68.2937 85.8299 68.7785 86.2779 68.7785 87.0267C68.7785 87.7692 68.4103 88.2479 67.6309 88.5118C67.2013 88.6591 66.8883 88.7082 66.1458 88.745V88.254C66.9313 88.2234 67.3241 88.1436 67.6677 87.9595C68.0359 87.7631 68.1771 87.5053 68.1771 87.0267C68.1771 86.5111 67.8887 86.2964 67.1952 86.2964C66.9129 86.2964 66.6797 86.327 66.3544 86.4068L66.6674 84.1423H68.8522ZM71.7513 88.475V83.9889C71.9416 83.9827 72.1257 83.9213 72.2239 83.8354H72.3221V86.9285L73.6293 85.296H74.2675L73.1751 86.5541L74.3902 88.475H73.7643L72.8069 86.9837L72.3221 87.5422V88.475H71.7513ZM77.6143 88.0638V88.4443C77.4731 88.4934 77.3258 88.5179 77.2092 88.5179C76.9085 88.5179 76.7305 88.3706 76.6508 88.0577C76.3194 88.4136 76.0002 88.5732 75.6136 88.5732C75.0551 88.5732 74.7299 88.2479 74.7299 87.6772C74.7299 87.1985 74.9324 86.9346 75.3804 86.8057C75.6688 86.7198 75.8468 86.7014 76.6323 86.6462V86.3823C76.6323 85.8852 76.4544 85.6888 76.0125 85.6888C75.6811 85.6888 75.3804 85.7686 74.9263 85.9711V85.5108C75.3129 85.3267 75.6566 85.2408 76.0432 85.2408C76.841 85.2408 77.2031 85.5967 77.2031 86.3884V87.8183C77.2031 88.0208 77.2644 88.0883 77.4363 88.0883C77.5038 88.0883 77.5467 88.0822 77.6143 88.0638ZM76.6323 87.6956V87.0082L76.5464 87.0144L76.2887 87.0328C75.5277 87.088 75.3006 87.2292 75.3006 87.6526C75.3006 88.0086 75.4356 88.1559 75.7609 88.1559C76.0616 88.1559 76.3562 88.0024 76.6323 87.6956ZM78.2599 88.475V85.3758C78.4501 85.3697 78.6342 85.3083 78.7324 85.2224H78.8306V85.744C79.2909 85.3758 79.5977 85.2408 79.9905 85.2408C80.5428 85.2408 80.862 85.6029 80.862 86.2227V88.475H80.2912V86.3025C80.2912 85.8975 80.1378 85.7133 79.8003 85.7133C79.5057 85.7133 79.3216 85.7808 78.8306 86.0816V88.475H78.2599ZM81.8857 88.475V85.3758C82.076 85.3697 82.2601 85.3083 82.3583 85.2224H82.4565V85.744C82.9167 85.3758 83.2236 85.2408 83.6163 85.2408C84.1687 85.2408 84.4878 85.6029 84.4878 86.2227V88.475H83.9171V86.3025C83.9171 85.8975 83.7636 85.7133 83.4261 85.7133C83.1315 85.7133 82.9474 85.7808 82.4565 86.0816V88.475H81.8857ZM87.3515 88.475V85.3758C87.5417 85.3697 87.7258 85.3083 87.824 85.2224H87.9222V85.7318C88.3763 85.3574 88.6341 85.2408 89.0023 85.2408C89.3705 85.2408 89.573 85.3942 89.708 85.7686C90.1929 85.3881 90.5243 85.2408 90.8986 85.2408C91.4019 85.2408 91.6903 85.5967 91.6903 86.2227V88.475H91.1196V86.235C91.1196 85.8852 90.9845 85.7133 90.7084 85.7133C90.4261 85.7133 90.2665 85.7747 89.8062 86.0509V88.475H89.2355V86.2718C89.2355 85.879 89.1066 85.7133 88.8121 85.7133C88.5298 85.7133 88.3825 85.7686 87.9222 86.0509V88.475H87.3515ZM95.3419 88.0638V88.4443C95.2008 88.4934 95.0535 88.5179 94.9369 88.5179C94.6362 88.5179 94.4582 88.3706 94.3784 88.0577C94.047 88.4136 93.7279 88.5732 93.3413 88.5732C92.7828 88.5732 92.4575 88.2479 92.4575 87.6772C92.4575 87.1985 92.6601 86.9346 93.1081 86.8057C93.3965 86.7198 93.5745 86.7014 94.36 86.6462V86.3823C94.36 85.8852 94.182 85.6888 93.7402 85.6888C93.4088 85.6888 93.1081 85.7686 92.6539 85.9711V85.5108C93.0406 85.3267 93.3842 85.2408 93.7709 85.2408C94.5687 85.2408 94.9307 85.5967 94.9307 86.3884V87.8183C94.9307 88.0208 94.9921 88.0883 95.1639 88.0883C95.2315 88.0883 95.2744 88.0822 95.3419 88.0638ZM94.36 87.6956V87.0082L94.2741 87.0144L94.0163 87.0328C93.2554 87.088 93.0283 87.2292 93.0283 87.6526C93.0283 88.0086 93.1633 88.1559 93.4886 88.1559C93.7893 88.1559 94.0838 88.0024 94.36 87.6956ZM95.9876 88.475V85.3758C96.1778 85.3697 96.3619 85.3083 96.4601 85.2224H96.5583V85.744C97.0186 85.3758 97.3254 85.2408 97.7182 85.2408C98.2705 85.2408 98.5896 85.6029 98.5896 86.2227V88.475H98.0189V86.3025C98.0189 85.8975 97.8655 85.7133 97.5279 85.7133C97.2334 85.7133 97.0493 85.7808 96.5583 86.0816V88.475H95.9876ZM103.595 88.475L103.448 88.027C103.037 88.4197 102.717 88.5732 102.294 88.5732C101.969 88.5732 101.729 88.4504 101.582 88.2172C101.466 88.0393 101.423 87.8429 101.423 87.4992V85.3267L101.993 85.2899V87.5115C101.993 87.9533 102.134 88.1313 102.478 88.1313C102.779 88.1313 102.994 88.0393 103.399 87.7385V85.3267L103.969 85.2899V88.475H103.595ZM102.19 84.0318C102.392 84.0318 102.533 84.173 102.533 84.3755C102.533 84.578 102.392 84.7192 102.184 84.7192C101.987 84.7192 101.846 84.578 101.846 84.3755C101.846 84.173 101.987 84.0318 102.19 84.0318ZM103.239 84.0318C103.442 84.0318 103.583 84.173 103.583 84.3755C103.583 84.578 103.442 84.7192 103.233 84.7192C103.037 84.7192 102.895 84.578 102.895 84.3755C102.895 84.173 103.037 84.0318 103.239 84.0318ZM105.025 88.475V83.9889C105.215 83.9827 105.4 83.9213 105.498 83.8354H105.596V85.744C106.062 85.3574 106.332 85.2408 106.725 85.2408C107.431 85.2408 107.848 85.8422 107.848 86.8671C107.848 87.4992 107.701 87.9411 107.394 88.2479C107.179 88.4627 106.903 88.5732 106.596 88.5732C106.234 88.5732 105.891 88.4382 105.51 88.1374L105.393 88.475H105.025ZM105.596 86.0816V87.8551C105.94 88.0699 106.148 88.1374 106.455 88.1374C107.001 88.1374 107.228 87.7692 107.228 86.9039C107.228 86.0447 107.032 85.7133 106.523 85.7133C106.234 85.7133 106.105 85.7624 105.596 86.0816ZM111.191 87.0144H109.092C109.092 87.8183 109.344 88.1252 110.019 88.1252C110.356 88.1252 110.534 88.0761 111.05 87.8429V88.3154C110.663 88.4995 110.368 88.5732 110.006 88.5732C109 88.5732 108.484 88.0086 108.484 86.91C108.484 85.8299 108.981 85.2408 109.89 85.2408C110.73 85.2408 111.191 85.7747 111.191 86.7566V87.0144ZM109.092 86.5971H110.577C110.54 85.8913 110.362 85.6458 109.884 85.6458C109.546 85.6458 109.319 85.7931 109.19 86.0816C109.141 86.2104 109.11 86.3454 109.092 86.5971ZM111.712 88.475V88.0638H112.203V85.787H111.725V85.3513H111.97C112.326 85.3513 112.504 85.3144 112.645 85.2224H112.774V85.7624C113.142 85.4433 113.48 85.2715 113.817 85.2408V85.7931C113.388 85.8361 113.032 85.9281 112.774 86.0631V88.0638H113.314V88.475H111.712ZM118.948 88.475H118.574L118.427 88.0515C117.979 88.4382 117.672 88.5732 117.273 88.5732C116.555 88.5732 116.132 87.9717 116.132 86.9469C116.132 86.37 116.242 85.9465 116.469 85.6642C116.69 85.3881 117.009 85.2408 117.377 85.2408C117.721 85.2408 118.028 85.3574 118.378 85.6152V83.9889C118.568 83.9827 118.758 83.9213 118.856 83.8354H118.948V88.475ZM118.378 87.7631V86.0018C118.028 85.7808 117.825 85.7133 117.519 85.7133C116.96 85.7133 116.745 86.0509 116.745 86.9346C116.745 87.7754 116.96 88.1374 117.457 88.1374C117.752 88.1374 117.967 88.0454 118.378 87.7631ZM120.462 84.0011C120.683 84.0011 120.837 84.1546 120.837 84.3755C120.837 84.5964 120.683 84.7498 120.462 84.7498C120.242 84.7498 120.088 84.5964 120.088 84.3693C120.088 84.1546 120.248 84.0011 120.462 84.0011ZM120.757 88.475H120.186V85.787H119.708V85.3513H119.953C120.309 85.3513 120.487 85.3144 120.628 85.2224H120.757V88.475ZM124.31 87.0144H122.211C122.211 87.8183 122.462 88.1252 123.138 88.1252C123.475 88.1252 123.653 88.0761 124.169 87.8429V88.3154C123.782 88.4995 123.487 88.5732 123.125 88.5732C122.119 88.5732 121.603 88.0086 121.603 86.91C121.603 85.8299 122.1 85.2408 123.009 85.2408C123.849 85.2408 124.31 85.7747 124.31 86.7566V87.0144ZM122.211 86.5971H123.696C123.659 85.8913 123.481 85.6458 123.003 85.6458C122.665 85.6458 122.438 85.7931 122.309 86.0816C122.26 86.2104 122.229 86.3454 122.211 86.5971ZM124.942 88.3277V87.8551C125.31 88.0454 125.556 88.1068 125.905 88.1068C126.36 88.1068 126.556 87.9779 126.556 87.6772C126.556 87.4256 126.445 87.3274 125.942 87.1371C125.531 86.9837 125.359 86.8916 125.218 86.7566C125.052 86.5971 124.973 86.3884 124.973 86.1368C124.973 85.5722 125.359 85.2531 126.053 85.2531C126.347 85.2531 126.568 85.296 126.924 85.431V85.9404C126.537 85.7624 126.323 85.7072 126.047 85.7072C125.672 85.7072 125.476 85.8361 125.476 86.0877C125.476 86.3577 125.574 86.4436 126.145 86.6584C126.519 86.7996 126.648 86.861 126.771 86.9591C126.992 87.131 127.09 87.3335 127.09 87.6281C127.09 88.2049 126.666 88.5486 125.948 88.5486C125.592 88.5486 125.273 88.4811 124.942 88.3277ZM130.423 87.0144H128.324C128.324 87.8183 128.575 88.1252 129.251 88.1252C129.588 88.1252 129.766 88.0761 130.282 87.8429V88.3154C129.895 88.4995 129.6 88.5732 129.238 88.5732C128.232 88.5732 127.716 88.0086 127.716 86.91C127.716 85.8299 128.213 85.2408 129.122 85.2408C129.962 85.2408 130.423 85.7747 130.423 86.7566V87.0144ZM128.324 86.5971H129.809C129.772 85.8913 129.594 85.6458 129.116 85.6458C128.778 85.6458 128.551 85.7931 128.422 86.0816C128.373 86.2104 128.342 86.3454 128.324 86.5971ZM132.79 88.2602V87.7385C133.269 88.0024 133.607 88.1006 134.03 88.1006C134.619 88.1006 134.951 87.849 134.951 87.401C134.951 87.1678 134.865 86.9898 134.674 86.8303C134.539 86.7198 134.484 86.683 133.987 86.4007C133.594 86.1798 133.386 86.0325 133.238 85.879C133.024 85.652 132.913 85.3819 132.913 85.0567C132.913 84.3448 133.429 83.9091 134.269 83.9091C134.625 83.9091 134.963 83.9827 135.313 84.13V84.6394C134.895 84.4369 134.625 84.3693 134.257 84.3693C133.736 84.3693 133.459 84.5903 133.459 85.0076C133.459 85.3758 133.625 85.5722 134.245 85.9097C134.834 86.235 134.895 86.2718 135.092 86.4436C135.393 86.7014 135.534 87.0021 135.534 87.358C135.534 88.0945 134.957 88.5609 134.049 88.5609C133.601 88.5609 133.245 88.475 132.79 88.2602ZM137.991 88.0331V88.4443C137.8 88.5179 137.659 88.5425 137.469 88.5425C136.782 88.5425 136.463 88.2049 136.463 87.4931V85.7072H135.99V85.296H136.107C136.395 85.296 136.512 85.2101 136.591 84.9155L136.677 84.6087H137.033V85.296H137.905V85.7072H137.033V87.5728C137.033 87.9533 137.187 88.1129 137.555 88.1129C137.696 88.1129 137.794 88.0945 137.991 88.0331ZM138.388 88.475V88.0638H138.879V85.787H138.4V85.3513H138.646C139.002 85.3513 139.18 85.3144 139.321 85.2224H139.45V85.7624C139.818 85.4433 140.155 85.2715 140.493 85.2408V85.7931C140.063 85.8361 139.707 85.9281 139.45 86.0631V88.0638H139.99V88.475H138.388ZM143.614 87.0144H141.515C141.515 87.8183 141.766 88.1252 142.441 88.1252C142.779 88.1252 142.957 88.0761 143.472 87.8429V88.3154C143.086 88.4995 142.791 88.5732 142.429 88.5732C141.423 88.5732 140.907 88.0086 140.907 86.91C140.907 85.8299 141.404 85.2408 142.313 85.2408C143.153 85.2408 143.614 85.7747 143.614 86.7566V87.0144ZM141.515 86.5971H143C142.963 85.8913 142.785 85.6458 142.306 85.6458C141.969 85.6458 141.742 85.7931 141.613 86.0816C141.564 86.2104 141.533 86.3454 141.515 86.5971ZM146.664 87.849V88.3216C146.295 88.4995 146.019 88.5732 145.694 88.5732C144.718 88.5732 144.227 88.0147 144.227 86.8916C144.227 85.8054 144.731 85.2408 145.7 85.2408C146.007 85.2408 146.253 85.2899 146.602 85.4188V85.9281C146.154 85.7379 145.995 85.6949 145.694 85.6949C145.037 85.6949 144.835 85.9772 144.835 86.9039C144.835 87.8306 145.05 88.1252 145.719 88.1252C146.032 88.1252 146.136 88.0945 146.664 87.849ZM147.463 88.475V83.9889C147.653 83.9827 147.837 83.9213 147.935 83.8354H148.033V86.9285L149.34 85.296H149.979L148.886 86.5541L150.101 88.475H149.475L148.518 86.9837L148.033 87.5422V88.475H147.463ZM153.167 87.0144H151.068C151.068 87.8183 151.319 88.1252 151.994 88.1252C152.332 88.1252 152.51 88.0761 153.025 87.8429V88.3154C152.639 88.4995 152.344 88.5732 151.982 88.5732C150.976 88.5732 150.46 88.0086 150.46 86.91C150.46 85.8299 150.957 85.2408 151.866 85.2408C152.706 85.2408 153.167 85.7747 153.167 86.7566V87.0144ZM151.068 86.5971H152.553C152.516 85.8913 152.338 85.6458 151.859 85.6458C151.522 85.6458 151.295 85.7931 151.166 86.0816C151.117 86.2104 151.086 86.3454 151.068 86.5971ZM153.989 88.475V85.3758C154.179 85.3697 154.363 85.3083 154.462 85.2224H154.56V85.744C155.02 85.3758 155.327 85.2408 155.72 85.2408C156.272 85.2408 156.591 85.6029 156.591 86.2227V88.475H156.02V86.3025C156.02 85.8975 155.867 85.7133 155.529 85.7133C155.235 85.7133 155.051 85.7808 154.56 86.0816V88.475H153.989ZM159.258 88.745V88.254C160.044 88.2172 160.412 88.1497 160.823 87.9717C161.32 87.757 161.517 87.4869 161.517 87.0267C161.517 86.5909 161.302 86.4007 160.811 86.4007C160.59 86.4007 160.443 86.4191 160.068 86.4927V86.057L160.222 86.0202C161.13 85.8177 161.345 85.6458 161.345 85.1119C161.345 84.6946 161.112 84.5044 160.59 84.5044C160.203 84.5044 159.891 84.5841 159.424 84.8112V84.3325C159.823 84.13 160.21 84.0318 160.639 84.0318C161.498 84.0318 161.953 84.3939 161.953 85.0874C161.953 85.5906 161.75 85.8484 161.161 86.0816C161.455 86.1245 161.535 86.1429 161.682 86.2288C161.977 86.3945 162.124 86.6584 162.124 87.0267C162.124 87.7385 161.664 88.2479 160.774 88.5179C160.326 88.6591 159.952 88.7143 159.258 88.745ZM162.938 86.6768V85.922C162.938 84.756 163.515 84.0318 164.448 84.0318C165.381 84.0318 165.958 84.756 165.958 85.922V86.6768C165.958 87.8429 165.381 88.567 164.448 88.567C163.515 88.567 162.938 87.8429 162.938 86.6768ZM165.325 86.7137V85.8852C165.325 84.891 165.062 84.4675 164.448 84.4675C163.834 84.4675 163.57 84.891 163.57 85.8852V86.7137C163.57 87.7079 163.834 88.1313 164.448 88.1313C165.062 88.1313 165.325 87.7079 165.325 86.7137ZM166.618 86.6768V85.922C166.618 84.756 167.195 84.0318 168.128 84.0318C169.06 84.0318 169.637 84.756 169.637 85.922V86.6768C169.637 87.8429 169.06 88.567 168.128 88.567C167.195 88.567 166.618 87.8429 166.618 86.6768ZM169.005 86.7137V85.8852C169.005 84.891 168.741 84.4675 168.128 84.4675C167.514 84.4675 167.25 84.891 167.25 85.8852V86.7137C167.25 87.7079 167.514 88.1313 168.128 88.1313C168.741 88.1313 169.005 87.7079 169.005 86.7137ZM170.494 88.475V83.9889C170.684 83.9827 170.868 83.9213 170.967 83.8354H171.065V86.9285L172.372 85.296H173.01L171.918 86.5541L173.133 88.475H172.507L171.55 86.9837L171.065 87.5422V88.475H170.494ZM173.79 88.475V85.3758C173.981 85.3697 174.165 85.3083 174.263 85.2224H174.361V85.7318C174.815 85.3574 175.073 85.2408 175.441 85.2408C175.809 85.2408 176.012 85.3942 176.147 85.7686C176.632 85.3881 176.963 85.2408 177.338 85.2408C177.841 85.2408 178.129 85.5967 178.129 86.2227V88.475H177.558V86.235C177.558 85.8852 177.423 85.7133 177.147 85.7133C176.865 85.7133 176.705 85.7747 176.245 86.0509V88.475H175.674V86.2718C175.674 85.879 175.546 85.7133 175.251 85.7133C174.969 85.7133 174.821 85.7686 174.361 86.0509V88.475H173.79ZM178.356 89.4692L180.762 83.7495H181.284L178.878 89.4692H178.356ZM181.827 88.475V83.9889C182.017 83.9827 182.201 83.9213 182.3 83.8354H182.398V85.744C182.864 85.3697 183.165 85.2408 183.558 85.2408C184.11 85.2408 184.429 85.6029 184.429 86.2227V88.475H183.858V86.2657C183.858 85.9036 183.693 85.7133 183.368 85.7133C183.073 85.7133 182.889 85.7808 182.398 86.0816V88.475H181.827ZM186.968 85.7072V85.296H187.446V85.0567C187.446 84.2712 187.857 83.8293 188.575 83.8293H188.895V84.2834C188.803 84.265 188.741 84.2589 188.668 84.2589C188.232 84.2589 188.017 84.5044 188.017 85.0076V85.296H188.79V85.7072H188.017V88.475H187.446V85.7072H186.968ZM192.089 88.0638V88.4443C191.948 88.4934 191.801 88.5179 191.684 88.5179C191.383 88.5179 191.205 88.3706 191.125 88.0577C190.794 88.4136 190.475 88.5732 190.088 88.5732C189.53 88.5732 189.205 88.2479 189.205 87.6772C189.205 87.1985 189.407 86.9346 189.855 86.8057C190.144 86.7198 190.322 86.7014 191.107 86.6462V86.3823C191.107 85.8852 190.929 85.6888 190.487 85.6888C190.156 85.6888 189.855 85.7686 189.401 85.9711V85.5108C189.788 85.3267 190.131 85.2408 190.518 85.2408C191.316 85.2408 191.678 85.5967 191.678 86.3884V87.8183C191.678 88.0208 191.739 88.0883 191.911 88.0883C191.979 88.0883 192.021 88.0822 192.089 88.0638ZM191.107 87.6956V87.0082L191.021 87.0144L190.763 87.0328C190.002 87.088 189.775 87.2292 189.775 87.6526C189.775 88.0086 189.91 88.1559 190.236 88.1559C190.536 88.1559 190.831 88.0024 191.107 87.6956ZM192.735 88.475V83.9889C192.925 83.9827 193.109 83.9213 193.207 83.8354H193.305V85.744C193.772 85.3697 194.072 85.2408 194.465 85.2408C195.018 85.2408 195.337 85.6029 195.337 86.2227V88.475H194.766V86.2657C194.766 85.9036 194.6 85.7133 194.275 85.7133C193.98 85.7133 193.796 85.7808 193.305 86.0816V88.475H192.735ZM196.06 88.475V88.0638H196.551V85.787H196.072V85.3513H196.317C196.673 85.3513 196.851 85.3144 196.993 85.2224H197.121V85.7624C197.49 85.4433 197.827 85.2715 198.165 85.2408V85.7931C197.735 85.8361 197.379 85.9281 197.121 86.0631V88.0638H197.661V88.475H196.06ZM201.285 87.0144H199.187C199.187 87.8183 199.438 88.1252 200.113 88.1252C200.451 88.1252 200.629 88.0761 201.144 87.8429V88.3154C200.758 88.4995 200.463 88.5732 200.101 88.5732C199.095 88.5732 198.579 88.0086 198.579 86.91C198.579 85.8299 199.076 85.2408 199.984 85.2408C200.825 85.2408 201.285 85.7747 201.285 86.7566V87.0144ZM199.187 86.5971H200.672C200.635 85.8913 200.457 85.6458 199.978 85.6458C199.641 85.6458 199.414 85.7931 199.285 86.0816C199.236 86.2104 199.205 86.3454 199.187 86.5971ZM202.108 88.475V85.3758C202.298 85.3697 202.482 85.3083 202.58 85.2224H202.679V85.744C203.139 85.3758 203.446 85.2408 203.838 85.2408C204.391 85.2408 204.71 85.6029 204.71 86.2227V88.475H204.139V86.3025C204.139 85.8975 203.986 85.7133 203.648 85.7133C203.354 85.7133 203.17 85.7808 202.679 86.0816V88.475H202.108ZM206.126 87.7017C206.372 87.7017 206.55 87.8797 206.55 88.1252C206.55 88.3706 206.372 88.5486 206.126 88.5486C205.875 88.5486 205.703 88.3706 205.703 88.119C205.703 87.8797 205.881 87.7017 206.126 87.7017ZM206.126 85.5906C206.372 85.5906 206.55 85.7686 206.55 86.0141C206.55 86.2595 206.372 86.4375 206.126 86.4375C205.875 86.4375 205.703 86.2595 205.703 86.0079C205.703 85.7686 205.881 85.5906 206.126 85.5906ZM17.0289 95.4372C17.5506 95.4372 17.9495 95.8361 17.9495 96.3577C17.9495 96.8794 17.5506 97.2783 17.0289 97.2783C16.5011 97.2783 16.1084 96.8794 16.1084 96.3454C16.1084 95.8361 16.5134 95.4372 17.0289 95.4372ZM22.2441 98.475V94.0134H22.8394V95.965H25.0978V94.0134H25.6931V98.475H25.0978V96.413H22.8394V98.475H22.2441ZM29.4595 98.0638V98.4443C29.3183 98.4934 29.171 98.5179 29.0544 98.5179C28.7537 98.5179 28.5757 98.3706 28.496 98.0577C28.1646 98.4136 27.8454 98.5732 27.4588 98.5732C26.9004 98.5732 26.5751 98.2479 26.5751 97.6772C26.5751 97.1985 26.7776 96.9346 27.2256 96.8057C27.5141 96.7198 27.692 96.7014 28.4776 96.6462V96.3823C28.4776 95.8852 28.2996 95.6888 27.8577 95.6888C27.5263 95.6888 27.2256 95.7686 26.7715 95.9711V95.5108C27.1581 95.3267 27.5018 95.2408 27.8884 95.2408C28.6862 95.2408 29.0483 95.5967 29.0483 96.3884V97.8183C29.0483 98.0208 29.1097 98.0883 29.2815 98.0883C29.349 98.0883 29.392 98.0822 29.4595 98.0638ZM28.4776 97.6956V97.0082L28.3916 97.0144L28.1339 97.0328C27.3729 97.088 27.1458 97.2292 27.1458 97.6526C27.1458 98.0086 27.2808 98.1559 27.6061 98.1559C27.9068 98.1559 28.2014 98.0024 28.4776 97.6956ZM30.1051 98.475V95.3758C30.2953 95.3697 30.4795 95.3083 30.5776 95.2224H30.6758V95.744C31.1361 95.3758 31.443 95.2408 31.8357 95.2408C32.388 95.2408 32.7072 95.6029 32.7072 96.2227V98.475H32.1364V96.3025C32.1364 95.8975 31.983 95.7133 31.6455 95.7133C31.3509 95.7133 31.1668 95.7808 30.6758 96.0816V98.475H30.1051ZM33.7309 98.475V95.3758C33.9212 95.3697 34.1053 95.3083 34.2035 95.2224H34.3017V95.744C34.7619 95.3758 35.0688 95.2408 35.4616 95.2408C36.0139 95.2408 36.333 95.6029 36.333 96.2227V98.475H35.7623V96.3025C35.7623 95.8975 35.6089 95.7133 35.2713 95.7133C34.9767 95.7133 34.7926 95.7808 34.3017 96.0816V98.475H33.7309ZM38.6087 95.2408C39.5845 95.2408 40.0755 95.7993 40.0755 96.9039C40.0755 98.0147 39.5845 98.5732 38.6087 98.5732C37.6329 98.5732 37.1481 98.0147 37.1481 96.8855C37.1481 95.8054 37.6514 95.2408 38.6087 95.2408ZM38.6087 95.6458C38.0012 95.6458 37.7618 95.9956 37.7618 96.8916C37.7618 97.8183 37.995 98.1681 38.6087 98.1681C39.2286 98.1681 39.4618 97.8183 39.4618 96.9039C39.4618 95.9956 39.2224 95.6458 38.6087 95.6458ZM43.4526 95.296L42.1331 98.5057H41.7894L40.4332 95.296H41.0469L41.9797 97.5913L42.9002 95.296H43.4526ZM46.5189 97.0144H44.42C44.42 97.8183 44.6717 98.1252 45.3467 98.1252C45.6843 98.1252 45.8622 98.0761 46.3777 97.8429V98.3154C45.9911 98.4995 45.6965 98.5732 45.3345 98.5732C44.328 98.5732 43.8125 98.0086 43.8125 96.91C43.8125 95.8299 44.3096 95.2408 45.2178 95.2408C46.0586 95.2408 46.5189 95.7747 46.5189 96.7566V97.0144ZM44.42 96.5971H45.9052C45.8684 95.8913 45.6904 95.6458 45.2117 95.6458C44.8742 95.6458 44.6471 95.7931 44.5182 96.0816C44.4691 96.2104 44.4385 96.3454 44.42 96.5971ZM47.0406 98.475V98.0638H47.5316V95.787H47.0529V95.3513H47.2984C47.6543 95.3513 47.8323 95.3144 47.9734 95.2224H48.1023V95.7624C48.4705 95.4433 48.8081 95.2715 49.1456 95.2408V95.7931C48.716 95.8361 48.3601 95.9281 48.1023 96.0631V98.0638H48.6424V98.475H47.0406ZM49.4664 96.6646V96.2043H50.97V96.6646H49.4664ZM52.802 98.5057H52.3602L51.1266 94.0134H51.7342L52.6363 97.4992L53.6735 94.0134H54.0662L55.0788 97.4992L55.9994 94.0134H56.5517L55.3059 98.5057H54.8395L53.833 95.1303L52.802 98.5057ZM59.3358 98.475L59.1885 98.027C58.7774 98.4197 58.4582 98.5732 58.0348 98.5732C57.7095 98.5732 57.4702 98.4504 57.3229 98.2172C57.2063 98.0393 57.1633 97.8429 57.1633 97.4992V95.3267L57.7341 95.2899V97.5115C57.7341 97.9533 57.8752 98.1313 58.2189 98.1313C58.5196 98.1313 58.7344 98.0393 59.1395 97.7385V95.3267L59.7102 95.2899V98.475H59.3358ZM57.9305 94.0318C58.133 94.0318 58.2741 94.173 58.2741 94.3755C58.2741 94.578 58.133 94.7192 57.9243 94.7192C57.728 94.7192 57.5868 94.578 57.5868 94.3755C57.5868 94.173 57.728 94.0318 57.9305 94.0318ZM58.9799 94.0318C59.1824 94.0318 59.3236 94.173 59.3236 94.3755C59.3236 94.578 59.1824 94.7192 58.9738 94.7192C58.7774 94.7192 58.6362 94.578 58.6362 94.3755C58.6362 94.173 58.7774 94.0318 58.9799 94.0318ZM60.4652 98.475V98.0638H60.9562V95.787H60.4775V95.3513H60.723C61.0789 95.3513 61.2569 95.3144 61.398 95.2224H61.5269V95.7624C61.8951 95.4433 62.2327 95.2715 62.5702 95.2408V95.7931C62.1406 95.8361 61.7847 95.9281 61.5269 96.0631V98.0638H62.067V98.475H60.4652ZM63.0015 98.475V98.1497L64.7689 95.7195H63.1488V95.296H65.4808V95.6152L63.7195 98.0515H65.4931V98.475H63.0015ZM66.3156 98.475V93.9889C66.5058 93.9827 66.6899 93.9213 66.7881 93.8354H66.8863V95.744C67.3527 95.3574 67.6227 95.2408 68.0155 95.2408C68.7213 95.2408 69.1386 95.8422 69.1386 96.8671C69.1386 97.4992 68.9913 97.9411 68.6844 98.2479C68.4696 98.4627 68.1935 98.5732 67.8866 98.5732C67.5246 98.5732 67.1809 98.4382 66.8004 98.1374L66.6838 98.475H66.3156ZM66.8863 96.0816V97.8551C67.23 98.0699 67.4386 98.1374 67.7455 98.1374C68.2917 98.1374 68.5187 97.7692 68.5187 96.9039C68.5187 96.0447 68.3224 95.7133 67.813 95.7133C67.5246 95.7133 67.3957 95.7624 66.8863 96.0816ZM72.1252 98.475L71.9779 98.027C71.5667 98.4197 71.2476 98.5732 70.8241 98.5732C70.4989 98.5732 70.2595 98.4504 70.1122 98.2172C69.9956 98.0393 69.9527 97.8429 69.9527 97.4992V95.3267L70.5234 95.2899V97.5115C70.5234 97.9533 70.6646 98.1313 71.0082 98.1313C71.309 98.1313 71.5237 98.0393 71.9288 97.7385V95.3267L72.4995 95.2899V98.475H72.1252ZM73.2546 98.475V98.0638H73.7455V95.787H73.2668V95.3513H73.5123C73.8683 95.3513 74.0462 95.3144 74.1874 95.2224H74.3163V95.7624C74.6845 95.4433 75.022 95.2715 75.3595 95.2408V95.7931C74.93 95.8361 74.574 95.9281 74.3163 96.0631V98.0638H74.8563V98.475H73.2546ZM78.5853 95.609H78.4687C78.3091 95.609 78.1802 95.6336 78.0636 95.6827C78.1802 95.8668 78.2293 96.0631 78.2293 96.3209C78.2293 97.0389 77.7998 97.4378 77.0204 97.4378C76.8056 97.4378 76.6399 97.4133 76.4803 97.358C76.376 97.4808 76.333 97.5728 76.333 97.6772C76.333 97.849 76.4803 97.9411 76.7626 97.9411H77.2781C78.1741 97.9411 78.5362 98.1927 78.5362 98.8125C78.5362 99.4692 78.0391 99.7821 77.0142 99.7821C76.0753 99.7821 75.572 99.506 75.572 98.9905C75.572 98.6959 75.7439 98.4627 76.1121 98.2602C75.928 98.1559 75.8421 98.0208 75.8421 97.8367C75.8421 97.6219 75.9587 97.4256 76.2041 97.2169C75.928 97.0082 75.8052 96.7444 75.8052 96.3454C75.8052 95.6458 76.2594 95.2408 77.0449 95.2408C77.2167 95.2408 77.3579 95.2592 77.5052 95.296H78.5853V95.609ZM77.3702 98.4075H76.781C76.6337 98.4075 76.5233 98.3952 76.4005 98.3706C76.2041 98.5425 76.1182 98.7143 76.1182 98.9352C76.1182 99.236 76.3944 99.371 77.0326 99.371C77.4254 99.371 77.7016 99.3096 77.8611 99.193C77.9777 99.1132 78.0207 99.0089 78.0207 98.8309C78.0207 98.5179 77.8488 98.4075 77.3702 98.4075ZM77.0204 95.6336C76.5785 95.6336 76.376 95.8484 76.376 96.3209C76.376 96.8303 76.5601 97.0328 77.0326 97.0328C77.4684 97.0328 77.6586 96.8241 77.6586 96.3332C77.6586 95.8299 77.4806 95.6336 77.0204 95.6336ZM17.0289 105.437C17.5506 105.437 17.9495 105.836 17.9495 106.358C17.9495 106.879 17.5506 107.278 17.0289 107.278C16.5011 107.278 16.1084 106.879 16.1084 106.345C16.1084 105.836 16.5134 105.437 17.0289 105.437ZM21.8636 108.26V107.739C22.3423 108.002 22.6799 108.101 23.1033 108.101C23.6925 108.101 24.0238 107.849 24.0238 107.401C24.0238 107.168 23.9379 106.99 23.7477 106.83C23.6127 106.72 23.5574 106.683 23.0603 106.401C22.6676 106.18 22.4589 106.032 22.3116 105.879C22.0968 105.652 21.9864 105.382 21.9864 105.057C21.9864 104.345 22.5019 103.909 23.3426 103.909C23.6986 103.909 24.0361 103.983 24.3859 104.13V104.639C23.9686 104.437 23.6986 104.369 23.3304 104.369C22.8087 104.369 22.5326 104.59 22.5326 105.008C22.5326 105.376 22.6983 105.572 23.3181 105.91C23.9072 106.235 23.9686 106.272 24.165 106.444C24.4657 106.701 24.6069 107.002 24.6069 107.358C24.6069 108.094 24.03 108.561 23.1217 108.561C22.6737 108.561 22.3178 108.475 21.8636 108.26ZM27.0639 108.033V108.444C26.8737 108.518 26.7325 108.542 26.5423 108.542C25.8549 108.542 25.5358 108.205 25.5358 107.493V105.707H25.0632V105.296H25.1799C25.4683 105.296 25.5849 105.21 25.6647 104.916L25.7506 104.609H26.1065V105.296H26.978V105.707H26.1065V107.573C26.1065 107.953 26.26 108.113 26.6282 108.113C26.7693 108.113 26.8675 108.094 27.0639 108.033ZM29.9036 108.475L29.7563 108.027C29.3451 108.42 29.026 108.573 28.6025 108.573C28.2773 108.573 28.0379 108.45 27.8907 108.217C27.7741 108.039 27.7311 107.843 27.7311 107.499V105.327L28.3018 105.29V107.511C28.3018 107.953 28.443 108.131 28.7867 108.131C29.0874 108.131 29.3022 108.039 29.7072 107.739V105.327L30.2779 105.29V108.475H29.9036ZM33.0091 108.033V108.444C32.8188 108.518 32.6777 108.542 32.4874 108.542C31.8001 108.542 31.481 108.205 31.481 107.493V105.707H31.0084V105.296H31.125C31.4135 105.296 31.5301 105.21 31.6099 104.916L31.6958 104.609H32.0517V105.296H32.9232V105.707H32.0517V107.573C32.0517 107.953 32.2051 108.113 32.5734 108.113C32.7145 108.113 32.8127 108.094 33.0091 108.033ZM35.3824 108.033V108.444C35.1921 108.518 35.051 108.542 34.8607 108.542C34.1734 108.542 33.8543 108.205 33.8543 107.493V105.707H33.3817V105.296H33.4983C33.7867 105.296 33.9034 105.21 33.9831 104.916L34.069 104.609H34.425V105.296H35.2964V105.707H34.425V107.573C34.425 107.953 34.5784 108.113 34.9466 108.113C35.0878 108.113 35.186 108.094 35.3824 108.033ZM38.713 105.609H38.5964C38.4368 105.609 38.308 105.634 38.1914 105.683C38.308 105.867 38.3571 106.063 38.3571 106.321C38.3571 107.039 37.9275 107.438 37.1481 107.438C36.9333 107.438 36.7676 107.413 36.608 107.358C36.5037 107.481 36.4607 107.573 36.4607 107.677C36.4607 107.849 36.608 107.941 36.8903 107.941H37.4058C38.3018 107.941 38.6639 108.193 38.6639 108.813C38.6639 109.469 38.1668 109.782 37.1419 109.782C36.203 109.782 35.6998 109.506 35.6998 108.99C35.6998 108.696 35.8716 108.463 36.2398 108.26C36.0557 108.156 35.9698 108.021 35.9698 107.837C35.9698 107.622 36.0864 107.426 36.3319 107.217C36.0557 107.008 35.933 106.744 35.933 106.345C35.933 105.646 36.3871 105.241 37.1726 105.241C37.3445 105.241 37.4856 105.259 37.6329 105.296H38.713V105.609ZM37.4979 108.407H36.9087C36.7614 108.407 36.651 108.395 36.5282 108.371C36.3319 108.542 36.2459 108.714 36.2459 108.935C36.2459 109.236 36.5221 109.371 37.1604 109.371C37.5531 109.371 37.8293 109.31 37.9888 109.193C38.1054 109.113 38.1484 109.009 38.1484 108.831C38.1484 108.518 37.9766 108.407 37.4979 108.407ZM37.1481 105.634C36.7062 105.634 36.5037 105.848 36.5037 106.321C36.5037 106.83 36.6878 107.033 37.1604 107.033C37.5961 107.033 37.7863 106.824 37.7863 106.333C37.7863 105.83 37.6083 105.634 37.1481 105.634ZM41.8652 108.064V108.444C41.7241 108.493 41.5768 108.518 41.4602 108.518C41.1595 108.518 40.9815 108.371 40.9017 108.058C40.5703 108.414 40.2512 108.573 39.8646 108.573C39.3061 108.573 38.9809 108.248 38.9809 107.677C38.9809 107.198 39.1834 106.935 39.6314 106.806C39.9198 106.72 40.0978 106.701 40.8833 106.646V106.382C40.8833 105.885 40.7054 105.689 40.2635 105.689C39.9321 105.689 39.6314 105.769 39.1773 105.971V105.511C39.5639 105.327 39.9076 105.241 40.2942 105.241C41.092 105.241 41.4541 105.597 41.4541 106.388V107.818C41.4541 108.021 41.5154 108.088 41.6873 108.088C41.7548 108.088 41.7977 108.082 41.8652 108.064ZM40.8833 107.696V107.008L40.7974 107.014L40.5397 107.033C39.7787 107.088 39.5516 107.229 39.5516 107.653C39.5516 108.009 39.6866 108.156 40.0119 108.156C40.3126 108.156 40.6072 108.002 40.8833 107.696ZM42.2102 108.475V108.064H42.7011V105.787H42.2224V105.351H42.4679C42.8239 105.351 43.0018 105.314 43.143 105.222H43.2719V105.762C43.6401 105.443 43.9776 105.271 44.3151 105.241V105.793C43.8856 105.836 43.5296 105.928 43.2719 106.063V108.064H43.8119V108.475H42.2102ZM46.7333 108.033V108.444C46.5431 108.518 46.4019 108.542 46.2117 108.542C45.5244 108.542 45.2052 108.205 45.2052 107.493V105.707H44.7327V105.296H44.8493C45.1377 105.296 45.2543 105.21 45.3341 104.916L45.42 104.609H45.776V105.296H46.6474V105.707H45.776V107.573C45.776 107.953 45.9294 108.113 46.2976 108.113C46.4388 108.113 46.537 108.094 46.7333 108.033ZM47.0692 106.665V106.204H48.5727V106.665H47.0692ZM49.2527 104.013H49.8848V106.8C49.8848 107.708 50.2285 108.088 51.0631 108.088C51.8609 108.088 52.223 107.683 52.223 106.787V104.013H52.7753V106.775C52.7753 107.978 52.2107 108.567 51.057 108.567C49.8725 108.567 49.2527 107.959 49.2527 106.8V104.013ZM54.4773 108.475H53.9065V104.394H53.4279V103.964H53.6733C54.0354 103.964 54.2195 103.927 54.3545 103.835H54.4773V108.475ZM55.5759 108.475V105.376C55.7661 105.37 55.9502 105.308 56.0484 105.222H56.1466V105.732C56.6008 105.357 56.8585 105.241 57.2267 105.241C57.595 105.241 57.7975 105.394 57.9325 105.769C58.4173 105.388 58.7487 105.241 59.1231 105.241C59.6263 105.241 59.9147 105.597 59.9147 106.223V108.475H59.344V106.235C59.344 105.885 59.209 105.713 58.9328 105.713C58.6505 105.713 58.4909 105.775 58.0307 106.051V108.475H57.4599V106.272C57.4599 105.879 57.3311 105.713 57.0365 105.713C56.7542 105.713 56.6069 105.769 56.1466 106.051V108.475H55.5759ZM17.0289 115.437C17.5506 115.437 17.9495 115.836 17.9495 116.358C17.9495 116.879 17.5506 117.278 17.0289 117.278C16.5011 117.278 16.1084 116.879 16.1084 116.345C16.1084 115.836 16.5134 115.437 17.0289 115.437ZM22.2134 118.475L22.3055 114.013H23.0419L24.4105 117.174L25.7913 114.013H26.5216V118.475H25.9263V114.885L24.5148 118.015H24.1466L22.8271 114.946L22.7596 118.475H22.2134ZM30.2925 118.064V118.444C30.1514 118.493 30.0041 118.518 29.8875 118.518C29.5868 118.518 29.4088 118.371 29.329 118.058C28.9976 118.414 28.6785 118.573 28.2919 118.573C27.7334 118.573 27.4081 118.248 27.4081 117.677C27.4081 117.198 27.6107 116.935 28.0587 116.806C28.3471 116.72 28.5251 116.701 29.3106 116.646V116.382C29.3106 115.885 29.1326 115.689 28.6908 115.689C28.3594 115.689 28.0587 115.769 27.6045 115.971V115.511C27.9912 115.327 28.3348 115.241 28.7215 115.241C29.5193 115.241 29.8813 115.597 29.8813 116.388V117.818C29.8813 118.021 29.9427 118.088 30.1145 118.088C30.1821 118.088 30.225 118.082 30.2925 118.064ZM29.3106 117.696V117.008L29.2247 117.014L28.9669 117.033C28.2059 117.088 27.9789 117.229 27.9789 117.653C27.9789 118.009 28.1139 118.156 28.4392 118.156C28.7399 118.156 29.0344 118.002 29.3106 117.696ZM30.9381 118.475V115.376C31.1284 115.37 31.3125 115.308 31.4107 115.222H31.5089V115.744C31.9692 115.376 32.276 115.241 32.6688 115.241C33.2211 115.241 33.5402 115.603 33.5402 116.223V118.475H32.9695V116.302C32.9695 115.897 32.8161 115.713 32.4785 115.713C32.1839 115.713 31.9998 115.781 31.5089 116.082V118.475H30.9381ZM34.564 118.475V115.376C34.7542 115.37 34.9383 115.308 35.0365 115.222H35.1347V115.744C35.595 115.376 35.9018 115.241 36.2946 115.241C36.8469 115.241 37.1661 115.603 37.1661 116.223V118.475H36.5953V116.302C36.5953 115.897 36.4419 115.713 36.1044 115.713C35.8098 115.713 35.6257 115.781 35.1347 116.082V118.475H34.564ZM38.1898 118.475V113.989C38.3801 113.983 38.5642 113.921 38.6624 113.835H38.7606V115.744C39.227 115.37 39.5277 115.241 39.9205 115.241C40.4728 115.241 40.7919 115.603 40.7919 116.223V118.475H40.2212V116.266C40.2212 115.904 40.0555 115.713 39.7302 115.713C39.4356 115.713 39.2515 115.781 38.7606 116.082V118.475H38.1898ZM44.3134 117.014H42.2146C42.2146 117.818 42.4662 118.125 43.1413 118.125C43.4788 118.125 43.6568 118.076 44.1723 117.843V118.315C43.7856 118.5 43.4911 118.573 43.129 118.573C42.1225 118.573 41.607 118.009 41.607 116.91C41.607 115.83 42.1041 115.241 43.0124 115.241C43.8531 115.241 44.3134 115.775 44.3134 116.757V117.014ZM42.2146 116.597H43.6997C43.6629 115.891 43.4849 115.646 43.0062 115.646C42.6687 115.646 42.4416 115.793 42.3128 116.082C42.2637 116.21 42.233 116.345 42.2146 116.597ZM45.6023 114.001C45.8232 114.001 45.9766 114.155 45.9766 114.375C45.9766 114.596 45.8232 114.75 45.6023 114.75C45.3813 114.75 45.2279 114.596 45.2279 114.369C45.2279 114.155 45.3875 114.001 45.6023 114.001ZM45.8968 118.475H45.3261V115.787H44.8474V115.351H45.0929C45.4488 115.351 45.6268 115.314 45.768 115.222H45.8968V118.475ZM46.9518 118.475V115.376C47.142 115.37 47.3261 115.308 47.4243 115.222H47.5225V115.732C47.9767 115.357 48.2344 115.241 48.6026 115.241C48.9708 115.241 49.1734 115.394 49.3084 115.769C49.7932 115.388 50.1246 115.241 50.4989 115.241C51.0022 115.241 51.2906 115.597 51.2906 116.223V118.475H50.7199V116.235C50.7199 115.885 50.5849 115.713 50.3087 115.713C50.0264 115.713 49.8668 115.775 49.4066 116.051V118.475H48.8358V116.272C48.8358 115.879 48.707 115.713 48.4124 115.713C48.1301 115.713 47.9828 115.769 47.5225 116.051V118.475H46.9518ZM51.9536 116.665V116.204H53.4571V116.665H51.9536ZM53.7411 118.26V117.739C54.2198 118.002 54.5573 118.101 54.9808 118.101C55.5699 118.101 55.9013 117.849 55.9013 117.401C55.9013 117.168 55.8154 116.99 55.6251 116.83C55.4901 116.72 55.4349 116.683 54.9378 116.401C54.545 116.18 54.3364 116.032 54.1891 115.879C53.9743 115.652 53.8638 115.382 53.8638 115.057C53.8638 114.345 54.3793 113.909 55.2201 113.909C55.576 113.909 55.9136 113.983 56.2634 114.13V114.639C55.8461 114.437 55.576 114.369 55.2078 114.369C54.6862 114.369 54.41 114.59 54.41 115.008C54.41 115.376 54.5757 115.572 55.1955 115.91C55.7847 116.235 55.8461 116.272 56.0424 116.444C56.3432 116.701 56.4843 117.002 56.4843 117.358C56.4843 118.094 55.9074 118.561 54.9992 118.561C54.5512 118.561 54.1952 118.475 53.7411 118.26ZM58.9413 118.033V118.444C58.7511 118.518 58.6099 118.542 58.4197 118.542C57.7324 118.542 57.4132 118.205 57.4132 117.493V115.707H56.9407V115.296H57.0573C57.3457 115.296 57.4623 115.21 57.5421 114.916L57.628 114.609H57.984V115.296H58.8554V115.707H57.984V117.573C57.984 117.953 58.1374 118.113 58.5056 118.113C58.6468 118.113 58.745 118.094 58.9413 118.033ZM61.781 118.475L61.6337 118.027C61.2226 118.42 60.9034 118.573 60.48 118.573C60.1547 118.573 59.9154 118.45 59.7681 118.217C59.6515 118.039 59.6085 117.843 59.6085 117.499V115.327L60.1793 115.29V117.511C60.1793 117.953 60.3204 118.131 60.6641 118.131C60.9648 118.131 61.1796 118.039 61.5847 117.739V115.327L62.1554 115.29V118.475H61.781ZM64.8865 118.033V118.444C64.6963 118.518 64.5551 118.542 64.3649 118.542C63.6775 118.542 63.3584 118.205 63.3584 117.493V115.707H62.8859V115.296H63.0025C63.2909 115.296 63.4075 115.21 63.4873 114.916L63.5732 114.609H63.9292V115.296H64.8006V115.707H63.9292V117.573C63.9292 117.953 64.0826 118.113 64.4508 118.113C64.592 118.113 64.6901 118.094 64.8865 118.033ZM67.2598 118.033V118.444C67.0696 118.518 66.9284 118.542 66.7382 118.542C66.0508 118.542 65.7317 118.205 65.7317 117.493V115.707H65.2592V115.296H65.3758C65.6642 115.296 65.7808 115.21 65.8606 114.916L65.9465 114.609H66.3024V115.296H67.1739V115.707H66.3024V117.573C66.3024 117.953 66.4559 118.113 66.8241 118.113C66.9652 118.113 67.0634 118.094 67.2598 118.033ZM70.5905 115.609H70.4739C70.3143 115.609 70.1854 115.634 70.0688 115.683C70.1854 115.867 70.2345 116.063 70.2345 116.321C70.2345 117.039 69.8049 117.438 69.0255 117.438C68.8107 117.438 68.645 117.413 68.4855 117.358C68.3811 117.481 68.3382 117.573 68.3382 117.677C68.3382 117.849 68.4855 117.941 68.7678 117.941H69.2833C70.1793 117.941 70.5414 118.193 70.5414 118.813C70.5414 119.469 70.0443 119.782 69.0194 119.782C68.0804 119.782 67.5772 119.506 67.5772 118.99C67.5772 118.696 67.749 118.463 68.1173 118.26C67.9331 118.156 67.8472 118.021 67.8472 117.837C67.8472 117.622 67.9638 117.426 68.2093 117.217C67.9331 117.008 67.8104 116.744 67.8104 116.345C67.8104 115.646 68.2645 115.241 69.0501 115.241C69.2219 115.241 69.3631 115.259 69.5103 115.296H70.5905V115.609ZM69.3753 118.407H68.7862C68.6389 118.407 68.5284 118.395 68.4057 118.371C68.2093 118.542 68.1234 118.714 68.1234 118.935C68.1234 119.236 68.3996 119.371 69.0378 119.371C69.4306 119.371 69.7067 119.31 69.8663 119.193C69.9829 119.113 70.0259 119.009 70.0259 118.831C70.0259 118.518 69.854 118.407 69.3753 118.407ZM69.0255 115.634C68.5837 115.634 68.3811 115.848 68.3811 116.321C68.3811 116.83 68.5653 117.033 69.0378 117.033C69.4735 117.033 69.6638 116.824 69.6638 116.333C69.6638 115.83 69.4858 115.634 69.0255 115.634ZM73.7427 118.064V118.444C73.6015 118.493 73.4543 118.518 73.3377 118.518C73.0369 118.518 72.859 118.371 72.7792 118.058C72.4478 118.414 72.1287 118.573 71.742 118.573C71.1836 118.573 70.8583 118.248 70.8583 117.677C70.8583 117.198 71.0608 116.935 71.5088 116.806C71.7973 116.72 71.9752 116.701 72.7608 116.646V116.382C72.7608 115.885 72.5828 115.689 72.1409 115.689C71.8096 115.689 71.5088 115.769 71.0547 115.971V115.511C71.4413 115.327 71.785 115.241 72.1716 115.241C72.9694 115.241 73.3315 115.597 73.3315 116.388V117.818C73.3315 118.021 73.3929 118.088 73.5647 118.088C73.6322 118.088 73.6752 118.082 73.7427 118.064ZM72.7608 117.696V117.008L72.6749 117.014L72.4171 117.033C71.6561 117.088 71.4291 117.229 71.4291 117.653C71.4291 118.009 71.5641 118.156 71.8893 118.156C72.19 118.156 72.4846 118.002 72.7608 117.696ZM74.0876 118.475V118.064H74.5786V115.787H74.0999V115.351H74.3454C74.7013 115.351 74.8793 115.314 75.0204 115.222H75.1493V115.762C75.5175 115.443 75.8551 115.271 76.1926 115.241V115.793C75.763 115.836 75.4071 115.928 75.1493 116.063V118.064H75.6894V118.475H74.0876ZM78.6108 118.033V118.444C78.4205 118.518 78.2794 118.542 78.0891 118.542C77.4018 118.542 77.0827 118.205 77.0827 117.493V115.707H76.6101V115.296H76.7267C77.0152 115.296 77.1318 115.21 77.2116 114.916L77.2975 114.609H77.6534V115.296H78.5249V115.707H77.6534V117.573C77.6534 117.953 77.8068 118.113 78.1751 118.113C78.3162 118.113 78.4144 118.094 78.6108 118.033Z" fill="black"/>
<path d="M221.598 44.1373L225.398 36.7045H220.922L221 35.8294H226.339V36.5051L222.706 44.1373H221.598Z" fill="black"/>
<path d="M138.573 43.6499V42.941H140.767V36.782L138.939 37.3913V36.6823L141.265 35.774H141.841V42.941H143.669V43.6499H138.573ZM145.082 43.6499V43.0185C145.204 42.9077 145.459 42.6751 145.847 42.3206C148.239 40.1384 148.782 39.3298 148.782 37.9451C148.782 36.9703 148.317 36.4829 147.375 36.4829C146.644 36.4829 145.957 36.7266 145.249 37.2362V36.3611C145.847 35.8848 146.622 35.63 147.442 35.63C149.026 35.63 149.901 36.4719 149.901 37.9894C149.901 39.0418 149.524 39.8172 148.483 40.9138C148.062 41.3458 147.852 41.5452 146.434 42.8191H150.111L150.012 43.6499H145.082ZM152.688 42.2542C153.131 42.2542 153.452 42.5754 153.452 43.0185C153.452 43.4616 153.131 43.7828 152.688 43.7828C152.234 43.7828 151.924 43.4616 151.924 43.0074C151.924 42.5754 152.245 42.2542 152.688 42.2542ZM152.688 38.4436C153.131 38.4436 153.452 38.7648 153.452 39.2079C153.452 39.651 153.131 39.9723 152.688 39.9723C152.234 39.9723 151.924 39.651 151.924 39.1969C151.924 38.7648 152.245 38.4436 152.688 38.4436ZM159.587 43.6499H158.513V41.9219H154.624V41.368L158.391 35.4085H159.399L155.799 41.1686H158.513V38.5876L159.587 38.4658V41.1686H160.695V41.9219H159.587V43.6499ZM165.409 39.4516C166.151 39.795 166.295 39.8836 166.539 40.1052C166.927 40.4707 167.104 40.9249 167.104 41.5342C167.104 42.941 166.041 43.8161 164.313 43.8161C162.574 43.8161 161.521 42.9853 161.521 41.6228C161.521 40.6591 161.986 40.0941 163.216 39.5513C162.208 39.0085 161.809 38.4658 161.809 37.6128C161.809 36.3722 162.762 35.63 164.379 35.63C165.963 35.63 166.838 36.2946 166.838 37.5131C166.838 38.3218 166.406 38.9199 165.409 39.4516ZM163.969 39.8836C163.925 39.9058 163.925 39.9058 163.87 39.928C163.017 40.2935 162.618 40.8363 162.618 41.656C162.618 42.5311 163.227 43.0185 164.335 43.0185C165.431 43.0185 166.019 42.5533 166.019 41.7003C166.019 41.1132 165.786 40.7477 165.21 40.4375C164.911 40.2714 164.778 40.2049 163.969 39.8836ZM164.689 39.1415C165.465 38.6762 165.742 38.2664 165.742 37.5796C165.742 36.7931 165.287 36.4165 164.324 36.4165C163.371 36.4165 162.884 36.782 162.884 37.491C162.884 38.1999 163.249 38.5322 164.689 39.1415Z" fill="black"/>
<path d="M174.192 43.6499V42.5754H176.02V37.5796L174.458 38.211V36.9039L176.795 35.774H177.969V42.5754H179.487V43.6499H174.192ZM180.623 43.6499V42.5865C181.986 41.3569 182.285 41.0689 182.794 40.504C183.592 39.6067 183.847 39.0529 183.847 38.211C183.847 37.4467 183.503 37.0922 182.739 37.0922C182.141 37.0922 181.642 37.2473 180.812 37.7125V36.2614C181.498 35.8294 182.23 35.63 183.105 35.63C184.833 35.63 185.741 36.4829 185.741 38.1113C185.741 39.0418 185.464 39.7175 184.7 40.6037C184.356 41.0024 183.958 41.3901 183.049 42.2099H185.896L185.741 43.6499H180.623ZM188.44 41.7668C189.027 41.7668 189.459 42.1988 189.459 42.7859C189.459 43.373 189.027 43.805 188.44 43.805C187.852 43.805 187.42 43.373 187.42 42.7748C187.42 42.1988 187.864 41.7668 188.44 41.7668ZM188.44 38.3328C189.027 38.3328 189.459 38.7648 189.459 39.3519C189.459 39.939 189.027 40.371 188.44 40.371C187.852 40.371 187.42 39.939 187.42 39.3409C187.42 38.7648 187.864 38.3328 188.44 38.3328ZM195.649 43.6499H193.887V42.1434H190.265V41.1132L193.522 35.3752H195.194L192.093 40.9138H193.887V39.0307L195.649 38.7648V40.9138H196.435V42.1434H195.649V43.6499ZM201.438 39.3187C202.523 39.8504 202.9 40.3821 202.9 41.4234C202.9 42.9299 201.825 43.8161 199.987 43.8161C198.17 43.8161 197.084 43.0074 197.084 41.656C197.084 40.7698 197.527 40.216 198.569 39.8283C197.671 39.3187 197.328 38.7648 197.328 37.8454C197.328 36.4497 198.325 35.63 200.042 35.63C201.715 35.63 202.634 36.3279 202.634 37.6128C202.634 38.3661 202.28 38.8645 201.438 39.3187ZM199.566 40.2492C199.51 40.2714 199.51 40.2714 199.455 40.3157C198.967 40.6258 198.779 40.9471 198.779 41.5009C198.779 42.1656 199.222 42.5422 200.031 42.5422C200.762 42.5422 201.161 42.1988 201.161 41.5674C201.161 41.1465 200.995 40.8806 200.596 40.6812C200.352 40.5483 200.341 40.5483 199.566 40.2492ZM200.363 38.9199C200.873 38.4658 200.961 38.2996 200.961 37.8122C200.961 37.1919 200.64 36.8928 199.987 36.8928C199.399 36.8928 199.067 37.1808 199.067 37.6904C199.067 38.2442 199.278 38.4547 200.363 38.9199Z" fill="#518D1A"/>
<path d="M11.5 79.5H41.5" stroke="#AB1519" stroke-width="1.5" stroke-linecap="round" stroke-linejoin="round"/>
</g>
<defs>
<filter id="filter0_d_577_32" x="1.6" y="53.6" width="237.8" height="80.8" filterUnits="userSpaceOnUse" color-interpolation-filters="sRGB">
<feFlood flood-opacity="0" result="BackgroundImageFix"/>
<feColorMatrix in="SourceAlpha" type="matrix" values="0 0 0 0 0 0 0 0 0 0 0 0 0 0 0 0 0 0 127 0" result="hardAlpha"/>
<feOffset/>
<feGaussianBlur stdDeviation="1.7"/>
<feComposite in2="hardAlpha" operator="out"/>
<feColorMatrix type="matrix" values="0 0 0 0 0 0 0 0 0 0 0 0 0 0 0 0 0 0 0.25 0"/>
<feBlend mode="normal" in2="BackgroundImageFix" result="effect1_dropShadow_577_32"/>
<feBlend mode="normal" in="SourceGraphic" in2="effect1_dropShadow_577_32" result="shape"/>
</filter>
<filter id="filter1_d_577_32" x="1.6" y="15.6" width="237.8" height="40.8" filterUnits="userSpaceOnUse" color-interpolation-filters="sRGB">
<feFlood flood-opacity="0" result="BackgroundImageFix"/>
<feColorMatrix in="SourceAlpha" type="matrix" values="0 0 0 0 0 0 0 0 0 0 0 0 0 0 0 0 0 0 127 0" result="hardAlpha"/>
<feOffset/>
<feGaussianBlur stdDeviation="1.7"/>
<feComposite in2="hardAlpha" operator="out"/>
<feColorMatrix type="matrix" values="0 0 0 0 0 0 0 0 0 0 0 0 0 0 0 0 0 0 0.25 0"/>
<feBlend mode="normal" in2="BackgroundImageFix" result="effect1_dropShadow_577_32"/>
<feBlend mode="normal" in="SourceGraphic" in2="effect1_dropShadow_577_32" result="shape"/>
</filter>
<clipPath id="clip0_577_32">
<rect width="240" height="135" fill="white"/>
</clipPath>
</defs>
</svg>
